<svg xmlns="http://www.w3.org/2000/svg" viewBox="0 0 368.04 409.46"><defs><style>.cls-1{fill:#fff;}</style></defs><title>atencion a cliente</title><g id="Capa_2" data-name="Capa 2"><g id="Capa_1-2" data-name="Capa 1"><path class="cls-1" d="M5.62,409.46C1,406.86-.32,402.87.06,397.72c3.51-46.51,24.49-81.81,66.75-103,13.32-6.67,28-10.05,42.17-14.75,3.84-1.27,6.3-3.11,8-6.86,3-6.69,6.36-13.18,9.77-19.66,1.05-2,.93-3.19-.65-4.82a62.05,62.05,0,0,1-12.23-17.18c-1.88-4.12-4.19-5.44-8.69-5.35-10.54.24-18.41-4.56-23-14.23-2.3-4.85-2.32-10.08-2.09-15.29.11-2.5-.48-3.9-3-5.19-8.1-4.13-12.84-11.07-12.89-20.15-.12-20.92-1.25-41.89.6-62.76,2.63-29.7,15-55.08,36.69-75.51C128.09,7.92,160-2.94,196.3.68,229.43,4,256.61,19.12,277.55,45c18.3,22.62,26.61,48.82,26.48,77.81-.07,15.07,0,30.13,0,45.19,0,16.25-9.94,26.22-26.09,26.29h-4.4c-8.15,0-8.19,0-9.4,7.86a86.49,86.49,0,0,1-22.18,46.51c-1.54,1.68-1.62,2.88-.6,4.84,3.74,7.2,7.34,14.48,10.86,21.79a7.05,7.05,0,0,0,4.6,3.92c12,3.9,24.1,7.68,36,12.05,32.79,12.09,54.25,35.66,67.14,67.57,5,12.45,7.36,25.52,8.1,38.93.28,5.14-1,9.13-5.58,11.73Zm123.7-183.2c.66,1.18.89,1.65,1.17,2.09,14.08,22.23,38.54,33.21,64.1,29.13,25.07-4,45.56-24.59,51.64-48.84,5.66-22.55,7.37-45.72,9.06-68.85.25-3.45-1-4.32-4-4.63A152.85,152.85,0,0,1,230,131.44,143.31,143.31,0,0,1,167.23,98c-1.29-1.16-2.46-2.17-4.54-1.91a62.28,62.28,0,0,0-23,7.52c-11.73,6.59-18.63,17.66-26.44,27.92-.92,1.2-.63,2.53-.58,3.84.45,11.06,1.4,22.08,2.65,33.07,1.48,13,3,25.92,5.88,38.69.54,2.41,1.46,3.25,4,3.17,5.73-.18,11.47-.14,17.2,0a3.88,3.88,0,0,0,4.22-2.59,22.57,22.57,0,0,1,17.55-13c6.6-1,13.32-.52,20-.34,13.6.36,23.9,10.87,23.88,24s-10.42,23.49-24,23.88c-4.79.14-9.6,0-14.4,0-10.56,0-18.46-4.36-23.21-14-.64-1.28-1.26-2.13-2.93-2.08C138.94,226.34,134.45,226.26,129.32,226.26Zm39.94,166.62c-3.48-5.54-6.64-11.24-10.44-16.47a326.57,326.57,0,0,1-42.61-78.76c-1-2.59-2-2.7-4.38-1.9-9.8,3.4-19.8,6.27-29.5,9.92-38.67,14.55-59,43.62-65.54,83.47-.57,3.45.17,4.42,3.89,4.41,48.11-.14,96.22-.09,144.33-.11C166.28,393.44,167.63,393.8,169.26,392.88Zm29.11.58h144c9.72,0,9.94,0,8-9.63-6.75-33.59-24.27-59.37-55.62-74.48-12.71-6.13-26.61-9.27-39.88-14-2.53-.91-2.54,1.19-3,2.53a330.82,330.82,0,0,1-42.27,78.07C205.68,381.29,202.41,387.09,198.37,393.46ZM112.61,104.72c.69,0,.87.06.94,0,.59-.55,1.17-1.09,1.71-1.67,13.51-14.36,30.19-21.84,49.8-23.13a12.51,12.51,0,0,1,10.12,3.63c21.83,21,48.08,32.4,78,35.83,2,.22,2.74.17,2.88-2.17a66,66,0,0,0-42.59-65.36c-12-4.47-24.32-4.12-36.7-4-18.34.23-34,6.93-46.71,20.17A63.53,63.53,0,0,0,112.61,104.72ZM184,15.86a110.83,110.83,0,0,0-21.42,2.3c-24.92,5.4-45.29,18.17-60.9,38.29a101.25,101.25,0,0,0-21,52.29c-.26,2.46.15,3.38,2.77,3.17a43.52,43.52,0,0,1,8,0c3.39.33,4.56-.62,4.92-4.36,3.34-34.17,21-57.85,52.87-70.7,15.25-6.16,31.38-5.66,47.34-4.69,38.46,2.34,70.33,32.69,74.76,70.56.34,3-.8,7.11,1.44,8.64s5.91.47,9,.49c6.08,0,6.08,0,5.3-5.85A104.32,104.32,0,0,0,184,15.86Zm-.7,295.65c-.71.64-1.32,1.12-1.85,1.68-8.34,8.8-16.63,17.64-25,26.38-1.41,1.47-1.28,2.52-.3,4.13,8.37,13.76,18.47,26.39,26.46,40.39.86,1.5,1.66,2,2.74.15,8.11-14.08,18.22-26.87,26.67-40.73,1.05-1.72.86-2.72-.52-4.09-8.81-8.7-17.53-17.5-26.29-26.25C184.65,312.63,184,312.15,183.31,311.51Zm37.8,14.83c.42-.35.7-.49.81-.7a284.36,284.36,0,0,0,16.79-38.73c.26-.76.69-1.52.3-2.29-3.44-6.94-6.91-13.85-10.55-21.15-11.24,11.9-22,23.31-32.81,34.7-.85.89-1.27,1.53-.2,2.6Q208.32,313.52,221.11,326.34Zm-74.47.33c8.14-8.58,15.89-16.81,23.73-25,1.39-1.45,1.1-2.3-.17-3.57q-15-14.92-29.94-30c-1.5-1.52-2.29-1.83-3.34.42-2.3,4.94-4.83,9.78-7.26,14.66a3.92,3.92,0,0,0-.51,3.38A312,312,0,0,0,146.64,326.67ZM80,150c0,6.38-.07,12.76,0,19.14.1,6,3.2,9,9.2,9.14,2.66.07,5.33-.11,8,0,2.25.14,3.09-.54,2.78-2.89-2-14.9-2.86-29.89-3.64-44.89-.1-2-.69-2.79-2.79-2.7a87.5,87.5,0,0,1-10.37,0c-2.78-.2-3.28,1-3.22,3.42C80.12,137.46,80,143.71,80,150Zm208,.29c0-3.19.12-6.38,0-9.57-.19-4.19,1.89-9.94-.86-12.15s-8.13-.5-12.35-.71c-2.18-.11-3,.53-3.12,2.81-.72,15-1.68,30-3.61,44.88-.26,2,.28,2.91,2.48,2.78,2.79-.16,5.59,0,8.38,0,5.94-.16,9-3.23,9.09-9.24C288.08,162.75,288,156.5,288,150.25Zm-112.39,76c2.8,0,5.6.16,8.39,0,4.65-.32,7.94-3.73,7.93-7.94a8,8,0,0,0-7.95-7.91c-5.32-.22-10.66-.22-16,0a8,8,0,0,0-7.94,7.92c0,4.22,3.3,7.6,8,7.93C170.55,226.37,173.1,226.22,175.63,226.22Zm-7.48,47.41q6.78,6.67,13.56,13.38c.76.75,1.43,1.11,2.31.16,4.11-4.38,8.23-8.73,13-13.83A115.52,115.52,0,0,1,168.15,273.63ZM99.84,194.26c-3.78,0-3.79,0-3.81,3.4a35.65,35.65,0,0,0,.11,5.17,7.92,7.92,0,0,0,6.45,7.18c2,.49,3,.29,2.38-2.26a104.39,104.39,0,0,1-1.83-10.58C102.84,194.91,102,193.71,99.84,194.26Z"/><path class="cls-1" d="M320.46,372.59a7.78,7.78,0,0,1-6.86-4.13,79.25,79.25,0,0,0-18.37-22.38c-3.86-3.3-4-7.95-1-11.34s7.46-3.73,11.44-.57a79.31,79.31,0,0,1,21.6,26.33C330.2,366.3,326.58,372.58,320.46,372.59Z"/><path class="cls-1" d="M272,332.59a7.94,7.94,0,1,1,8-7.88A8.19,8.19,0,0,1,272,332.59Z"/></g></g></svg>