<svg xmlns="http://www.w3.org/2000/svg" viewBox="0 0 384 383.85"><defs><style>.cls-1{fill:#fff;}</style></defs><title>circuito</title><g id="Capa_2" data-name="Capa 2"><g id="Capa_1-2" data-name="Capa 1"><path class="cls-1" d="M348,383.85a13.83,13.83,0,0,0-1.71-.68c-12.1-3.13-19.75-12.79-19.92-25.34-.1-6.87-.22-13.76.06-20.62.14-3.5-.65-4.65-4.42-4.6-17.12.23-34.24.14-51.37.09-20.53-.06-35.26-9.31-44-28-4.32-9.27-8.68-18.53-12.95-27.83a5.66,5.66,0,0,0-4.26-3.57,46.12,46.12,0,0,1-28.22-19.63c-1.37-2.06-2.41-2.42-4.73-1.46-14.52,6-29.12,11.84-43.7,17.73-16.09,6.49-29.71.84-36.09-15.25-1.28-3.23-2.68-4-5.54-2.19a8,8,0,0,1-2.08.83c-4.36,1.16-7,3.15-7.66,8.39-.72,5.8-4.84,10.07-10.28,12.53-4.32,2-8.72,3.75-13.19,5.3-9.56,3.33-19.91-.83-23.8-10.14q-12.57-30-24.41-60.38c-3.64-9.31.82-19.32,9.91-23.51,4.3-2,8.69-3.81,13.17-5.37a18.2,18.2,0,0,1,18.63,3.31c1.84,1.53,3.3,1.74,5.3.71,3-1.54,7.64-1.63,8.82-4.25s-2.16-6.05-3-9.27c-1-3.75-3.26-5.57-7-6.8-14.08-4.68-28-9.73-42-14.68C5.36,146.3.25,139.66,0,131.7c-.25-8.5,4.37-15.38,12.81-18.79Q113.6,72.1,214.4,31.33q35.73-14.46,71.46-28.95c13.62-5.52,23.29-1.43,28.8,12.2,13.62,33.66,27.16,67.35,40.89,101,3.33,8.17,3.06,15.55-2.92,22.31a2.75,2.75,0,0,0-.45,3.37c1.24,2.86,2.34,5.78,3.5,8.67,6.44,16,.61,29.57-15.47,36.08l-55.15,22.35c-5,2-9.93,4.08-14.93,6-1.71.67-2.54,1.31-2.11,3.49a46,46,0,0,1-6.75,34.75,4.33,4.33,0,0,0-.28,4.81c3.42,7.08,6.77,14.2,10,21.37a4,4,0,0,0,4.25,2.71q24-.12,48,0c2.45,0,3.22-.72,3.17-3.17-.15-7.25-.12-14.5,0-21.75.17-15.23,11.11-26.15,26.34-26.34,4.87-.06,9.76.25,14.61-.08,7.88-.53,13.57,2.28,16.69,9.72V374.1a16.75,16.75,0,0,1-9.75,9.75ZM296,12.67a13.27,13.27,0,0,0-5.09,1.49Q154.69,69.24,18.52,124.33c-3.09,1.25-5.7,2.81-5.69,6.55,0,3.94,2.72,5.51,6,6.66q79.83,27.92,159.63,55.91a10.64,10.64,0,0,0,8-.1q76.47-31,153-62c5.66-2.29,6.67-4.83,4.35-10.58Q332.59,93,321.35,65.29C315,49.56,308.6,33.84,302.3,18.09,301.08,15.06,299.3,12.94,296,12.67Zm-218.49,159c-.48,1.73.4,2.77.84,3.86q15,37.13,30,74.23c3.91,9.64,10,12.21,19.63,8.32q65.73-26.58,131.45-53.16,37.82-15.28,75.63-30.53c10.13-4.1,12.67-10.08,8.61-20.12a34.86,34.86,0,0,1-2.05-5.22c-.86-3.76-2.6-3.67-5.81-2.37-47.93,19.51-95.94,38.83-143.88,58.33a24.23,24.23,0,0,1-18.16.42c-23.84-8.49-47.76-16.79-71.65-25.16ZM371.23,307.35c0-20.24-.07-40.47.07-60.7,0-3-.82-3.87-3.76-3.73-4.86.24-9.74,0-14.61.08-8.47.13-13.65,5.39-13.78,13.92,0,2.12,0,4.25,0,6.37q0,46.45,0,92.92c0,9.78,5,14.84,14.7,14.86,4.5,0,9-.19,13.49.07,3.06.18,4-.66,4-3.84C371.15,347.31,371.23,327.33,371.23,307.35ZM226.68,274.53c4.17,8.94,8.13,17.66,12.29,26.28,6,12.44,16.08,18.86,29.8,19,18.11.24,36.23,0,54.34.12,2.72,0,3.35-.93,3.29-3.45-.16-6.11-.22-12.24,0-18.36.12-3.1-.79-4-3.93-4-17.49.15-35,0-52.46.11-4.13,0-6.75-1.52-8.44-5.39-3.19-7.31-6.7-14.49-10.11-21.7-.51-1.09-.59-2.94-2.71-1.39A49.53,49.53,0,0,1,226.68,274.53ZM39,191.78c-4.33,1-8.7,3.18-13.17,5-4.05,1.67-5.44,4.77-3.82,8.8q11.63,29,23.48,57.91c1.65,4,4.73,5.28,8.85,3.78,3.75-1.36,7.46-2.84,11.1-4.48s4.82-4.64,3.56-8.35c-.85-2.47-1.93-4.87-2.91-7.3q-10.11-25-20.2-49.95C44.65,194.2,43,192,39,191.78ZM219.88,262c21.53.45,38.8-18.61,36.11-39-.28-2.11-.68-2.73-2.86-1.83q-29.41,12-58.92,23.84c-2.35.94-2.51,1.69-1,3.58A35.1,35.1,0,0,0,219.88,262Zm-130-23.82c-.32-.81-.64-1.62-1-2.43q-7.08-17.5-14.16-35c-3.59-8.86-3.56-8.76-12.42-5.13-2.35,1-2.57,1.92-1.65,4.13,4.87,11.75,9.58,23.55,14.35,35.34,3.62,9,3.62,9,12.57,5.07.46-.2.94-.34,1.39-.56S90.05,239,89.86,238.18Z"/></g></g></svg>