<svg xmlns="http://www.w3.org/2000/svg" viewBox="0 0 384.09 382.13"><defs><style>.cls-1{fill:#b28532;}</style></defs><title>garantia</title><g id="Capa_2" data-name="Capa 2"><g id="Capa_1-2" data-name="Capa 1"><path class="cls-1" d="M384.09,167.07v6a46.93,46.93,0,0,1-5.16,7.24c-6.86,7.78-13.53,15.73-20.42,23.48-1.66,1.87-1.92,3.21-.63,5.46,5.44,9.54,10.68,19.2,16,28.83,4.39,8,2.42,14.26-5.72,18.13-9.92,4.71-19.82,9.48-29.84,14-2.56,1.14-3.17,2.51-2.92,5.07,1,10.57,1.92,21.15,2.84,31.73.87,10.15-3.21,14.83-13.3,15.08-10.87.27-21.74.47-32.61.54-2.42,0-3.47.93-4.22,3.15-3.53,10.53-7.2,21-10.88,31.49-2.93,8.36-9,11-17.1,7.64-9.9-4.15-19.82-8.23-29.62-12.61-2.94-1.32-4.68-1.19-6.95,1.36-7.23,8.11-14.77,15.95-22.24,23.86-5.89,6.24-12.54,6.19-18.45-.09-7.62-8.1-15.29-16.16-22.77-24.39-1.75-1.92-3.06-2.1-5.4-1.07-10.16,4.46-20.42,8.71-30.67,13-8,3.34-14,.69-16.9-7.43-3.48-9.89-7.12-19.73-10.22-29.73-1.25-4.06-3.16-5.33-7.33-5.29-10.87.12-21.75-.18-32.61-.55a10.87,10.87,0,0,1-10.64-8c-.9-2.84-.4-5.71-.15-8.56.87-10.2,1.71-20.41,2.7-30.61.23-2.35-.48-3.52-2.67-4.51C36.05,265.69,26,260.9,16,256.18c-7.93-3.72-10-10.12-5.8-17.85,5.28-9.63,10.54-19.27,16-28.83,1.28-2.25,1.33-3.73-.51-5.79C18.3,195.52,11.18,187.13,4,178.81-1.87,172-1.28,165.6,5.8,160.19c8.73-6.68,17.44-13.4,26.32-19.88,2.36-1.73,2.67-3.24,1.82-5.91-3.35-10.46-6.48-21-9.62-31.5-2.44-8.18,1-14.09,9.26-16C44.39,84.36,55.19,81.75,66,79.41c2.75-.59,3.53-1.88,3.82-4.47,1.28-11.29,2.64-22.58,4.25-33.83,1.08-7.55,6.47-11.29,13.89-9.94,11.29,2.07,22.59,4.15,33.83,6.47,2.45.51,3.54-.09,4.74-2.11C132.21,26,138,16.47,143.77,7c4.66-7.66,11-9,18.29-4,9.25,6.4,18.5,12.78,27.65,19.32,1.86,1.33,3.09,1.21,4.87-.06q13.74-9.76,27.64-19.32c7.15-4.95,13.5-3.6,18,3.84Q249,21.16,257.69,35.63c1.09,1.83,2.07,2.55,4.41,2.06,10.75-2.24,21.55-4.26,32.35-6.28,9.69-1.81,14.79,1.95,16,11.67,1.34,10.78,2.72,21.56,3.9,32.36.27,2.44,1.29,3.37,3.57,3.88,10.84,2.42,21.64,5,32.46,7.52,8.52,2,11.94,7.81,9.42,16.2-3.15,10.52-6.25,21-9.61,31.5-.89,2.77-.29,4.18,2,5.85,8.09,5.87,15.93,12.08,24,18C379.4,160.8,382.3,163.4,384.09,167.07ZM300.22,191A108.13,108.13,0,1,0,192.09,299.2,108.1,108.1,0,0,0,300.22,191Z"/><path class="cls-1" d="M277.63,191A85.55,85.55,0,1,1,192,105.52,85.57,85.57,0,0,1,277.63,191Zm-97.41,35.51c3.37.09,6.17-1.56,8.66-4.06Q207.53,203.7,226.23,185c3.44-3.44,7-6.81,10.3-10.36a11.38,11.38,0,0,0,2-12.87,11.1,11.1,0,0,0-11.09-6.12c-3.35.22-5.82,2-8.09,4.24-12.35,12.38-24.76,24.7-37,37.15-1.84,1.87-2.85,1.87-4.66,0q-6.81-7.22-14-14a11.24,11.24,0,0,0-15.78,16c8,8.13,16.05,16.11,24.1,24.14A11,11,0,0,0,180.22,226.48Z"/></g></g></svg>