<svg xmlns="http://www.w3.org/2000/svg" viewBox="0 0 295.8 384"><defs><style>.cls-1{fill:#fff;}</style></defs><title>servicio de guardias</title><g id="Capa_2" data-name="Capa 2"><g id="Capa_1-2" data-name="Capa 1"><path class="cls-1" d="M157,0c9.1,1.43,18.28,2.49,27.13,5.27,21.72,6.81,41.11,17.42,56.28,34.8a48.89,48.89,0,0,1,9.12,15c3.47,9.22,1.73,17.4-4.71,24.69A42.87,42.87,0,0,1,232,89.4c-2.24,1.15-3.23,2.45-3.16,5.12.21,7.87.11,15.74,0,23.62,0,2,.12,3.72,1.88,5a1.34,1.34,0,0,1,.26.27c6,7.14,6.17,28.33.26,35.55A16.41,16.41,0,0,1,220.87,165a2.49,2.49,0,0,0-2.51,2.53c-2.93,20-12.56,35.8-29.45,47.07-.7.47-1.73,1.19-1.73,1.81-.07,4.95-1,10,1.56,14.69.49.88,1,1.76,2.29,1.48,7.66-1.68,14.79,1.45,22.12,2.57,10.49,1.59,20.87,3.84,31.31,5.69,24.91,4.41,46.88,27.68,50.54,53.56a83.88,83.88,0,0,1,.8,11.95q0,28.68,0,57.36c0,13-7.28,20.3-20.13,20.3H20.33C7.48,384,.18,376.65.16,363.74q0-12.36,0-24.74c0-4.21,2-6.63,5.38-6.75,3.52-.11,5.81,2.42,5.84,6.72.06,8.5,0,17,0,25.5,0,5.71,2.55,8.23,8.24,8.27,6,0,12-.14,18,.08,2.78.09,3.25-1,3.22-3.44-.1-13.12,0-26.24,0-39.37a29.79,29.79,0,0,1,0-3c.39-3.48,2.73-5.57,6-5.4,3.07.17,5.13,2.27,5.18,5.72.1,7.37,0,14.74,0,22.12,0,6.75.06,13.5,0,20.24,0,2.11.31,3.12,2.81,3.11q32.62-.15,65.24,0c2.26,0,2.9-.75,3.2-2.93q4.89-36.19,10-72.35a4.31,4.31,0,0,0-1.07-4.07,68.2,68.2,0,0,1-4.65-5.4c-1-1.31-1.93-1.39-3.49-.89-7,2.25-12,.56-16.35-5.45q-11.72-16.26-23.28-32.64c-1.34-1.91-2.59-2.44-4.95-2-8.92,1.82-17.91,3.32-26.87,5-2.42.46-4.91.85-7,2.41,6.27,10.3,5.79,16.9-1.87,26.33-1.33,1.65-2.63,3.34-4,5-6.17,7.26-15.31,9.13-23.61,4.54-2.35-1.3-2.79-.64-3.31,1.54a64.28,64.28,0,0,0-1.5,16,21.66,21.66,0,0,1-.13,4.49c-.6,3.06-2.54,4.94-5.75,4.79A5.17,5.17,0,0,1,.21,312c-2.64-36.88,20.2-62.31,46.24-69.77,9.67-2.77,19.8-4,29.73-5.86,7.48-1.41,15-2.74,22.46-4.14a7.71,7.71,0,0,1,4.44,0c3,1.25,4.1-.52,4.94-2.82,1.5-4.13.8-8.41.85-12.64,0-1.34-1.27-1.76-2.17-2.37-16.55-11.22-26.12-26.82-29.06-46.51-.31-2-1-2.57-3-3a16.92,16.92,0,0,1-13.9-16.35c-.2-5-.06-10,0-15a14.44,14.44,0,0,1,3.93-9.88,8.14,8.14,0,0,0,2.33-6.33c-.15-7.49-.17-15,0-22.49.07-2.69-.6-4.26-3.15-5.51a40.9,40.9,0,0,1-12.78-9.66C44.7,72.42,42.91,64.2,46.46,55,51.05,43.17,59.6,34.48,69.41,26.94A128.15,128.15,0,0,1,136.08.62,27.27,27.27,0,0,0,139,0ZM98.38,115.48c0,4.56.05,8.8,0,13a7.63,7.63,0,0,1-4.76,7.42,7.36,7.36,0,0,1-8.33-1.46,17.27,17.27,0,0,0-7.56-3.92c-4-1-5.46-.06-5.64,4-.21,4.49-.19,9,0,13.49.14,3.64,2.26,5.62,5.93,6,1.24.12,2.5,0,3.74.1,4.36.2,6.12,1.8,6.45,6.12.45,5.87,1.18,11.68,3.29,17.21,8.67,22.63,25.87,34.47,49.13,38.2,27.51,4.41,56.86-14.24,64.79-40.84A73.5,73.5,0,0,0,207.79,160c.36-4.12,2.09-5.72,6.23-5.95,1.62-.09,3.26,0,4.85-.24,2.77-.42,4.75-2.12,4.89-4.89.25-5.1.24-10.24,0-15.34-.12-2.55-1.54-4-4.59-3.28a19.59,19.59,0,0,0-8.62,4.25,7.34,7.34,0,0,1-8.36,1.27,7.58,7.58,0,0,1-4.59-7.15,79,79,0,0,1,0-9.36c.31-3.4-.68-3.79-3.84-2.92-22.2,6.07-44.77,7.14-67.59,4.63A169.54,169.54,0,0,1,98.38,115.48ZM282.17,289.19c-10.28,5.39-19,4.53-25.22-2.46a95.93,95.93,0,0,1-7.5-9.35c-4.36-6.33-4.92-13.26-.86-19.73,2.39-3.81.51-4.31-2.26-4.84-9.56-1.86-19.18-3.41-28.68-5.54-3.44-.77-5.11.17-7,2.9-7.4,10.67-15,21.2-22.62,31.73-3.81,5.28-9.21,7.66-14.62,5.7-3.17-1.15-4.79-.34-6.46,2a31.68,31.68,0,0,1-3.16,3.7,4.35,4.35,0,0,0-1.2,4q5.16,36.35,10.1,72.71c.28,2.07,1,2.69,3,2.69q32.61-.09,65.23,0c2.29,0,3-.64,3-2.95-.12-10-.05-20-.05-30,0-4.12-.07-8.25,0-12.37.09-3.65,2.17-5.81,5.42-5.87,3.08-.05,5.32,2,5.73,5.26a25,25,0,0,1,.07,3c0,13.24.05,26.49,0,39.74,0,2.35.51,3.28,3.07,3.2,6.12-.19,12.25,0,18.37-.07,5.29-.05,8-2.6,8-7.75q0-31.5-.06-63A40.19,40.19,0,0,0,282.17,289.19ZM213.91,93.55c-3.58,0-7.16.1-10.72,0-3.78-.14-6.24-2.47-6.24-5.64s2.42-5.45,6.22-5.54,7.75-.14,11.62,0c2.33.09,3.06-.75,2.94-3-.17-3,0-6,0-9,0-5.86-1.25-7.42-7-8.81A329.27,329.27,0,0,0,157.54,53c-25.4-1.86-50,2.25-74.38,8.89-3.31.91-4.9,3.24-4.9,6.67,0,3,0,6,0,9,0,5.25-.72,4.76,4.83,4.77q45.56,0,91.1,0c4.25,0,6.65,2,6.77,5.34.12,3.52-2.39,5.73-6.73,5.88-1,0-2,0-3,0q-42.74,0-85.48,0c-1.27,0-2.64-.31-4,.44,3.28,3.49,7.79,6.48,14.47,8.72,33.89,11.34,67.93,11.27,101.94.6C204,101.51,209.52,98.72,213.91,93.55ZM67,78.36c0-4.22-.09-7.57,0-10.91A17.3,17.3,0,0,1,79.36,51.26c20.48-5.8,41.31-9.69,62.67-10,25-.32,49.47,3.87,73.63,9.91,8.25,2.06,13.15,8.76,13.27,17.35,0,3,0,6.08,0,9.4,11.8-6.54,13.86-14.34,7.06-25a68.56,68.56,0,0,0-14.46-15.61C182,4.54,122.06,2.58,80.41,32.78,71.77,39.05,63.72,46,58.48,55.51,54.2,63.32,55.34,69,62.11,74.71,63.42,75.82,64.88,76.77,67,78.36Zm53.16,143.49c.29,6.16-.93,11.56-4.14,16.39-1,1.46.22,2,1.08,2.65q14.53,10.88,29.06,21.76c1.08.81,1.91,1.29,3.25.28,9.85-7.44,19.77-14.81,29.66-22.2.81-.61,1.69-1.21.86-2.42-3.34-4.84-4.32-10.37-4.33-16.4C157,229.19,138.71,229.12,120.18,221.85Zm28.08,150.9c3.37,0,6.75-.16,10.11.05,2.68.17,3.41-.63,3-3.33-3.22-22.34-6.4-44.69-9.4-67.06-.37-2.75-1.27-3.53-3.93-3.43-2.39.09-3.75.27-4.09,3.25-1.08,9.42-2.56,18.78-3.88,28.17-1.84,13.09-3.63,26.19-5.55,39.27-.37,2.52.37,3.26,2.86,3.13C141,372.61,144.64,372.75,148.26,372.75ZM136.74,269.63c-11.27-8.42-22-16.32-32.59-24.47a7.58,7.58,0,0,0-6.9-1.37c-1.73.37-2.12.94-1,2.45q10.4,14.44,20.69,28.94a3,3,0,0,0,4.16,1.15C126.09,274.12,131.15,272,136.74,269.63Zm22.49,0c5.26,2.25,10.08,4.2,14.78,6.39,2.51,1.16,4,.71,5.62-1.58,6.12-8.81,12.46-17.48,18.65-26.26.8-1.13,2.78-2.43,1.79-3.65s-3.43-1.17-5.26-1.13c-.75,0-1.53.78-2.22,1.29-3.11,2.3-6.2,4.64-9.3,7ZM38.58,266.68a6.17,6.17,0,0,0-3.14-5.93c-2-1.09-3.06,1.15-4.29,2.13a49.91,49.91,0,0,0-10.33,11.27c-2.71,4-1.45,6.7,3.48,7.28a6.84,6.84,0,0,0,6.4-2.33c2.25-2.68,4.41-5.42,6.58-8.16A6.16,6.16,0,0,0,38.58,266.68Zm218.79,0a6.34,6.34,0,0,0,1.42,4.42c2.11,2.63,4.12,5.35,6.37,7.84,2.88,3.19,6.9,3.32,10.43.82,1.72-1.21,1.8-2.23.69-3.94a62.67,62.67,0,0,0-12.75-14.1c-2.13-1.76-3.43-1.31-4.81.66A6.75,6.75,0,0,0,257.37,266.69ZM147.18,287.75a11.62,11.62,0,0,1,1.78,0c4.06.87,6.45-1.41,8.6-4.36.84-1.16.94-1.56-.45-2.46-6.19-3.95-12.21-3.85-18.35.06-1.14.73-1.32,1.06-.55,2.19C140.56,286.62,143.36,288.91,147.18,287.75ZM78.26,106.37V110c0,2.25.14,4.51,0,6.74-.15,1.9.72,2.5,2.39,3,6.56,1.94,6.59,2,6.49-4.91,0-1.48.76-3.28-1.22-4.31C83.48,109.28,81.13,107.94,78.26,106.37Zm139.43,0c-2.46,1.37-4.31,2.61-6.33,3.48a3.72,3.72,0,0,0-2.58,4.29,47.7,47.7,0,0,1,0,5.61c0,1.4.26,2,1.94,1.55,6.92-1.78,6.94-1.72,6.94-9Z"/><path class="cls-1" d="M85.83,355.59c-4.62,0-9.24.05-13.86,0-6.2-.07-9.8-3.47-10-9.66-.16-5-.18-10,0-15,.24-5.8,3.8-9.27,9.55-9.34q14.41-.15,28.83,0c5.86.06,9.36,3.5,9.52,9.27.14,5.11.14,10.24,0,15.35-.15,5.78-3.7,9.19-9.45,9.36H85.83Zm.25-22.78h-4.5c-8.78,0-8.67,0-8.47,8.75,0,2.49,1,2.87,3.15,2.82,4.75-.12,9.5,0,14.24,0,8.44,0,8.32,0,8.25-8.53,0-2.6-1-3.14-3.31-3C92.33,332.93,89.2,332.81,86.08,332.81Z"/><path class="cls-1" d="M209.81,355.59c-4.74,0-9.48.06-14.23,0-5.78-.09-9.36-3.53-9.51-9.28-.14-5.24-.15-10.49,0-15.73s3.67-8.86,9.06-8.94q14.79-.19,29.58,0c5.35.07,8.91,3.46,9.19,8.88a160.11,160.11,0,0,1,0,16.1c-.28,5.58-3.94,8.81-9.5,9H209.81Zm.11-11.25h4.5c8.76,0,8.69,0,8.41-8.76-.07-2.11-.71-2.85-2.82-2.8-4.74.11-9.49,0-14.24,0-9,0-8.94,0-8.55,9,.09,1.92.61,2.66,2.59,2.59C203.17,344.25,206.55,344.34,209.92,344.34Z"/></g></g></svg>