<svg xmlns="http://www.w3.org/2000/svg" xmlns:xlink="http://www.w3.org/1999/xlink" width="768" zoomAndPan="magnify" viewBox="0 0 576 576" height="768" preserveAspectRatio="xMidYMid meet" version="1.0"><defs><clipPath id="7aee6fe222"><path d="M 0 85.199219 L 576 85.199219 L 576 490.949219 L 0 490.949219 Z M 0 85.199219 " clip-rule="nonzero"/></clipPath></defs><g clip-path="url(#7aee6fe222)"><path fill="#d92933" d="M 144.058594 85.199219 C 116.472656 85.199219 94.101562 107.5625 94.101562 135.15625 C 94.101562 162.75 116.472656 185.117188 144.058594 185.117188 C 171.652344 185.117188 194.019531 162.75 194.019531 135.15625 C 194.019531 107.5625 171.652344 85.199219 144.058594 85.199219 Z M 432.058594 85.199219 C 404.484375 85.199219 382.140625 107.5625 382.140625 135.15625 C 382.140625 162.75 404.484375 185.117188 432.058594 185.117188 C 459.632812 185.117188 481.988281 162.75 481.988281 135.15625 C 481.988281 107.5625 459.632812 85.199219 432.058594 85.199219 Z M 0.015625 87.015625 L 0.015625 135.875 L 126.941406 262.808594 L 126.941406 413.265625 L 161.480469 413.265625 L 161.480469 262.808594 L 288.109375 136.171875 L 414.652344 262.808594 L 414.652344 413.265625 L 449.171875 413.265625 L 449.171875 262.808594 L 576.011719 135.875 L 576.011719 87.015625 L 431.910156 231.222656 L 288.109375 87.316406 L 144.207031 231.222656 Z M 0.015625 151.195312 L 0.015625 200.054688 L 76.316406 276.367188 L 76.316406 413.265625 L 110.863281 413.265625 L 110.863281 262.058594 L 105.804688 256.996094 Z M 576.011719 151.195312 L 470.289062 256.996094 L 465.238281 262.058594 L 465.238281 413.265625 L 499.757812 413.265625 L 499.757812 276.367188 L 576.011719 200.054688 Z M 288.109375 153.300781 L 184.417969 256.996094 L 179.363281 262.058594 L 179.363281 413.265625 L 213.902344 413.265625 L 213.902344 276.367188 L 288.109375 202.160156 L 362.261719 276.367188 L 362.261719 413.265625 L 396.785156 413.265625 L 396.785156 262.058594 L 391.730469 256.996094 Z M 214.535156 431.445312 C 208.535156 431.445312 203.140625 432.210938 198.347656 433.738281 C 193.554688 435.273438 189.511719 437.378906 186.21875 440.074219 C 182.925781 442.761719 180.398438 445.910156 178.644531 449.527344 C 176.890625 453.136719 176.011719 457.054688 176.011719 461.273438 C 176.011719 465.390625 176.890625 469.230469 178.644531 472.785156 C 180.398438 476.34375 182.925781 479.449219 186.21875 482.082031 C 189.511719 484.71875 193.554688 486.792969 198.347656 488.296875 C 203.140625 489.800781 208.535156 490.546875 214.535156 490.546875 C 220.605469 490.546875 226.023438 489.800781 230.777344 488.296875 C 235.535156 486.792969 239.558594 484.71875 242.851562 482.082031 C 246.144531 479.449219 248.667969 476.34375 250.425781 472.785156 C 252.183594 469.230469 253.0625 465.390625 253.0625 461.273438 C 253.0625 457.054688 252.183594 453.136719 250.425781 449.527344 C 248.667969 445.910156 246.144531 442.761719 242.851562 440.074219 C 239.558594 437.378906 235.535156 435.273438 230.777344 433.738281 C 226.023438 432.210938 220.605469 431.445312 214.535156 431.445312 Z M 0.636719 432.792969 L 0.636719 489.199219 L 17.90625 489.199219 L 17.90625 432.792969 Z M 33.007812 432.792969 L 33.007812 489.199219 L 49.199219 489.199219 L 49.199219 451.433594 L 49.417969 451.433594 L 82.023438 489.199219 L 99.261719 489.199219 L 99.261719 432.792969 L 83.066406 432.792969 L 83.066406 470.636719 L 82.800781 470.636719 L 50.117188 432.792969 Z M 114.316406 432.792969 L 114.316406 489.199219 L 131.589844 489.199219 L 131.589844 465.855469 L 164.390625 465.855469 L 164.390625 456.273438 L 131.589844 456.273438 L 131.589844 443.183594 L 169.433594 443.183594 L 169.433594 432.792969 Z M 264.753906 432.792969 L 264.753906 489.199219 L 280.949219 489.199219 L 280.949219 451.433594 L 281.167969 451.433594 L 313.773438 489.199219 L 331.007812 489.199219 L 331.007812 432.792969 L 314.8125 432.792969 L 314.8125 470.636719 L 314.542969 470.636719 L 281.863281 432.792969 Z M 366.398438 432.792969 L 338.277344 489.199219 L 357.503906 489.199219 L 376.609375 449.539062 L 376.84375 449.539062 L 395.710938 489.199219 L 414.820312 489.199219 L 387.414062 432.792969 Z M 399.21875 432.792969 L 427.65625 489.199219 L 449.445312 489.199219 L 478.617188 432.792969 L 458.675781 432.792969 L 438.859375 472.449219 L 438.609375 472.449219 L 419.046875 432.792969 Z M 485.3125 432.792969 L 485.3125 489.199219 L 502.582031 489.199219 L 502.582031 432.792969 Z M 511.480469 432.792969 L 511.480469 443.183594 L 534.953125 443.183594 L 534.953125 489.199219 L 552.226562 489.199219 L 552.226562 443.183594 L 575.699219 443.183594 L 575.699219 432.792969 Z M 214.535156 441.832031 C 218.40625 441.832031 221.691406 442.375 224.394531 443.457031 C 227.097656 444.535156 229.289062 445.992188 230.96875 447.8125 C 232.648438 449.632812 233.871094 451.707031 234.636719 454.03125 C 235.40625 456.355469 235.789062 458.753906 235.789062 461.234375 C 235.789062 463.613281 235.40625 465.921875 234.636719 468.164062 C 233.871094 470.40625 232.648438 472.421875 230.96875 474.222656 C 229.289062 476.019531 227.097656 477.449219 224.394531 478.535156 C 221.691406 479.617188 218.40625 480.160156 214.535156 480.160156 C 210.664062 480.160156 207.378906 479.617188 204.675781 478.535156 C 201.972656 477.449219 199.78125 476.019531 198.101562 474.222656 C 196.421875 472.421875 195.203125 470.40625 194.4375 468.164062 C 193.667969 465.921875 193.28125 463.613281 193.28125 461.234375 C 193.28125 458.753906 193.667969 456.355469 194.4375 454.03125 C 195.203125 451.707031 196.421875 449.632812 198.101562 447.8125 C 199.78125 445.992188 201.972656 444.535156 204.675781 443.457031 C 207.378906 442.375 210.664062 441.832031 214.535156 441.832031 Z M 214.535156 441.832031 " fill-opacity="1" fill-rule="evenodd"/></g></svg>