<svg xmlns="http://www.w3.org/2000/svg" xmlns:xlink="http://www.w3.org/1999/xlink" width="768" zoomAndPan="magnify" viewBox="0 0 576 576" height="768" preserveAspectRatio="xMidYMid meet" version="1.0"><path fill="#154a8c" d="M 569.324219 288.082031 C 569.324219 292.6875 569.210938 297.289062 568.984375 301.890625 C 568.757812 306.488281 568.417969 311.078125 567.96875 315.660156 C 567.515625 320.242188 566.953125 324.8125 566.277344 329.367188 C 565.601562 333.921875 564.816406 338.457031 563.917969 342.972656 C 563.019531 347.488281 562.011719 351.980469 560.890625 356.445312 C 559.773438 360.910156 558.546875 365.347656 557.207031 369.753906 C 555.871094 374.160156 554.429688 378.53125 552.875 382.867188 C 551.324219 387.203125 549.667969 391.496094 547.90625 395.75 C 546.144531 400.003906 544.28125 404.210938 542.3125 408.375 C 540.34375 412.539062 538.273438 416.648438 536.101562 420.710938 C 533.929688 424.769531 531.664062 428.777344 529.296875 432.726562 C 526.929688 436.675781 524.464844 440.5625 521.90625 444.390625 C 519.351562 448.21875 516.699219 451.984375 513.957031 455.683594 C 511.214844 459.378906 508.382812 463.007812 505.460938 466.566406 C 502.539062 470.128906 499.53125 473.613281 496.441406 477.023438 C 493.347656 480.4375 490.175781 483.769531 486.917969 487.027344 C 483.664062 490.28125 480.328125 493.457031 476.917969 496.546875 C 473.503906 499.640625 470.019531 502.648438 466.460938 505.566406 C 462.902344 508.488281 459.273438 511.320312 455.574219 514.0625 C 451.875 516.804688 448.113281 519.457031 444.285156 522.015625 C 440.457031 524.574219 436.566406 527.035156 432.617188 529.402344 C 428.667969 531.769531 424.664062 534.039062 420.601562 536.210938 C 416.542969 538.378906 412.429688 540.449219 408.269531 542.417969 C 404.105469 544.386719 399.898438 546.253906 395.644531 548.015625 C 391.390625 549.777344 387.09375 551.433594 382.757812 552.984375 C 378.425781 554.535156 374.054688 555.980469 369.648438 557.316406 C 365.242188 558.652344 360.804688 559.878906 356.339844 561 C 351.871094 562.117188 347.378906 563.125 342.863281 564.023438 C 338.347656 564.921875 333.8125 565.710938 329.257812 566.386719 C 324.703125 567.0625 320.136719 567.625 315.554688 568.074219 C 310.972656 568.527344 306.378906 568.867188 301.78125 569.089844 C 297.183594 569.316406 292.582031 569.429688 287.976562 569.429688 C 283.371094 569.429688 278.769531 569.316406 274.171875 569.089844 C 269.574219 568.867188 264.980469 568.527344 260.398438 568.074219 C 255.816406 567.625 251.25 567.0625 246.695312 566.386719 C 242.140625 565.710938 237.605469 564.921875 233.089844 564.023438 C 228.574219 563.125 224.082031 562.117188 219.613281 561 C 215.148438 559.878906 210.710938 558.652344 206.304688 557.316406 C 201.898438 555.980469 197.527344 554.535156 193.195312 552.984375 C 188.859375 551.433594 184.5625 549.777344 180.308594 548.015625 C 176.054688 546.253906 171.847656 544.386719 167.683594 542.417969 C 163.523438 540.449219 159.410156 538.378906 155.351562 536.210938 C 151.289062 534.039062 147.285156 531.769531 143.335938 529.402344 C 139.386719 527.035156 135.496094 524.574219 131.667969 522.015625 C 127.839844 519.457031 124.078125 516.804688 120.378906 514.0625 C 116.679688 511.320312 113.050781 508.488281 109.492188 505.566406 C 105.933594 502.648438 102.445312 499.640625 99.035156 496.546875 C 95.625 493.457031 92.289062 490.28125 89.035156 487.027344 C 85.777344 483.769531 82.605469 480.4375 79.511719 477.023438 C 76.421875 473.613281 73.414062 470.128906 70.492188 466.570312 C 67.570312 463.007812 64.738281 459.378906 61.996094 455.683594 C 59.253906 451.984375 56.601562 448.21875 54.046875 444.390625 C 51.488281 440.5625 49.023438 436.675781 46.65625 432.726562 C 44.289062 428.777344 42.019531 424.769531 39.851562 420.710938 C 37.679688 416.648438 35.609375 412.539062 33.640625 408.375 C 31.671875 404.210938 29.808594 400.003906 28.046875 395.75 C 26.285156 391.496094 24.628906 387.203125 23.074219 382.867188 C 21.523438 378.53125 20.082031 374.160156 18.746094 369.753906 C 17.40625 365.347656 16.179688 360.910156 15.0625 356.445312 C 13.941406 351.980469 12.933594 347.488281 12.035156 342.972656 C 11.136719 338.457031 10.351562 333.921875 9.675781 329.367188 C 9 324.8125 8.4375 320.242188 7.984375 315.660156 C 7.53125 311.078125 7.195312 306.488281 6.96875 301.890625 C 6.742188 297.289062 6.628906 292.6875 6.628906 288.082031 C 6.628906 283.480469 6.742188 278.878906 6.96875 274.277344 C 7.195312 269.679688 7.53125 265.089844 7.984375 260.507812 C 8.4375 255.925781 9 251.355469 9.675781 246.800781 C 10.351562 242.246094 11.136719 237.710938 12.035156 233.195312 C 12.933594 228.679688 13.941406 224.1875 15.0625 219.722656 C 16.179688 215.253906 17.40625 210.820312 18.746094 206.414062 C 20.082031 202.007812 21.523438 197.636719 23.074219 193.300781 C 24.628906 188.964844 26.285156 184.671875 28.046875 180.417969 C 29.808594 176.164062 31.671875 171.953125 33.640625 167.792969 C 35.609375 163.628906 37.679688 159.519531 39.851562 155.457031 C 42.019531 151.398438 44.289062 147.390625 46.65625 143.441406 C 49.023438 139.492188 51.488281 135.605469 54.046875 131.777344 C 56.601562 127.949219 59.253906 124.183594 61.996094 120.484375 C 64.738281 116.789062 67.570312 113.160156 70.492188 109.597656 C 73.414062 106.039062 76.421875 102.554688 79.511719 99.144531 C 82.605469 95.730469 85.777344 92.398438 89.035156 89.140625 C 92.289062 85.886719 95.625 82.710938 99.035156 79.621094 C 102.445312 76.527344 105.933594 73.519531 109.492188 70.601562 C 113.050781 67.679688 116.679688 64.847656 120.378906 62.105469 C 124.078125 59.359375 127.839844 56.710938 131.667969 54.152344 C 135.496094 51.59375 139.386719 49.132812 143.335938 46.765625 C 147.285156 44.398438 151.289062 42.128906 155.351562 39.957031 C 159.410156 37.789062 163.523438 35.71875 167.683594 33.75 C 171.847656 31.78125 176.054688 29.914062 180.308594 28.152344 C 184.5625 26.390625 188.859375 24.734375 193.195312 23.183594 C 197.527344 21.632812 201.898438 20.1875 206.304688 18.851562 C 210.710938 17.515625 215.148438 16.289062 219.613281 15.167969 C 224.082031 14.050781 228.574219 13.042969 233.089844 12.144531 C 237.605469 11.246094 242.140625 10.457031 246.695312 9.78125 C 251.25 9.105469 255.816406 8.542969 260.398438 8.089844 C 264.980469 7.640625 269.574219 7.300781 274.171875 7.074219 C 278.769531 6.851562 283.371094 6.738281 287.976562 6.738281 C 292.582031 6.738281 297.183594 6.851562 301.78125 7.074219 C 306.378906 7.300781 310.972656 7.640625 315.554688 8.089844 C 320.136719 8.542969 324.703125 9.105469 329.257812 9.78125 C 333.8125 10.457031 338.347656 11.246094 342.863281 12.144531 C 347.378906 13.042969 351.871094 14.050781 356.339844 15.167969 C 360.804688 16.289062 365.242188 17.515625 369.648438 18.851562 C 374.054688 20.1875 378.425781 21.632812 382.757812 23.183594 C 387.09375 24.734375 391.390625 26.390625 395.644531 28.152344 C 399.898438 29.914062 404.105469 31.78125 408.269531 33.75 C 412.429688 35.71875 416.542969 37.789062 420.601562 39.957031 C 424.664062 42.128906 428.667969 44.398438 432.617188 46.765625 C 436.566406 49.132812 440.457031 51.59375 444.285156 54.152344 C 448.113281 56.710938 451.875 59.359375 455.574219 62.105469 C 459.273438 64.847656 462.902344 67.679688 466.460938 70.601562 C 470.019531 73.519531 473.503906 76.527344 476.917969 79.621094 C 480.328125 82.710938 483.664062 85.886719 486.917969 89.140625 C 490.175781 92.398438 493.347656 95.730469 496.441406 99.144531 C 499.53125 102.554688 502.539062 106.039062 505.460938 109.597656 C 508.382812 113.160156 511.214844 116.789062 513.957031 120.484375 C 516.699219 124.183594 519.347656 127.949219 521.90625 131.777344 C 524.464844 135.605469 526.929688 139.492188 529.296875 143.441406 C 531.664062 147.390625 533.929688 151.398438 536.101562 155.457031 C 538.273438 159.519531 540.34375 163.628906 542.3125 167.792969 C 544.28125 171.953125 546.144531 176.164062 547.90625 180.417969 C 549.667969 184.671875 551.324219 188.964844 552.875 193.300781 C 554.429688 197.636719 555.871094 202.007812 557.207031 206.414062 C 558.546875 210.820312 559.773438 215.253906 560.890625 219.722656 C 562.011719 224.1875 563.019531 228.679688 563.917969 233.195312 C 564.816406 237.710938 565.601562 242.246094 566.277344 246.800781 C 566.953125 251.355469 567.515625 255.925781 567.96875 260.507812 C 568.417969 265.089844 568.757812 269.679688 568.984375 274.277344 C 569.210938 278.878906 569.324219 283.480469 569.324219 288.082031 Z M 569.324219 288.082031 " fill-opacity="1" fill-rule="nonzero"/><path fill="#ffffff" d="M 287.917969 576.023438 C 210.957031 576.023438 138.671875 546.054688 84.25 491.632812 C 29.824219 437.207031 -0.0234375 364.925781 -0.0234375 288.082031 C -0.0234375 211.242188 29.824219 138.839844 84.25 84.417969 C 138.671875 29.992188 210.957031 0.144531 287.917969 0.144531 C 364.875 0.144531 437.160156 30.113281 491.582031 84.535156 C 546.007812 138.960938 575.976562 211.246094 575.976562 288.203125 C 575.976562 365.164062 546.007812 437.449219 491.582031 491.871094 C 437.160156 546.296875 364.757812 576.023438 287.917969 576.023438 Z M 287.917969 13.328125 C 214.550781 13.328125 145.503906 41.859375 93.597656 93.765625 C 41.691406 145.671875 13.164062 214.601562 13.164062 288.082031 C 13.164062 361.566406 41.691406 430.496094 93.597656 482.402344 C 145.503906 534.308594 214.550781 562.835938 287.917969 562.835938 C 361.28125 562.835938 430.328125 534.308594 482.234375 482.402344 C 534.140625 430.496094 562.671875 361.449219 562.671875 288.082031 C 562.671875 214.71875 534.140625 145.671875 482.234375 93.765625 C 430.207031 41.859375 361.28125 13.328125 287.917969 13.328125 Z M 287.917969 13.328125 " fill-opacity="1" fill-rule="nonzero"/><path fill="#ffffff" d="M 480.617188 288.082031 C 480.617188 291.238281 480.539062 294.386719 480.382812 297.535156 C 480.230469 300.683594 479.996094 303.828125 479.6875 306.964844 C 479.378906 310.101562 478.992188 313.230469 478.53125 316.351562 C 478.066406 319.46875 477.527344 322.574219 476.914062 325.664062 C 476.300781 328.757812 475.609375 331.832031 474.84375 334.890625 C 474.078125 337.949219 473.234375 340.988281 472.320312 344.003906 C 471.40625 347.019531 470.417969 350.011719 469.355469 352.980469 C 468.292969 355.949219 467.160156 358.890625 465.953125 361.804688 C 464.746094 364.714844 463.46875 367.597656 462.121094 370.449219 C 460.773438 373.296875 459.355469 376.113281 457.867188 378.894531 C 456.382812 381.671875 454.828125 384.414062 453.207031 387.121094 C 451.585938 389.824219 449.902344 392.488281 448.148438 395.109375 C 446.398438 397.730469 444.582031 400.304688 442.707031 402.839844 C 440.828125 405.371094 438.886719 407.855469 436.886719 410.292969 C 434.886719 412.730469 432.828125 415.117188 430.710938 417.453125 C 428.59375 419.789062 426.421875 422.070312 424.191406 424.300781 C 421.964844 426.53125 419.679688 428.703125 417.34375 430.820312 C 415.007812 432.9375 412.621094 434.996094 410.183594 436.996094 C 407.75 438.996094 405.261719 440.933594 402.730469 442.8125 C 400.199219 444.691406 397.621094 446.503906 395 448.257812 C 392.378906 450.007812 389.71875 451.695312 387.011719 453.316406 C 384.308594 454.9375 381.566406 456.488281 378.785156 457.976562 C 376.003906 459.460938 373.191406 460.878906 370.339844 462.226562 C 367.492188 463.574219 364.609375 464.851562 361.695312 466.058594 C 358.785156 467.265625 355.84375 468.398438 352.875 469.460938 C 349.90625 470.523438 346.914062 471.511719 343.898438 472.429688 C 340.878906 473.34375 337.84375 474.183594 334.785156 474.949219 C 331.726562 475.714844 328.652344 476.40625 325.558594 477.019531 C 322.464844 477.636719 319.359375 478.175781 316.242188 478.636719 C 313.125 479.101562 309.996094 479.484375 306.859375 479.796875 C 303.722656 480.105469 300.578125 480.335938 297.429688 480.492188 C 294.28125 480.644531 291.128906 480.722656 287.976562 480.722656 C 284.824219 480.722656 281.671875 480.644531 278.523438 480.492188 C 275.375 480.335938 272.230469 480.105469 269.09375 479.796875 C 265.957031 479.484375 262.828125 479.101562 259.710938 478.636719 C 256.59375 478.175781 253.488281 477.636719 250.394531 477.019531 C 247.300781 476.40625 244.226562 475.714844 241.167969 474.949219 C 238.109375 474.183594 235.074219 473.34375 232.054688 472.429688 C 229.039062 471.511719 226.046875 470.523438 223.078125 469.460938 C 220.109375 468.398438 217.167969 467.265625 214.257812 466.058594 C 211.34375 464.851562 208.460938 463.574219 205.613281 462.226562 C 202.761719 460.878906 199.949219 459.460938 197.167969 457.976562 C 194.386719 456.488281 191.644531 454.9375 188.941406 453.316406 C 186.234375 451.695312 183.574219 450.007812 180.953125 448.257812 C 178.332031 446.503906 175.753906 444.691406 173.222656 442.8125 C 170.6875 440.933594 168.203125 438.996094 165.765625 436.996094 C 163.332031 434.996094 160.945312 432.9375 158.609375 430.820312 C 156.273438 428.703125 153.988281 426.53125 151.761719 424.300781 C 149.53125 422.070312 147.359375 419.789062 145.242188 417.453125 C 143.125 415.117188 141.0625 412.730469 139.0625 410.292969 C 137.0625 407.855469 135.125 405.371094 133.246094 402.839844 C 131.371094 400.304688 129.554688 397.730469 127.804688 395.109375 C 126.050781 392.488281 124.363281 389.824219 122.746094 387.121094 C 121.125 384.414062 119.570312 381.671875 118.082031 378.894531 C 116.597656 376.113281 115.179688 373.296875 113.832031 370.449219 C 112.484375 367.597656 111.207031 364.714844 110 361.804688 C 108.792969 358.890625 107.660156 355.949219 106.597656 352.980469 C 105.535156 350.011719 104.546875 347.019531 103.632812 344.003906 C 102.71875 340.988281 101.875 337.949219 101.109375 334.890625 C 100.34375 331.832031 99.652344 328.757812 99.039062 325.664062 C 98.421875 322.574219 97.886719 319.46875 97.421875 316.351562 C 96.960938 313.230469 96.574219 310.101562 96.265625 306.964844 C 95.957031 303.828125 95.722656 300.683594 95.570312 297.535156 C 95.414062 294.386719 95.335938 291.238281 95.335938 288.082031 C 95.335938 284.929688 95.414062 281.78125 95.570312 278.632812 C 95.722656 275.484375 95.957031 272.339844 96.265625 269.203125 C 96.574219 266.0625 96.960938 262.9375 97.421875 259.816406 C 97.886719 256.699219 98.421875 253.59375 99.039062 250.5 C 99.652344 247.410156 100.34375 244.335938 101.109375 241.277344 C 101.875 238.21875 102.71875 235.179688 103.632812 232.164062 C 104.546875 229.148438 105.535156 226.152344 106.597656 223.1875 C 107.660156 220.21875 108.792969 217.277344 110 214.363281 C 111.207031 211.453125 112.484375 208.570312 113.832031 205.71875 C 115.179688 202.871094 116.597656 200.054688 118.082031 197.273438 C 119.570312 194.492188 121.125 191.75 122.746094 189.046875 C 124.363281 186.34375 126.050781 183.679688 127.804688 181.058594 C 129.554688 178.4375 131.371094 175.859375 133.246094 173.328125 C 135.125 170.796875 137.0625 168.3125 139.0625 165.875 C 141.0625 163.4375 143.125 161.050781 145.242188 158.714844 C 147.359375 156.378906 149.53125 154.097656 151.761719 151.867188 C 153.988281 149.636719 156.273438 147.464844 158.609375 145.347656 C 160.945312 143.230469 163.332031 141.171875 165.765625 139.171875 C 168.203125 137.171875 170.6875 135.234375 173.222656 133.355469 C 175.753906 131.476562 178.332031 129.660156 180.953125 127.910156 C 183.574219 126.160156 186.234375 124.472656 188.941406 122.851562 C 191.644531 121.230469 194.386719 119.675781 197.167969 118.191406 C 199.949219 116.707031 202.761719 115.289062 205.613281 113.941406 C 208.460938 112.59375 211.34375 111.316406 214.257812 110.109375 C 217.167969 108.902344 220.109375 107.769531 223.078125 106.707031 C 226.046875 105.644531 229.039062 104.65625 232.054688 103.738281 C 235.074219 102.824219 238.109375 101.984375 241.167969 101.21875 C 244.226562 100.453125 247.300781 99.761719 250.394531 99.144531 C 253.488281 98.53125 256.59375 97.992188 259.710938 97.53125 C 262.828125 97.066406 265.957031 96.679688 269.09375 96.371094 C 272.230469 96.0625 275.375 95.832031 278.523438 95.675781 C 281.671875 95.523438 284.824219 95.445312 287.976562 95.445312 C 291.128906 95.445312 294.28125 95.523438 297.429688 95.675781 C 300.578125 95.832031 303.722656 96.0625 306.859375 96.371094 C 309.996094 96.679688 313.125 97.066406 316.242188 97.53125 C 319.359375 97.992188 322.464844 98.53125 325.558594 99.144531 C 328.652344 99.761719 331.726562 100.453125 334.785156 101.21875 C 337.84375 101.984375 340.878906 102.824219 343.898438 103.738281 C 346.914062 104.65625 349.90625 105.644531 352.875 106.707031 C 355.84375 107.769531 358.785156 108.902344 361.695312 110.109375 C 364.609375 111.316406 367.492188 112.59375 370.339844 113.941406 C 373.191406 115.289062 376.003906 116.707031 378.785156 118.191406 C 381.566406 119.675781 384.308594 121.230469 387.011719 122.851562 C 389.71875 124.472656 392.378906 126.160156 395 127.910156 C 397.621094 129.660156 400.199219 131.476562 402.730469 133.355469 C 405.261719 135.234375 407.75 137.171875 410.183594 139.171875 C 412.621094 141.171875 415.007812 143.230469 417.34375 145.347656 C 419.679688 147.464844 421.964844 149.636719 424.191406 151.867188 C 426.421875 154.097656 428.59375 156.378906 430.710938 158.714844 C 432.828125 161.050781 434.886719 163.4375 436.886719 165.875 C 438.886719 168.3125 440.828125 170.796875 442.707031 173.328125 C 444.582031 175.859375 446.398438 178.4375 448.148438 181.058594 C 449.902344 183.679688 451.585938 186.34375 453.207031 189.046875 C 454.828125 191.75 456.382812 194.492188 457.867188 197.273438 C 459.355469 200.054688 460.773438 202.871094 462.121094 205.71875 C 463.46875 208.570312 464.746094 211.453125 465.953125 214.363281 C 467.160156 217.277344 468.292969 220.21875 469.355469 223.1875 C 470.417969 226.152344 471.40625 229.148438 472.320312 232.164062 C 473.234375 235.179688 474.078125 238.21875 474.84375 241.277344 C 475.609375 244.335938 476.300781 247.410156 476.914062 250.5 C 477.527344 253.59375 478.066406 256.699219 478.53125 259.816406 C 478.992188 262.9375 479.378906 266.0625 479.6875 269.203125 C 479.996094 272.339844 480.230469 275.484375 480.382812 278.632812 C 480.539062 281.78125 480.617188 284.929688 480.617188 288.082031 Z M 480.617188 288.082031 " fill-opacity="1" fill-rule="nonzero"/><path fill="#154a8c" d="M 414.085938 240.375 C 411.6875 234.019531 406.773438 228.386719 400.777344 224.308594 C 383.398438 213.28125 356.90625 212.441406 339.042969 222.511719 C 329.332031 227.546875 322.859375 237.375 320.824219 247.445312 C 317.226562 264.109375 318.183594 283.886719 331.011719 296.355469 C 345.996094 309.421875 367.695312 312.417969 387.113281 307.023438 C 388.074219 306.902344 390.949219 306.066406 392.988281 305.105469 L 393.585938 304.867188 C 399.582031 302.347656 405.335938 298.273438 409.648438 292.757812 C 419.359375 278.253906 420.078125 256.558594 414.085938 240.375 Z M 382.558594 277.773438 C 381.839844 280.890625 379.800781 284.25 376.445312 285.445312 C 371.050781 287.84375 363.859375 287.125 358.941406 284.367188 C 354.746094 281.492188 354.265625 276.574219 353.789062 272.019531 C 353.429688 263.03125 352.710938 253.441406 355.226562 245.167969 C 357.265625 240.015625 362.660156 238.695312 367.695312 238.335938 C 372.847656 238.335938 378.003906 239.175781 381.238281 243.371094 C 383.277344 246.367188 383.15625 250.324219 383.515625 253.917969 C 383.15625 261.230469 383.875 270.101562 382.558594 277.773438 Z M 382.558594 277.773438 " fill-opacity="1" fill-rule="nonzero"/><path fill="#154a8c" d="M 224.324219 285.925781 C 219.886719 285.6875 214.972656 286.046875 210.65625 285.566406 L 210.777344 239.535156 L 211.015625 239.175781 L 224.203125 239.054688 C 224.324219 231.621094 224.441406 223.589844 224.082031 216.757812 L 173.734375 216.636719 L 165.464844 216.757812 C 165.34375 223.710938 165.34375 231.863281 165.464844 238.933594 C 170.019531 239.054688 174.335938 238.933594 178.648438 239.292969 L 178.648438 283.886719 L 178.53125 285.6875 L 165.34375 285.925781 C 165.105469 293.238281 165.105469 300.3125 165.34375 307.625 L 224.203125 307.625 L 224.203125 285.925781 Z M 224.324219 285.925781 " fill-opacity="1" fill-rule="nonzero"/><path fill="#154a8c" d="M 285.9375 286.886719 C 273.351562 290.363281 259.804688 287.722656 250.695312 278.253906 C 249.617188 276.9375 249.015625 275.378906 247.9375 274.058594 L 229.957031 274.179688 C 229.71875 284.847656 229.597656 296.953125 229.957031 307.503906 L 249.976562 307.382812 L 250.214844 301.03125 C 252.492188 302.109375 254.769531 303.429688 257.046875 304.507812 C 270.953125 310.261719 288.816406 311.578125 302.601562 304.507812 C 312.671875 298.992188 317.945312 288.324219 316.507812 276.933594 C 315.066406 265.789062 304.398438 255.71875 293.492188 252.960938 L 261.125 243.609375 L 258.726562 242.410156 C 257.648438 241.453125 256.929688 240.375 257.289062 238.933594 C 259.804688 234.621094 265.679688 235.9375 270.113281 236.058594 C 279.464844 237.375 289.054688 240.492188 294.570312 249.003906 C 300.441406 249.003906 307.277344 249.125 313.628906 248.882812 C 313.867188 238.09375 313.507812 228.746094 313.390625 217.835938 C 307.394531 217.714844 300.082031 217.714844 293.96875 217.957031 C 293.730469 219.515625 294.207031 221.792969 293.609375 223.351562 L 287.496094 220.113281 C 272.75 214 252.253906 213.28125 238.828125 222.871094 C 230.195312 229.105469 227.4375 240.492188 229.714844 250.441406 C 231.394531 259.914062 240.503906 266.863281 249.253906 270.101562 C 261.125 274.296875 273.589844 277.292969 285.578125 281.371094 C 286.777344 281.847656 288.335938 283.046875 288.09375 284.488281 C 288.097656 285.6875 286.898438 286.40625 285.9375 286.886719 Z M 285.9375 286.886719 " fill-opacity="1" fill-rule="nonzero"/><path fill="#154a8c" d="M 196.511719 369.597656 C 196.511719 376.433594 192.675781 380.148438 184.765625 380.148438 C 177.210938 380.148438 173.257812 376.433594 173.257812 369.957031 L 173.257812 368.878906 L 180.570312 368.878906 L 180.570312 370.316406 C 180.570312 373.195312 182.128906 374.273438 184.523438 374.273438 C 187.28125 374.273438 188.839844 373.195312 188.839844 369.238281 L 188.839844 361.808594 L 188.71875 361.808594 C 187.402344 364.085938 185.125 365.402344 181.765625 365.402344 C 176.132812 365.402344 173.257812 362.046875 173.257812 356.054688 L 173.257812 348.621094 C 173.257812 342.148438 177.332031 338.429688 184.882812 338.429688 C 192.4375 338.429688 196.632812 342.148438 196.632812 348.621094 L 196.632812 369.597656 Z M 188.839844 355.695312 L 188.839844 348.378906 C 188.839844 345.503906 187.28125 344.425781 184.882812 344.425781 C 182.488281 344.425781 180.929688 345.503906 180.929688 348.378906 L 180.929688 355.695312 C 180.929688 358.570312 182.488281 359.648438 184.882812 359.648438 C 187.28125 359.769531 188.839844 358.570312 188.839844 355.695312 Z M 188.839844 355.695312 " fill-opacity="1" fill-rule="nonzero"/><path fill="#154a8c" d="M 201.066406 348.742188 C 201.066406 342.265625 205.144531 338.550781 212.816406 338.550781 C 220.367188 338.550781 224.441406 342.265625 224.441406 348.742188 L 224.441406 369.839844 C 224.441406 376.3125 220.367188 380.027344 212.816406 380.027344 C 205.261719 380.027344 201.066406 376.3125 201.066406 369.839844 Z M 208.738281 370.316406 C 208.738281 373.195312 210.296875 374.273438 212.695312 374.273438 C 215.09375 374.273438 216.652344 373.195312 216.652344 370.316406 L 216.652344 348.378906 C 216.652344 345.503906 215.09375 344.425781 212.695312 344.425781 C 210.296875 344.425781 208.738281 345.503906 208.738281 348.378906 Z M 208.738281 370.316406 " fill-opacity="1" fill-rule="nonzero"/><path fill="#154a8c" d="M 228.757812 348.742188 C 228.757812 342.265625 232.835938 338.550781 240.507812 338.550781 C 248.058594 338.550781 252.132812 342.265625 252.132812 348.742188 L 252.132812 369.839844 C 252.132812 376.3125 248.058594 380.027344 240.507812 380.027344 C 232.953125 380.027344 228.757812 376.3125 228.757812 369.839844 Z M 236.429688 370.316406 C 236.429688 373.195312 237.988281 374.273438 240.386719 374.273438 C 242.78125 374.273438 244.339844 373.195312 244.339844 370.316406 L 244.339844 348.378906 C 244.339844 345.503906 242.78125 344.425781 240.386719 344.425781 C 237.988281 344.425781 236.429688 345.503906 236.429688 348.378906 Z M 236.429688 370.316406 " fill-opacity="1" fill-rule="nonzero"/><path fill="#154a8c" d="M 261.84375 344.183594 C 267.835938 344.183594 269.15625 341.789062 270.355469 339.03125 L 275.507812 339.03125 L 275.507812 379.667969 L 267.835938 379.667969 L 267.835938 348.621094 L 261.84375 348.621094 Z M 261.84375 344.183594 " fill-opacity="1" fill-rule="nonzero"/><path fill="#154a8c" d="M 292.171875 351.378906 L 292.171875 357.492188 L 284.738281 357.492188 L 284.738281 351.378906 Z M 292.171875 373.554688 L 292.171875 379.667969 L 284.738281 379.667969 L 284.738281 373.554688 Z M 292.171875 373.554688 " fill-opacity="1" fill-rule="nonzero"/><path fill="#154a8c" d="M 309.074219 344.425781 C 306.675781 344.425781 305.117188 345.503906 305.117188 348.378906 L 305.117188 352.695312 L 297.804688 352.695312 L 297.804688 348.742188 C 297.804688 342.265625 301.761719 338.550781 309.3125 338.550781 C 316.867188 338.550781 320.824219 342.265625 320.824219 348.742188 C 320.824219 354.136719 318.425781 358.449219 311.351562 364.804688 C 306.796875 368.878906 305.597656 370.796875 305.597656 372.957031 C 305.597656 373.195312 305.597656 373.554688 305.71875 373.796875 L 320.222656 373.792969 L 320.222656 379.546875 L 297.925781 379.546875 L 297.925781 374.511719 C 297.925781 369.957031 299.84375 366.601562 305.597656 361.566406 C 311.472656 356.414062 313.152344 353.175781 313.152344 348.859375 C 313.03125 345.382812 311.59375 344.425781 309.074219 344.425781 Z M 309.074219 344.425781 " fill-opacity="1" fill-rule="nonzero"/><path fill="#154a8c" d="M 324.898438 348.742188 C 324.898438 342.265625 328.972656 338.550781 336.644531 338.550781 C 344.199219 338.550781 348.273438 342.265625 348.273438 348.742188 L 348.273438 369.839844 C 348.273438 376.3125 344.199219 380.027344 336.644531 380.027344 C 329.09375 380.027344 324.898438 376.3125 324.898438 369.839844 Z M 332.570312 370.316406 C 332.570312 373.195312 334.128906 374.273438 336.527344 374.273438 C 338.921875 374.273438 340.480469 373.195312 340.480469 370.316406 L 340.480469 348.378906 C 340.480469 345.503906 338.921875 344.425781 336.527344 344.425781 C 334.128906 344.425781 332.570312 345.503906 332.570312 348.378906 Z M 332.570312 370.316406 " fill-opacity="1" fill-rule="nonzero"/><path fill="#154a8c" d="M 357.984375 344.183594 C 363.976562 344.183594 365.296875 341.789062 366.496094 339.03125 L 371.648438 339.03125 L 371.648438 379.667969 L 363.976562 379.667969 L 363.976562 348.621094 L 357.984375 348.621094 Z M 357.984375 344.183594 " fill-opacity="1" fill-rule="nonzero"/><path fill="#154a8c" d="M 387.832031 366.601562 L 387.832031 370.316406 C 387.832031 373.195312 389.390625 374.273438 391.789062 374.273438 C 394.1875 374.273438 395.742188 373.195312 395.742188 370.316406 L 395.742188 361.328125 C 395.742188 358.449219 394.183594 357.371094 391.789062 357.371094 C 389.390625 357.371094 387.832031 358.449219 387.832031 361.328125 L 387.832031 362.527344 L 380.519531 362.527344 L 381.957031 338.910156 L 402.21875 338.910156 L 402.21875 344.664062 L 388.792969 344.664062 L 388.191406 354.375 L 388.3125 354.375 C 389.75 352.457031 391.910156 351.378906 394.90625 351.378906 C 400.539062 351.378906 403.417969 354.734375 403.417969 360.609375 L 403.417969 369.71875 C 403.417969 376.191406 399.460938 379.910156 391.910156 379.910156 C 384.355469 379.910156 380.398438 376.191406 380.398438 369.71875 L 380.398438 366.363281 L 387.832031 366.363281 Z M 387.832031 366.601562 " fill-opacity="1" fill-rule="nonzero"/><path fill="#154a8c" d="M 287.976562 468.375 C 188.480469 468.375 107.5625 387.460938 107.5625 287.964844 C 107.5625 188.46875 188.480469 107.671875 287.976562 107.671875 C 387.472656 107.671875 468.386719 188.585938 468.386719 288.082031 C 468.386719 387.578125 387.351562 468.375 287.976562 468.375 Z M 287.976562 111.269531 C 190.519531 111.269531 111.160156 190.503906 111.160156 288.082031 C 111.160156 385.660156 190.398438 464.898438 287.976562 464.898438 C 385.554688 464.898438 464.792969 385.660156 464.792969 288.082031 C 464.792969 190.503906 385.433594 111.269531 287.976562 111.269531 Z M 287.976562 111.269531 " fill-opacity="1" fill-rule="nonzero"/><path fill="#ffffff" d="M 75.855469 328.746094 C 76.5625 328.503906 77.136719 328.34375 77.59375 328.265625 C 78.050781 328.1875 78.414062 328.164062 78.6875 328.207031 C 78.972656 328.246094 79.167969 328.324219 79.28125 328.429688 C 79.402344 328.546875 79.484375 328.6875 79.535156 328.839844 C 79.757812 329.496094 79.867188 330.40625 79.875 331.585938 C 79.886719 332.761719 79.769531 334.074219 79.523438 335.523438 C 79.285156 336.964844 78.90625 338.492188 78.378906 340.089844 C 77.867188 341.683594 77.171875 343.238281 76.304688 344.753906 C 77.027344 345.519531 77.757812 346.496094 78.511719 347.679688 C 79.25 348.859375 79.890625 350.238281 80.433594 351.820312 C 81.449219 354.796875 81.953125 357.515625 81.949219 359.984375 C 81.953125 362.460938 81.402344 364.710938 80.316406 366.734375 C 79.226562 368.753906 77.578125 370.554688 75.359375 372.136719 C 73.140625 373.714844 70.324219 375.09375 66.929688 376.257812 C 63.832031 377.316406 60.914062 377.871094 58.175781 377.929688 C 55.4375 377.988281 52.941406 377.535156 50.679688 376.5625 C 48.4375 375.597656 46.449219 374.125 44.746094 372.148438 C 43.035156 370.167969 41.660156 367.664062 40.621094 364.628906 C 39.648438 361.777344 39.167969 359.125 39.183594 356.664062 C 39.199219 354.207031 39.746094 351.957031 40.8125 349.902344 C 41.882812 347.859375 43.5 346.035156 45.652344 344.429688 C 47.808594 342.828125 50.539062 341.457031 53.84375 340.324219 C 55.558594 339.738281 57.210938 339.296875 58.792969 339.015625 C 60.371094 338.722656 61.875 338.582031 63.304688 338.578125 C 64.730469 338.574219 66.082031 338.699219 67.367188 338.96875 C 68.640625 339.230469 69.824219 339.636719 70.90625 340.167969 C 71.554688 338.570312 71.992188 337.21875 72.222656 336.078125 C 72.453125 334.941406 72.597656 334.003906 72.65625 333.261719 C 72.710938 332.523438 72.734375 331.941406 72.734375 331.515625 C 72.734375 331.085938 72.792969 330.726562 72.933594 330.445312 C 73.058594 330.152344 73.355469 329.871094 73.828125 329.609375 C 74.289062 329.339844 74.96875 329.050781 75.855469 328.746094 Z M 57.039062 348.355469 C 55.042969 349.035156 53.292969 349.816406 51.757812 350.6875 C 50.230469 351.558594 49.011719 352.574219 48.101562 353.730469 C 47.1875 354.886719 46.628906 356.203125 46.414062 357.683594 C 46.207031 359.160156 46.421875 360.847656 47.066406 362.730469 C 47.71875 364.636719 48.617188 366.109375 49.765625 367.136719 C 50.910156 368.171875 52.222656 368.886719 53.691406 369.261719 C 55.160156 369.636719 56.75 369.714844 58.464844 369.488281 C 60.1875 369.257812 61.925781 368.84375 63.703125 368.238281 C 65.808594 367.519531 67.648438 366.707031 69.214844 365.824219 C 70.785156 364.9375 72.023438 363.917969 72.957031 362.765625 C 73.882812 361.617188 74.4375 360.3125 74.632812 358.835938 C 74.816406 357.367188 74.589844 355.675781 73.9375 353.773438 C 73.285156 351.867188 72.386719 350.394531 71.238281 349.367188 C 70.09375 348.328125 68.769531 347.621094 67.28125 347.25 C 65.792969 346.882812 64.183594 346.8125 62.429688 347.050781 C 60.683594 347.289062 58.886719 347.722656 57.039062 348.355469 Z M 53.453125 295.328125 C 55.902344 294.996094 58.148438 295.058594 60.179688 295.523438 C 62.21875 295.980469 64 296.8125 65.53125 298.035156 C 67.0625 299.257812 68.320312 300.851562 69.296875 302.816406 C 70.285156 304.789062 70.953125 307.105469 71.316406 309.789062 C 71.660156 312.300781 71.648438 314.601562 71.296875 316.683594 C 70.9375 318.773438 70.214844 320.59375 69.125 322.148438 C 68.035156 323.707031 66.585938 324.980469 64.773438 325.96875 C 62.960938 326.953125 60.78125 327.625 58.226562 327.972656 L 33.878906 331.277344 C 33.675781 331.304688 33.476562 331.265625 33.292969 331.164062 C 33.117188 331.066406 32.949219 330.867188 32.800781 330.5625 C 32.652344 330.261719 32.523438 329.847656 32.386719 329.339844 C 32.257812 328.839844 32.132812 328.179688 32.027344 327.378906 C 31.921875 326.605469 31.863281 325.949219 31.859375 325.433594 C 31.851562 324.90625 31.871094 324.484375 31.933594 324.164062 C 31.996094 323.84375 32.105469 323.601562 32.246094 323.445312 C 32.394531 323.285156 32.578125 323.195312 32.777344 323.167969 L 56.429688 319.957031 C 58.023438 319.742188 59.367188 319.355469 60.488281 318.804688 C 61.597656 318.257812 62.492188 317.566406 63.152344 316.722656 C 63.8125 315.890625 64.273438 314.9375 64.515625 313.859375 C 64.757812 312.785156 64.792969 311.621094 64.621094 310.363281 C 64.449219 309.085938 64.09375 307.960938 63.566406 307.011719 C 63.035156 306.050781 62.351562 305.273438 61.503906 304.667969 C 60.648438 304.074219 59.648438 303.652344 58.496094 303.417969 C 57.335938 303.191406 56.054688 303.167969 54.648438 303.359375 L 30.535156 306.632812 C 30.332031 306.660156 30.132812 306.621094 29.949219 306.519531 C 29.773438 306.425781 29.605469 306.222656 29.460938 305.929688 C 29.3125 305.636719 29.179688 305.226562 29.046875 304.707031 C 28.910156 304.1875 28.792969 303.535156 28.683594 302.753906 C 28.578125 301.972656 28.523438 301.324219 28.515625 300.808594 C 28.511719 300.292969 28.53125 299.871094 28.59375 299.550781 C 28.660156 299.230469 28.765625 298.992188 28.90625 298.851562 C 29.058594 298.703125 29.242188 298.613281 29.441406 298.585938 Z M 67.707031 252.863281 C 68.46875 252.671875 69.074219 252.558594 69.515625 252.527344 C 69.957031 252.496094 70.277344 252.605469 70.484375 252.847656 C 70.679688 253.097656 70.789062 253.511719 70.796875 254.097656 C 70.808594 254.675781 70.769531 255.484375 70.691406 256.496094 C 70.613281 257.558594 70.539062 258.386719 70.464844 258.96875 C 70.386719 259.558594 70.289062 260 70.171875 260.3125 C 70.050781 260.613281 69.90625 260.816406 69.726562 260.933594 C 69.558594 261.046875 69.328125 261.136719 69.058594 261.191406 L 60.761719 263.226562 L 59.617188 278.421875 L 67.300781 281.554688 C 67.59375 281.660156 67.828125 281.785156 68.011719 281.9375 C 68.203125 282.082031 68.335938 282.316406 68.429688 282.621094 C 68.523438 282.929688 68.566406 283.359375 68.566406 283.914062 C 68.566406 284.46875 68.535156 285.195312 68.46875 286.085938 C 68.394531 287.042969 68.308594 287.785156 68.203125 288.320312 C 68.097656 288.859375 67.921875 289.21875 67.671875 289.402344 C 67.414062 289.597656 67.066406 289.648438 66.636719 289.550781 C 66.207031 289.453125 65.644531 289.25 64.929688 288.953125 L 30.105469 273.855469 C 29.765625 273.710938 29.488281 273.539062 29.289062 273.355469 C 29.078125 273.179688 28.9375 272.902344 28.847656 272.53125 C 28.761719 272.148438 28.722656 271.644531 28.742188 270.992188 C 28.757812 270.355469 28.808594 269.503906 28.890625 268.441406 C 28.980469 267.21875 29.066406 266.242188 29.152344 265.523438 C 29.238281 264.792969 29.355469 264.234375 29.503906 263.839844 C 29.648438 263.445312 29.839844 263.167969 30.078125 263.003906 C 30.324219 262.855469 30.644531 262.71875 31.046875 262.628906 Z M 36.734375 269.125 L 36.734375 269.160156 L 53.449219 276.058594 L 54.300781 264.75 Z M 73.050781 225.09375 C 73.65625 225.222656 74.171875 225.351562 74.578125 225.492188 C 74.984375 225.632812 75.3125 225.789062 75.5625 225.9375 C 75.824219 226.101562 75.996094 226.269531 76.078125 226.449219 C 76.167969 226.632812 76.195312 226.824219 76.152344 227.019531 L 72.347656 245.132812 C 72.210938 245.800781 71.894531 246.324219 71.398438 246.699219 C 70.90625 247.074219 70.214844 247.167969 69.316406 246.980469 L 33.402344 239.4375 C 33.203125 239.394531 33.027344 239.292969 32.890625 239.125 C 32.761719 238.957031 32.671875 238.707031 32.632812 238.382812 C 32.589844 238.058594 32.605469 237.628906 32.652344 237.09375 C 32.699219 236.558594 32.804688 235.90625 32.964844 235.132812 C 33.132812 234.339844 33.300781 233.691406 33.472656 233.191406 C 33.640625 232.703125 33.800781 232.304688 33.96875 232.023438 C 34.136719 231.742188 34.316406 231.550781 34.503906 231.449219 C 34.699219 231.347656 34.898438 231.324219 35.097656 231.367188 L 66.914062 238.046875 L 69.519531 225.628906 C 69.5625 225.429688 69.652344 225.253906 69.800781 225.132812 C 69.945312 225 70.148438 224.910156 70.433594 224.859375 C 70.703125 224.808594 71.054688 224.804688 71.492188 224.84375 C 71.921875 224.878906 72.4375 224.964844 73.050781 225.09375 Z M 79.414062 212.984375 C 79.601562 213.046875 79.765625 213.171875 79.882812 213.355469 C 79.988281 213.539062 80.050781 213.792969 80.050781 214.121094 C 80.042969 214.445312 79.988281 214.875 79.886719 215.378906 C 79.78125 215.894531 79.597656 216.542969 79.339844 217.308594 C 79.089844 218.058594 78.847656 218.671875 78.617188 219.15625 C 78.386719 219.644531 78.167969 220.019531 77.980469 220.28125 C 77.78125 220.539062 77.578125 220.707031 77.382812 220.789062 C 77.175781 220.867188 76.972656 220.863281 76.78125 220.800781 L 40.605469 208.632812 C 40.414062 208.566406 40.253906 208.445312 40.136719 208.261719 C 40.027344 208.078125 39.96875 207.820312 39.972656 207.476562 C 39.972656 207.136719 40.035156 206.71875 40.140625 206.203125 C 40.246094 205.691406 40.425781 205.054688 40.679688 204.304688 C 40.9375 203.539062 41.179688 202.914062 41.410156 202.4375 C 41.632812 201.972656 41.839844 201.59375 42.039062 201.335938 C 42.238281 201.074219 42.441406 200.90625 42.636719 200.828125 C 42.839844 200.75 43.042969 200.75 43.234375 200.816406 Z M 59.882812 165.667969 C 60.441406 165.910156 60.902344 166.128906 61.28125 166.351562 C 61.652344 166.570312 61.9375 166.773438 62.128906 166.972656 C 62.332031 167.175781 62.457031 167.367188 62.5 167.5625 C 62.558594 167.75 62.546875 167.941406 62.476562 168.109375 L 58.476562 177.382812 L 88.390625 190.277344 C 88.578125 190.355469 88.726562 190.492188 88.828125 190.6875 C 88.921875 190.878906 88.960938 191.136719 88.9375 191.464844 C 88.902344 191.785156 88.8125 192.210938 88.660156 192.726562 C 88.507812 193.238281 88.273438 193.859375 87.960938 194.582031 C 87.652344 195.304688 87.359375 195.902344 87.089844 196.363281 C 86.820312 196.828125 86.574219 197.1875 86.363281 197.433594 C 86.144531 197.675781 85.925781 197.824219 85.726562 197.886719 C 85.515625 197.949219 85.3125 197.929688 85.125 197.851562 L 55.214844 184.957031 L 51.214844 194.234375 C 51.132812 194.421875 51.003906 194.5625 50.828125 194.648438 C 50.664062 194.730469 50.4375 194.769531 50.152344 194.761719 C 49.878906 194.75 49.53125 194.691406 49.121094 194.574219 C 48.695312 194.449219 48.21875 194.265625 47.660156 194.027344 C 47.09375 193.78125 46.613281 193.550781 46.234375 193.328125 C 45.851562 193.105469 45.5625 192.890625 45.367188 192.699219 C 45.164062 192.496094 45.046875 192.308594 44.996094 192.132812 C 44.945312 191.949219 44.96875 191.761719 45.050781 191.578125 L 56.3125 165.449219 C 56.382812 165.285156 56.5 165.148438 56.671875 165.046875 C 56.839844 164.949219 57.058594 164.902344 57.34375 164.910156 C 57.621094 164.914062 57.972656 164.984375 58.394531 165.109375 C 58.820312 165.230469 59.316406 165.421875 59.882812 165.667969 Z M 92.175781 154.160156 L 104.167969 161.789062 C 104.335938 161.898438 104.464844 162.054688 104.535156 162.265625 C 104.59375 162.46875 104.589844 162.730469 104.515625 163.046875 C 104.429688 163.359375 104.273438 163.765625 104.042969 164.25 C 103.808594 164.734375 103.480469 165.308594 103.058594 165.972656 C 102.625 166.65625 102.234375 167.207031 101.902344 167.613281 C 101.574219 168.007812 101.273438 168.324219 101.019531 168.539062 C 100.753906 168.761719 100.515625 168.878906 100.316406 168.890625 C 100.105469 168.90625 99.910156 168.855469 99.738281 168.75 L 87.746094 161.117188 L 63.234375 158.628906 C 62.375 158.550781 61.726562 158.441406 61.304688 158.308594 C 60.882812 158.179688 60.648438 157.953125 60.589844 157.628906 C 60.535156 157.316406 60.660156 156.863281 60.957031 156.296875 C 61.253906 155.726562 61.71875 154.960938 62.332031 154 C 62.84375 153.191406 63.269531 152.5625 63.613281 152.101562 C 63.957031 151.636719 64.261719 151.300781 64.539062 151.085938 C 64.8125 150.867188 65.070312 150.742188 65.308594 150.703125 C 65.550781 150.683594 65.832031 150.683594 66.160156 150.714844 L 76.964844 152.234375 C 78.007812 152.382812 79.097656 152.558594 80.21875 152.765625 C 81.351562 152.96875 82.515625 153.203125 83.742188 153.453125 L 83.777344 153.402344 C 83.035156 152.460938 82.335938 151.535156 81.660156 150.613281 C 80.984375 149.691406 80.355469 148.8125 79.761719 147.964844 L 73.820312 138.917969 C 73.589844 138.644531 73.433594 138.394531 73.359375 138.15625 C 73.269531 137.921875 73.257812 137.640625 73.324219 137.300781 C 73.390625 136.976562 73.546875 136.570312 73.800781 136.089844 C 74.050781 135.617188 74.421875 134.996094 74.902344 134.238281 C 75.539062 133.242188 76.054688 132.472656 76.449219 131.953125 C 76.847656 131.421875 77.207031 131.117188 77.511719 131.035156 C 77.832031 130.949219 78.140625 131.082031 78.4375 131.425781 C 78.742188 131.757812 79.101562 132.289062 79.539062 133.007812 Z M 156.527344 103.359375 C 156.667969 103.503906 156.765625 103.675781 156.800781 103.878906 C 156.828125 104.078125 156.773438 104.324219 156.632812 104.609375 C 156.484375 104.886719 156.257812 105.230469 155.941406 105.625 C 155.628906 106.019531 155.191406 106.488281 154.640625 107.023438 C 154.101562 107.554688 153.628906 107.96875 153.226562 108.273438 C 152.820312 108.578125 152.480469 108.789062 152.199219 108.929688 C 151.917969 109.054688 151.667969 109.105469 151.472656 109.070312 C 151.261719 109.039062 151.082031 108.945312 150.941406 108.800781 L 127.988281 85.242188 L 127.941406 85.285156 L 142.515625 116.964844 C 142.640625 117.214844 142.707031 117.464844 142.695312 117.730469 C 142.683594 117.992188 142.605469 118.261719 142.445312 118.570312 C 142.28125 118.859375 142.035156 119.203125 141.707031 119.570312 C 141.371094 119.941406 140.945312 120.375 140.441406 120.863281 C 139.929688 121.363281 139.488281 121.761719 139.089844 122.074219 C 138.695312 122.386719 138.335938 122.617188 138.027344 122.753906 C 137.714844 122.894531 137.4375 122.972656 137.1875 122.992188 C 136.9375 122.996094 136.707031 122.941406 136.503906 122.824219 L 105.503906 107.148438 L 105.457031 107.195312 L 128.414062 130.753906 C 128.554688 130.898438 128.652344 131.074219 128.6875 131.277344 C 128.714844 131.472656 128.65625 131.722656 128.511719 132.011719 C 128.347656 132.304688 128.117188 132.648438 127.8125 133.035156 C 127.503906 133.425781 127.078125 133.886719 126.527344 134.421875 C 125.984375 134.949219 125.515625 135.363281 125.109375 135.667969 C 124.707031 135.972656 124.355469 136.195312 124.078125 136.332031 C 123.789062 136.464844 123.539062 136.515625 123.34375 136.480469 C 123.140625 136.441406 122.96875 136.339844 122.828125 136.195312 L 97.699219 110.410156 C 96.957031 109.644531 96.589844 108.871094 96.601562 108.074219 C 96.609375 107.273438 96.953125 106.558594 97.628906 105.894531 L 101.476562 102.148438 C 102.164062 101.476562 102.8125 100.949219 103.410156 100.589844 C 104.019531 100.21875 104.625 99.988281 105.234375 99.898438 C 105.839844 99.816406 106.480469 99.859375 107.132812 100.058594 C 107.785156 100.253906 108.511719 100.574219 109.296875 101.027344 L 132.332031 112.191406 L 132.421875 112.101562 L 122.117188 88.609375 C 121.699219 87.796875 121.398438 87.0625 121.203125 86.40625 C 121.023438 85.746094 120.949219 85.136719 120.996094 84.570312 C 121.039062 84.007812 121.21875 83.457031 121.519531 82.941406 C 121.828125 82.417969 122.265625 81.890625 122.816406 81.355469 L 126.785156 77.488281 C 127.1875 77.09375 127.582031 76.8125 127.976562 76.636719 C 128.363281 76.453125 128.757812 76.367188 129.140625 76.394531 C 129.523438 76.40625 129.898438 76.519531 130.28125 76.710938 C 130.664062 76.90625 131.035156 77.195312 131.402344 77.570312 Z M 192.800781 81.066406 C 193.382812 81.59375 193.816406 82.035156 194.085938 82.382812 C 194.359375 82.730469 194.445312 83.058594 194.363281 83.367188 C 194.265625 83.667969 193.980469 83.988281 193.496094 84.320312 C 193.023438 84.652344 192.328125 85.070312 191.449219 85.570312 C 190.523438 86.097656 189.796875 86.5 189.269531 86.761719 C 188.734375 87.027344 188.316406 87.191406 187.988281 87.265625 C 187.671875 87.335938 187.425781 87.332031 187.230469 87.246094 C 187.039062 87.167969 186.835938 87.027344 186.640625 86.832031 L 180.324219 81.082031 L 167.074219 88.605469 L 168.757812 96.730469 C 168.832031 97.03125 168.859375 97.296875 168.832031 97.535156 C 168.824219 97.773438 168.703125 98.011719 168.5 98.261719 C 168.296875 98.511719 167.964844 98.785156 167.503906 99.097656 C 167.042969 99.40625 166.421875 99.785156 165.644531 100.226562 C 164.8125 100.699219 164.148438 101.039062 163.644531 101.253906 C 163.140625 101.464844 162.742188 101.519531 162.449219 101.417969 C 162.144531 101.308594 161.910156 101.050781 161.75 100.636719 C 161.589844 100.226562 161.445312 99.648438 161.292969 98.886719 L 154.410156 61.5625 C 154.335938 61.199219 154.324219 60.875 154.367188 60.605469 C 154.394531 60.332031 154.546875 60.0625 154.804688 59.78125 C 155.074219 59.492188 155.472656 59.183594 156.019531 58.832031 C 156.5625 58.488281 157.296875 58.058594 158.222656 57.53125 C 159.289062 56.929688 160.144531 56.453125 160.792969 56.125 C 161.445312 55.789062 161.976562 55.574219 162.386719 55.476562 C 162.796875 55.378906 163.128906 55.382812 163.398438 55.488281 C 163.660156 55.609375 163.953125 55.796875 164.25 56.082031 Z M 162.027344 64.429688 L 162 64.441406 L 165.597656 82.167969 L 175.457031 76.566406 Z M 230.046875 67.640625 C 230.195312 68.097656 230.246094 68.53125 230.214844 68.945312 C 230.167969 69.351562 230.050781 69.714844 229.855469 70.046875 C 229.667969 70.367188 229.410156 70.640625 229.082031 70.871094 C 228.746094 71.105469 228.394531 71.273438 228.019531 71.398438 L 224.6875 72.484375 C 223.988281 72.710938 223.367188 72.835938 222.820312 72.867188 C 222.277344 72.890625 221.726562 72.789062 221.183594 72.5625 C 220.628906 72.339844 220.0625 71.976562 219.460938 71.476562 C 218.863281 70.988281 218.15625 70.320312 217.335938 69.492188 L 201.945312 54.636719 C 201.035156 53.746094 200.101562 52.773438 199.121094 51.726562 C 198.140625 50.679688 197.242188 49.636719 196.40625 48.621094 L 196.347656 48.640625 C 196.894531 50.042969 197.417969 51.441406 197.917969 52.847656 C 198.417969 54.242188 198.917969 55.703125 199.40625 57.203125 L 205.964844 77.3125 C 206.027344 77.503906 206.035156 77.703125 205.976562 77.902344 C 205.917969 78.089844 205.765625 78.285156 205.539062 78.480469 C 205.3125 78.679688 204.976562 78.878906 204.539062 79.089844 C 204.101562 79.296875 203.523438 79.519531 202.816406 79.75 C 202.117188 79.980469 201.53125 80.136719 201.054688 80.226562 C 200.578125 80.3125 200.195312 80.347656 199.90625 80.320312 C 199.609375 80.304688 199.382812 80.21875 199.242188 80.097656 C 199.085938 79.96875 198.976562 79.804688 198.914062 79.609375 L 187.65625 45.085938 C 187.351562 44.15625 187.398438 43.367188 187.792969 42.722656 C 188.175781 42.082031 188.769531 41.628906 189.570312 41.371094 L 193.753906 40.003906 C 194.503906 39.761719 195.160156 39.613281 195.71875 39.574219 C 196.28125 39.539062 196.804688 39.601562 197.304688 39.765625 C 197.808594 39.925781 198.328125 40.214844 198.855469 40.628906 C 199.378906 41.027344 199.957031 41.566406 200.582031 42.214844 L 212.632812 53.832031 C 213.34375 54.539062 214.042969 55.242188 214.738281 55.925781 C 215.429688 56.605469 216.113281 57.292969 216.765625 57.984375 C 217.429688 58.679688 218.078125 59.363281 218.710938 60.03125 C 219.355469 60.707031 219.980469 61.375 220.589844 62.050781 L 220.621094 62.042969 C 220.109375 60.671875 219.585938 59.242188 219.066406 57.75 C 218.542969 56.253906 218.0625 54.816406 217.617188 53.449219 L 211.738281 35.417969 C 211.675781 35.226562 211.675781 35.023438 211.742188 34.820312 C 211.804688 34.632812 211.960938 34.425781 212.195312 34.214844 C 212.441406 34 212.777344 33.800781 213.21875 33.601562 C 213.65625 33.402344 214.238281 33.191406 214.945312 32.957031 C 215.625 32.738281 216.199219 32.574219 216.671875 32.472656 C 217.144531 32.375 217.515625 32.34375 217.808594 32.382812 C 218.089844 32.425781 218.320312 32.507812 218.460938 32.628906 C 218.613281 32.757812 218.722656 32.914062 218.789062 33.117188 Z M 262.554688 61.113281 C 262.652344 61.714844 262.714844 62.210938 262.730469 62.628906 C 262.746094 63.039062 262.726562 63.375 262.664062 63.636719 C 262.597656 63.90625 262.503906 64.105469 262.363281 64.246094 C 262.238281 64.386719 262.066406 64.46875 261.886719 64.5 L 241.898438 67.84375 C 241.226562 67.953125 240.625 67.851562 240.097656 67.527344 C 239.566406 67.207031 239.226562 66.59375 239.074219 65.6875 L 233.265625 30.945312 C 233.117188 30.039062 233.238281 29.351562 233.632812 28.875 C 234.027344 28.398438 234.5625 28.101562 235.234375 27.988281 L 255.128906 24.664062 C 255.308594 24.632812 255.484375 24.65625 255.652344 24.738281 C 255.804688 24.820312 255.960938 24.976562 256.109375 25.210938 C 256.246094 25.460938 256.386719 25.769531 256.503906 26.160156 C 256.625 26.5625 256.730469 27.0625 256.835938 27.683594 C 256.929688 28.261719 256.992188 28.75 257.007812 29.167969 C 257.019531 29.574219 257.003906 29.914062 256.9375 30.171875 C 256.875 30.441406 256.777344 30.644531 256.660156 30.78125 C 256.535156 30.921875 256.375 31.003906 256.195312 31.03125 L 241.976562 33.410156 L 243.597656 43.121094 L 255.582031 41.117188 C 255.769531 41.085938 255.945312 41.109375 256.113281 41.199219 C 256.289062 41.289062 256.445312 41.4375 256.589844 41.660156 C 256.734375 41.875 256.859375 42.179688 256.980469 42.578125 C 257.101562 42.96875 257.203125 43.449219 257.296875 44.015625 C 257.398438 44.617188 257.457031 45.113281 257.46875 45.511719 C 257.484375 45.910156 257.460938 46.238281 257.394531 46.484375 C 257.332031 46.746094 257.234375 46.933594 257.09375 47.054688 C 256.960938 47.183594 256.804688 47.265625 256.613281 47.296875 L 244.632812 49.300781 L 246.507812 60.523438 L 260.824219 58.132812 C 261.011719 58.097656 261.191406 58.125 261.355469 58.214844 C 261.535156 58.304688 261.6875 58.460938 261.835938 58.695312 C 261.980469 58.921875 262.109375 59.234375 262.230469 59.625 C 262.351562 60.023438 262.453125 60.515625 262.554688 61.113281 Z M 301.277344 28.851562 C 301.285156 29.449219 301.273438 29.96875 301.226562 30.40625 C 301.179688 30.84375 301.109375 31.199219 301.019531 31.453125 C 300.925781 31.722656 300.824219 31.90625 300.6875 32.003906 C 300.550781 32.113281 300.390625 32.167969 300.210938 32.171875 C 299.933594 32.175781 299.492188 31.992188 298.890625 31.628906 C 298.277344 31.265625 297.472656 30.863281 296.464844 30.441406 C 295.453125 30.019531 294.265625 29.625 292.875 29.273438 C 291.484375 28.921875 289.871094 28.753906 288.039062 28.785156 C 286.089844 28.816406 284.324219 29.183594 282.757812 29.882812 C 281.183594 30.589844 279.84375 31.570312 278.746094 32.824219 C 277.648438 34.085938 276.808594 35.582031 276.230469 37.339844 C 275.648438 39.085938 275.382812 41.007812 275.414062 43.117188 C 275.453125 45.429688 275.792969 47.460938 276.429688 49.21875 C 277.074219 50.964844 277.960938 52.421875 279.078125 53.597656 C 280.203125 54.765625 281.550781 55.636719 283.105469 56.21875 C 284.671875 56.800781 286.390625 57.074219 288.253906 57.042969 C 289.171875 57.027344 290.074219 56.90625 290.96875 56.691406 C 291.871094 56.464844 292.695312 56.128906 293.457031 55.703125 L 293.304688 46.285156 L 285.667969 46.40625 C 285.292969 46.414062 285.003906 46.183594 284.78125 45.71875 C 284.570312 45.253906 284.453125 44.464844 284.433594 43.335938 C 284.425781 42.761719 284.4375 42.269531 284.484375 41.875 C 284.53125 41.480469 284.613281 41.160156 284.703125 40.921875 C 284.808594 40.675781 284.933594 40.503906 285.070312 40.382812 C 285.214844 40.265625 285.386719 40.207031 285.566406 40.207031 L 299.203125 39.988281 C 299.535156 39.984375 299.835938 40.03125 300.09375 40.144531 C 300.359375 40.257812 300.585938 40.425781 300.792969 40.65625 C 300.988281 40.875 301.152344 41.152344 301.253906 41.46875 C 301.363281 41.796875 301.425781 42.167969 301.429688 42.585938 L 301.6875 58.695312 C 301.699219 59.324219 301.601562 59.867188 301.382812 60.339844 C 301.179688 60.8125 300.738281 61.191406 300.058594 61.46875 C 299.390625 61.757812 298.554688 62.046875 297.558594 62.363281 C 296.5625 62.664062 295.53125 62.9375 294.460938 63.15625 C 293.398438 63.386719 292.3125 63.566406 291.21875 63.679688 C 290.132812 63.800781 289.035156 63.871094 287.925781 63.890625 C 284.699219 63.941406 281.804688 63.519531 279.234375 62.632812 C 276.671875 61.746094 274.488281 60.441406 272.691406 58.710938 C 270.894531 56.980469 269.507812 54.859375 268.527344 52.339844 C 267.550781 49.820312 267.035156 46.960938 266.984375 43.753906 C 266.933594 40.441406 267.386719 37.460938 268.34375 34.8125 C 269.292969 32.152344 270.675781 29.894531 272.476562 28.019531 C 274.28125 26.148438 276.464844 24.707031 279.046875 23.683594 C 281.621094 22.664062 284.5 22.128906 287.675781 22.078125 C 289.433594 22.050781 291.023438 22.140625 292.464844 22.363281 C 293.898438 22.585938 295.160156 22.851562 296.238281 23.1875 C 297.3125 23.511719 298.210938 23.871094 298.921875 24.253906 C 299.640625 24.644531 300.136719 24.980469 300.417969 25.273438 C 300.710938 25.554688 300.921875 25.96875 301.046875 26.5 C 301.183594 27.019531 301.257812 27.804688 301.273438 28.851562 Z M 334.28125 64.671875 C 334.179688 65.273438 334.074219 65.761719 333.953125 66.164062 C 333.832031 66.554688 333.703125 66.867188 333.554688 67.089844 C 333.40625 67.324219 333.25 67.480469 333.074219 67.570312 C 332.90625 67.660156 332.71875 67.683594 332.542969 67.652344 L 312.5625 64.261719 C 311.886719 64.148438 311.355469 63.851562 310.960938 63.375 C 310.566406 62.894531 310.445312 62.207031 310.597656 61.300781 L 316.496094 26.570312 C 316.648438 25.667969 316.988281 25.054688 317.519531 24.734375 C 318.050781 24.414062 318.652344 24.3125 319.324219 24.425781 L 339.210938 27.800781 C 339.390625 27.832031 339.546875 27.914062 339.675781 28.042969 C 339.796875 28.171875 339.890625 28.371094 339.953125 28.640625 C 340.003906 28.917969 340.03125 29.257812 340.015625 29.667969 C 340 30.085938 339.9375 30.59375 339.832031 31.214844 C 339.734375 31.792969 339.628906 32.273438 339.507812 32.671875 C 339.386719 33.0625 339.257812 33.375 339.113281 33.597656 C 338.964844 33.832031 338.808594 33.992188 338.652344 34.082031 C 338.484375 34.171875 338.308594 34.199219 338.128906 34.167969 L 323.914062 31.753906 L 322.269531 41.460938 L 334.242188 43.496094 C 334.433594 43.527344 334.59375 43.609375 334.71875 43.746094 C 334.859375 43.890625 334.957031 44.078125 335.019531 44.339844 C 335.085938 44.589844 335.105469 44.914062 335.085938 45.335938 C 335.074219 45.742188 335.011719 46.230469 334.914062 46.796875 C 334.8125 47.394531 334.707031 47.886719 334.589844 48.265625 C 334.472656 48.644531 334.34375 48.949219 334.199219 49.160156 C 334.054688 49.386719 333.898438 49.53125 333.726562 49.601562 C 333.5625 49.679688 333.382812 49.703125 333.195312 49.671875 L 321.21875 47.636719 L 319.3125 58.859375 L 333.621094 61.289062 C 333.8125 61.320312 333.972656 61.402344 334.097656 61.539062 C 334.238281 61.683594 334.332031 61.882812 334.394531 62.152344 C 334.457031 62.414062 334.476562 62.75 334.460938 63.160156 C 334.445312 63.578125 334.382812 64.074219 334.28125 64.671875 Z M 385.546875 84.199219 C 385.472656 84.386719 385.355469 84.546875 385.183594 84.664062 C 385.015625 84.769531 384.765625 84.820312 384.449219 84.808594 C 384.136719 84.789062 383.730469 84.722656 383.238281 84.597656 C 382.75 84.472656 382.144531 84.269531 381.429688 83.988281 C 380.726562 83.710938 380.152344 83.453125 379.707031 83.210938 C 379.265625 82.964844 378.929688 82.742188 378.6875 82.542969 C 378.460938 82.339844 378.3125 82.132812 378.261719 81.941406 C 378.203125 81.734375 378.214844 81.535156 378.289062 81.347656 L 390.328125 50.734375 L 390.269531 50.710938 L 367.382812 77.023438 C 367.207031 77.238281 367.003906 77.402344 366.761719 77.5 C 366.515625 77.597656 366.238281 77.636719 365.890625 77.613281 C 365.558594 77.585938 365.144531 77.503906 364.675781 77.355469 C 364.199219 77.203125 363.628906 76.988281 362.976562 76.730469 C 362.308594 76.46875 361.761719 76.230469 361.316406 76 C 360.871094 75.765625 360.515625 75.535156 360.261719 75.308594 C 360.003906 75.082031 359.816406 74.859375 359.699219 74.640625 C 359.589844 74.417969 359.546875 74.179688 359.570312 73.949219 L 361.113281 39.246094 L 361.054688 39.222656 L 349.015625 69.832031 C 348.941406 70.019531 348.824219 70.179688 348.652344 70.296875 C 348.484375 70.402344 348.234375 70.453125 347.90625 70.441406 C 347.574219 70.410156 347.167969 70.34375 346.6875 70.222656 C 346.207031 70.101562 345.613281 69.902344 344.898438 69.621094 C 344.195312 69.34375 343.621094 69.085938 343.175781 68.84375 C 342.734375 68.601562 342.390625 68.371094 342.148438 68.175781 C 341.90625 67.964844 341.761719 67.757812 341.710938 67.566406 C 341.664062 67.363281 341.683594 67.167969 341.757812 66.980469 L 354.933594 33.472656 C 355.324219 32.480469 355.878906 31.828125 356.613281 31.507812 C 357.34375 31.191406 358.140625 31.203125 359.023438 31.550781 L 364.019531 33.519531 C 364.914062 33.867188 365.660156 34.242188 366.234375 34.640625 C 366.820312 35.042969 367.28125 35.5 367.617188 36.019531 C 367.9375 36.535156 368.160156 37.136719 368.25 37.816406 C 368.339844 38.492188 368.347656 39.285156 368.253906 40.1875 L 367.546875 65.773438 L 367.667969 65.820312 L 384.847656 46.769531 C 385.414062 46.054688 385.960938 45.476562 386.480469 45.03125 C 387.003906 44.59375 387.53125 44.277344 388.066406 44.085938 C 388.597656 43.894531 389.171875 43.832031 389.765625 43.894531 C 390.371094 43.960938 391.03125 44.140625 391.746094 44.421875 L 396.902344 46.449219 C 397.425781 46.65625 397.847656 46.902344 398.167969 47.1875 C 398.496094 47.464844 398.734375 47.789062 398.867188 48.148438 C 399.011719 48.503906 399.066406 48.890625 399.046875 49.320312 C 399.027344 49.746094 398.917969 50.207031 398.726562 50.695312 Z M 414.707031 99.957031 C 414.375 100.464844 414.085938 100.875 413.816406 101.195312 C 413.550781 101.507812 413.308594 101.742188 413.085938 101.890625 C 412.855469 102.046875 412.652344 102.128906 412.453125 102.140625 C 412.265625 102.160156 412.082031 102.105469 411.929688 102.007812 L 394.921875 90.988281 C 394.347656 90.617188 393.976562 90.132812 393.804688 89.539062 C 393.628906 88.945312 393.792969 88.261719 394.289062 87.492188 L 413.441406 57.929688 C 413.941406 57.160156 414.496094 56.730469 415.109375 56.648438 C 415.722656 56.5625 416.316406 56.703125 416.890625 57.074219 L 433.816406 68.042969 C 433.96875 68.140625 434.085938 68.277344 434.152344 68.449219 C 434.210938 68.613281 434.21875 68.835938 434.167969 69.105469 C 434.105469 69.382812 433.996094 69.707031 433.820312 70.074219 C 433.640625 70.453125 433.378906 70.894531 433.039062 71.421875 C 432.71875 71.914062 432.4375 72.3125 432.164062 72.632812 C 431.898438 72.945312 431.65625 73.179688 431.433594 73.328125 C 431.207031 73.484375 431 73.566406 430.820312 73.589844 C 430.632812 73.609375 430.460938 73.558594 430.308594 73.460938 L 418.207031 65.625 L 412.855469 73.886719 L 423.050781 80.492188 C 423.210938 80.59375 423.324219 80.734375 423.386719 80.910156 C 423.457031 81.097656 423.472656 81.308594 423.429688 81.574219 C 423.390625 81.828125 423.277344 82.136719 423.097656 82.515625 C 422.921875 82.882812 422.671875 83.308594 422.359375 83.789062 C 422.03125 84.300781 421.742188 84.707031 421.480469 85.011719 C 421.222656 85.3125 420.984375 85.539062 420.769531 85.679688 C 420.546875 85.828125 420.347656 85.898438 420.160156 85.894531 C 419.976562 85.902344 419.804688 85.855469 419.644531 85.75 L 409.449219 79.144531 L 403.261719 88.695312 L 415.441406 96.585938 C 415.601562 96.691406 415.71875 96.828125 415.777344 97.007812 C 415.847656 97.195312 415.859375 97.414062 415.808594 97.6875 C 415.765625 97.949219 415.648438 98.269531 415.472656 98.636719 C 415.289062 99.015625 415.035156 99.445312 414.707031 99.957031 Z M 414.707031 99.957031 " fill-opacity="1" fill-rule="nonzero"/><path fill="#ffffff" d="M 445.988281 126.539062 C 445.667969 126.894531 445.320312 127.15625 444.949219 127.339844 C 444.574219 127.503906 444.199219 127.585938 443.816406 127.585938 C 443.445312 127.582031 443.078125 127.5 442.714844 127.332031 C 442.339844 127.15625 442.019531 126.941406 441.726562 126.679688 L 439.105469 124.347656 C 438.558594 123.859375 438.136719 123.386719 437.832031 122.929688 C 437.539062 122.46875 437.351562 121.945312 437.273438 121.359375 C 437.183594 120.769531 437.214844 120.097656 437.34375 119.328125 C 437.464844 118.566406 437.679688 117.617188 437.984375 116.488281 L 443.054688 95.710938 C 443.367188 94.476562 443.738281 93.179688 444.148438 91.804688 C 444.558594 90.429688 445.003906 89.128906 445.460938 87.894531 L 445.414062 87.851562 C 444.480469 89.03125 443.535156 90.1875 442.574219 91.332031 C 441.621094 92.464844 440.609375 93.632812 439.5625 94.8125 L 425.5 110.613281 C 425.363281 110.761719 425.195312 110.871094 424.996094 110.921875 C 424.804688 110.960938 424.558594 110.929688 424.273438 110.835938 C 423.988281 110.738281 423.644531 110.546875 423.246094 110.273438 C 422.84375 110.003906 422.363281 109.617188 421.804688 109.121094 C 421.257812 108.632812 420.824219 108.203125 420.507812 107.839844 C 420.191406 107.472656 419.96875 107.160156 419.847656 106.894531 C 419.710938 106.632812 419.667969 106.390625 419.703125 106.207031 C 419.738281 106.011719 419.824219 105.832031 419.960938 105.679688 L 444.101562 78.554688 C 444.753906 77.824219 445.460938 77.464844 446.214844 77.480469 C 446.960938 77.492188 447.652344 77.777344 448.28125 78.335938 L 451.566406 81.261719 C 452.15625 81.785156 452.613281 82.28125 452.929688 82.746094 C 453.242188 83.210938 453.453125 83.695312 453.566406 84.207031 C 453.675781 84.722656 453.691406 85.320312 453.597656 85.980469 C 453.515625 86.632812 453.34375 87.40625 453.097656 88.273438 L 449.140625 104.535156 C 448.886719 105.507812 448.632812 106.464844 448.394531 107.410156 C 448.152344 108.351562 447.90625 109.285156 447.632812 110.199219 C 447.371094 111.121094 447.105469 112.027344 446.847656 112.910156 C 446.589844 113.808594 446.324219 114.683594 446.050781 115.554688 L 446.074219 115.574219 C 446.996094 114.441406 447.972656 113.269531 448.996094 112.066406 C 450.027344 110.859375 451.027344 109.722656 451.980469 108.648438 L 464.59375 94.480469 C 464.726562 94.332031 464.902344 94.230469 465.113281 94.1875 C 465.304688 94.144531 465.5625 94.175781 465.863281 94.273438 C 466.171875 94.375 466.515625 94.566406 466.910156 94.84375 C 467.300781 95.125 467.777344 95.519531 468.335938 96.015625 C 468.867188 96.488281 469.300781 96.902344 469.621094 97.261719 C 469.945312 97.621094 470.160156 97.925781 470.273438 98.195312 C 470.378906 98.460938 470.421875 98.703125 470.386719 98.882812 C 470.355469 99.082031 470.273438 99.253906 470.132812 99.414062 Z M 495.867188 133.53125 C 495.386719 133.90625 494.972656 134.203125 494.59375 134.429688 C 494.226562 134.648438 493.910156 134.800781 493.644531 134.875 C 493.367188 134.953125 493.140625 134.972656 492.949219 134.917969 C 492.753906 134.878906 492.59375 134.777344 492.480469 134.632812 L 486.265625 126.667969 L 460.589844 146.710938 C 460.429688 146.835938 460.238281 146.902344 460.019531 146.898438 C 459.808594 146.886719 459.558594 146.796875 459.285156 146.617188 C 459.019531 146.433594 458.691406 146.152344 458.3125 145.769531 C 457.933594 145.390625 457.503906 144.886719 457.019531 144.265625 C 456.53125 143.644531 456.152344 143.105469 455.875 142.644531 C 455.597656 142.1875 455.402344 141.796875 455.289062 141.496094 C 455.179688 141.1875 455.152344 140.925781 455.191406 140.71875 C 455.242188 140.503906 455.355469 140.335938 455.511719 140.210938 L 481.191406 120.167969 L 474.976562 112.207031 C 474.851562 112.046875 474.792969 111.863281 474.800781 111.667969 C 474.808594 111.484375 474.878906 111.265625 475.023438 111.019531 C 475.167969 110.785156 475.382812 110.507812 475.6875 110.203125 C 476 109.894531 476.390625 109.5625 476.867188 109.1875 C 477.355469 108.808594 477.789062 108.496094 478.164062 108.269531 C 478.542969 108.042969 478.871094 107.894531 479.132812 107.8125 C 479.40625 107.734375 479.628906 107.722656 479.808594 107.757812 C 479.992188 107.804688 480.144531 107.914062 480.269531 108.074219 L 497.773438 130.503906 C 497.886719 130.644531 497.949219 130.8125 497.953125 131.011719 C 497.960938 131.207031 497.894531 131.421875 497.75 131.667969 C 497.617188 131.910156 497.382812 132.183594 497.074219 132.496094 C 496.761719 132.808594 496.355469 133.152344 495.867188 133.53125 Z M 498.667969 188.558594 C 496.761719 189.515625 494.925781 189.992188 493.136719 190.007812 C 491.347656 190.011719 489.679688 189.65625 488.113281 188.929688 C 486.546875 188.1875 485.117188 187.140625 483.820312 185.765625 C 482.523438 184.390625 481.414062 182.773438 480.488281 180.925781 C 479.863281 179.679688 479.390625 178.472656 479.058594 177.292969 C 478.734375 176.121094 478.507812 175.054688 478.394531 174.085938 C 478.269531 173.125 478.230469 172.285156 478.277344 171.570312 C 478.324219 170.855469 478.414062 170.320312 478.527344 169.953125 C 478.65625 169.59375 478.921875 169.246094 479.324219 168.910156 C 479.730469 168.578125 480.355469 168.203125 481.210938 167.773438 C 481.792969 167.484375 482.277344 167.261719 482.6875 167.105469 C 483.097656 166.949219 483.441406 166.847656 483.730469 166.808594 C 484.011719 166.773438 484.242188 166.804688 484.414062 166.882812 C 484.589844 166.972656 484.71875 167.113281 484.8125 167.304688 C 484.941406 167.558594 484.976562 168.007812 484.902344 168.640625 C 484.835938 169.269531 484.796875 170.054688 484.796875 170.980469 C 484.800781 171.910156 484.90625 172.976562 485.121094 174.167969 C 485.324219 175.355469 485.773438 176.632812 486.457031 177.996094 C 486.90625 178.890625 487.410156 179.636719 487.972656 180.238281 C 488.550781 180.84375 489.148438 181.292969 489.785156 181.59375 C 490.425781 181.894531 491.085938 182.027344 491.792969 182.003906 C 492.492188 181.976562 493.199219 181.789062 493.902344 181.4375 C 494.722656 181.023438 495.316406 180.453125 495.671875 179.714844 C 496.039062 178.96875 496.261719 178.132812 496.355469 177.179688 C 496.457031 176.234375 496.472656 175.199219 496.414062 174.085938 C 496.363281 172.980469 496.308594 171.828125 496.269531 170.628906 C 496.230469 169.433594 496.261719 168.238281 496.378906 167.046875 C 496.480469 165.851562 496.746094 164.691406 497.179688 163.582031 C 497.609375 162.460938 498.25 161.410156 499.109375 160.421875 C 499.964844 159.433594 501.148438 158.5625 502.652344 157.808594 C 504.378906 156.945312 506.0625 156.503906 507.699219 156.484375 C 509.324219 156.46875 510.84375 156.789062 512.253906 157.441406 C 513.671875 158.101562 514.957031 159.054688 516.128906 160.316406 C 517.296875 161.578125 518.292969 163.042969 519.125 164.699219 C 519.550781 165.546875 519.914062 166.4375 520.210938 167.363281 C 520.515625 168.28125 520.738281 169.171875 520.890625 170.027344 C 521.035156 170.882812 521.117188 171.664062 521.132812 172.382812 C 521.132812 173.097656 521.09375 173.59375 521 173.878906 C 520.910156 174.152344 520.808594 174.359375 520.71875 174.484375 C 520.617188 174.621094 520.476562 174.761719 520.28125 174.921875 C 520.09375 175.074219 519.84375 175.234375 519.519531 175.421875 C 519.203125 175.601562 518.808594 175.8125 518.324219 176.054688 C 517.789062 176.324219 517.328125 176.542969 516.941406 176.703125 C 516.558594 176.859375 516.226562 176.964844 515.945312 177.023438 C 515.675781 177.074219 515.445312 177.070312 515.285156 177.007812 C 515.109375 176.941406 514.96875 176.808594 514.863281 176.597656 C 514.765625 176.398438 514.734375 176.007812 514.769531 175.433594 C 514.800781 174.855469 514.808594 174.160156 514.796875 173.355469 C 514.773438 172.542969 514.671875 171.652344 514.492188 170.671875 C 514.320312 169.683594 513.972656 168.691406 513.457031 167.660156 C 513.058594 166.859375 512.613281 166.214844 512.113281 165.714844 C 511.625 165.21875 511.101562 164.863281 510.558594 164.632812 C 510.015625 164.40625 509.453125 164.304688 508.871094 164.359375 C 508.285156 164.402344 507.722656 164.566406 507.1875 164.832031 C 506.390625 165.234375 505.804688 165.800781 505.441406 166.53125 C 505.070312 167.265625 504.84375 168.117188 504.753906 169.082031 C 504.671875 170.039062 504.664062 171.09375 504.734375 172.226562 C 504.796875 173.351562 504.847656 174.519531 504.894531 175.710938 C 504.933594 176.90625 504.90625 178.113281 504.796875 179.320312 C 504.695312 180.542969 504.433594 181.710938 504.011719 182.839844 C 503.582031 183.960938 502.957031 185.015625 502.105469 186 C 501.261719 186.984375 500.113281 187.832031 498.667969 188.558594 Z M 509.726562 208.808594 L 496.34375 213.601562 C 496.152344 213.671875 495.949219 213.675781 495.742188 213.601562 C 495.546875 213.523438 495.339844 213.359375 495.136719 213.105469 C 494.941406 212.847656 494.71875 212.476562 494.476562 211.996094 C 494.238281 211.515625 493.984375 210.902344 493.71875 210.160156 C 493.445312 209.398438 493.25 208.757812 493.132812 208.242188 C 493.023438 207.738281 492.960938 207.308594 492.941406 206.976562 C 492.929688 206.628906 492.984375 206.371094 493.097656 206.207031 C 493.214844 206.03125 493.371094 205.90625 493.5625 205.835938 L 506.945312 201.042969 L 523.941406 183.210938 C 524.53125 182.578125 525.015625 182.132812 525.378906 181.878906 C 525.738281 181.625 526.0625 181.578125 526.355469 181.734375 C 526.636719 181.882812 526.917969 182.257812 527.183594 182.839844 C 527.449219 183.425781 527.769531 184.261719 528.152344 185.332031 C 528.476562 186.238281 528.710938 186.957031 528.867188 187.511719 C 529.019531 188.066406 529.101562 188.515625 529.101562 188.863281 C 529.101562 189.214844 529.046875 189.496094 528.929688 189.707031 C 528.796875 189.914062 528.628906 190.132812 528.398438 190.375 L 520.570312 197.976562 C 519.816406 198.710938 519.011719 199.460938 518.160156 200.21875 C 517.304688 200.992188 516.40625 201.765625 515.453125 202.582031 L 515.472656 202.640625 C 516.671875 202.632812 517.828125 202.648438 518.972656 202.679688 C 520.117188 202.710938 521.195312 202.753906 522.230469 202.800781 L 533.019531 203.660156 C 533.375 203.644531 533.671875 203.675781 533.90625 203.761719 C 534.144531 203.832031 534.375 204 534.601562 204.257812 C 534.816406 204.507812 535.042969 204.878906 535.265625 205.378906 C 535.484375 205.867188 535.75 206.539062 536.050781 207.382812 C 536.449219 208.496094 536.742188 209.375 536.910156 210.007812 C 537.085938 210.648438 537.105469 211.113281 536.984375 211.40625 C 536.855469 211.714844 536.5625 211.875 536.105469 211.902344 C 535.65625 211.9375 535.019531 211.894531 534.179688 211.800781 Z M 516.347656 250.820312 C 514.246094 251.171875 512.351562 251.085938 510.632812 250.574219 C 508.925781 250.046875 507.4375 249.214844 506.152344 248.058594 C 504.878906 246.886719 503.820312 245.464844 502.984375 243.769531 C 502.152344 242.070312 501.570312 240.203125 501.230469 238.164062 C 501 236.785156 500.902344 235.496094 500.9375 234.269531 C 500.972656 233.054688 501.070312 231.96875 501.246094 231.007812 C 501.410156 230.050781 501.621094 229.238281 501.878906 228.570312 C 502.132812 227.902344 502.375 227.417969 502.59375 227.101562 C 502.824219 226.792969 503.179688 226.539062 503.664062 226.339844 C 504.152344 226.136719 504.855469 225.96875 505.800781 225.808594 C 506.445312 225.703125 506.972656 225.636719 507.410156 225.605469 C 507.847656 225.578125 508.207031 225.582031 508.496094 225.628906 C 508.773438 225.679688 508.984375 225.777344 509.125 225.902344 C 509.265625 226.042969 509.347656 226.210938 509.382812 226.421875 C 509.429688 226.707031 509.332031 227.144531 509.070312 227.726562 C 508.824219 228.308594 508.554688 229.046875 508.285156 229.933594 C 508.011719 230.820312 507.796875 231.871094 507.652344 233.074219 C 507.492188 234.265625 507.546875 235.617188 507.796875 237.121094 C 507.960938 238.109375 508.222656 238.972656 508.585938 239.714844 C 508.957031 240.460938 509.394531 241.070312 509.917969 241.542969 C 510.4375 242.019531 511.03125 242.339844 511.710938 242.53125 C 512.390625 242.707031 513.121094 242.738281 513.898438 242.609375 C 514.800781 242.457031 515.539062 242.085938 516.097656 241.484375 C 516.667969 240.882812 517.128906 240.148438 517.5 239.265625 C 517.871094 238.390625 518.195312 237.410156 518.46875 236.328125 C 518.742188 235.253906 519.03125 234.136719 519.347656 232.980469 C 519.660156 231.828125 520.046875 230.695312 520.507812 229.589844 C 520.960938 228.476562 521.554688 227.449219 522.296875 226.515625 C 523.035156 225.570312 523.960938 224.757812 525.074219 224.066406 C 526.179688 223.375 527.570312 222.894531 529.230469 222.617188 C 531.132812 222.300781 532.875 222.375 534.441406 222.839844 C 536 223.300781 537.355469 224.058594 538.515625 225.097656 C 539.671875 226.148438 540.621094 227.4375 541.367188 228.988281 C 542.109375 230.535156 542.628906 232.230469 542.933594 234.0625 C 543.089844 234.996094 543.175781 235.953125 543.1875 236.925781 C 543.207031 237.894531 543.15625 238.808594 543.050781 239.671875 C 542.933594 240.53125 542.78125 241.304688 542.585938 241.996094 C 542.375 242.679688 542.191406 243.140625 542.015625 243.386719 C 541.851562 243.617188 541.695312 243.785156 541.570312 243.882812 C 541.433594 243.980469 541.257812 244.074219 541.023438 244.167969 C 540.800781 244.257812 540.511719 244.339844 540.148438 244.421875 C 539.792969 244.503906 539.355469 244.585938 538.816406 244.675781 C 538.230469 244.773438 537.722656 244.847656 537.308594 244.882812 C 536.890625 244.921875 536.546875 244.925781 536.261719 244.894531 C 535.988281 244.867188 535.769531 244.796875 535.632812 244.6875 C 535.484375 244.574219 535.390625 244.402344 535.351562 244.171875 C 535.316406 243.953125 535.402344 243.570312 535.605469 243.027344 C 535.804688 242.488281 536.019531 241.824219 536.246094 241.054688 C 536.464844 240.273438 536.628906 239.390625 536.746094 238.398438 C 536.871094 237.40625 536.835938 236.351562 536.648438 235.21875 C 536.5 234.335938 536.265625 233.585938 535.933594 232.960938 C 535.617188 232.34375 535.222656 231.847656 534.769531 231.46875 C 534.316406 231.089844 533.808594 230.832031 533.238281 230.710938 C 532.664062 230.578125 532.078125 230.566406 531.492188 230.664062 C 530.609375 230.8125 529.882812 231.183594 529.320312 231.773438 C 528.75 232.363281 528.28125 233.113281 527.910156 234.007812 C 527.550781 234.898438 527.234375 235.902344 526.964844 237.003906 C 526.691406 238.097656 526.394531 239.226562 526.089844 240.382812 C 525.773438 241.535156 525.390625 242.679688 524.929688 243.804688 C 524.472656 244.9375 523.878906 245.976562 523.140625 246.933594 C 522.402344 247.878906 521.492188 248.699219 520.386719 249.390625 C 519.292969 250.082031 517.945312 250.554688 516.347656 250.820312 Z M 544.167969 282.371094 C 543.5625 282.417969 543.050781 282.433594 542.609375 282.414062 C 542.179688 282.394531 541.835938 282.34375 541.574219 282.257812 C 541.300781 282.171875 541.097656 282.058594 540.96875 281.910156 C 540.832031 281.769531 540.753906 281.59375 540.738281 281.414062 L 539.980469 271.339844 L 507.5 273.78125 C 507.296875 273.796875 507.101562 273.75 506.921875 273.625 C 506.75 273.496094 506.597656 273.285156 506.46875 272.984375 C 506.347656 272.683594 506.230469 272.265625 506.128906 271.738281 C 506.023438 271.210938 505.941406 270.554688 505.882812 269.769531 C 505.824219 268.980469 505.808594 268.320312 505.832031 267.785156 C 505.855469 267.25 505.90625 266.816406 505.980469 266.503906 C 506.0625 266.1875 506.183594 265.953125 506.332031 265.800781 C 506.492188 265.652344 506.679688 265.574219 506.882812 265.558594 L 539.363281 263.117188 L 538.605469 253.042969 C 538.589844 252.839844 538.640625 252.65625 538.757812 252.496094 C 538.863281 252.351562 539.046875 252.207031 539.304688 252.082031 C 539.550781 251.964844 539.886719 251.855469 540.304688 251.769531 C 540.738281 251.683594 541.246094 251.625 541.851562 251.582031 C 542.46875 251.535156 543 251.515625 543.441406 251.535156 C 543.878906 251.554688 544.238281 251.613281 544.5 251.691406 C 544.773438 251.777344 544.964844 251.890625 545.089844 252.019531 C 545.21875 252.160156 545.285156 252.335938 545.300781 252.539062 L 547.433594 280.910156 C 547.445312 281.089844 547.40625 281.265625 547.300781 281.433594 C 547.195312 281.601562 547.027344 281.742188 546.769531 281.867188 C 546.523438 281.992188 546.175781 282.09375 545.746094 282.179688 C 545.3125 282.265625 544.785156 282.328125 544.167969 282.371094 Z M 508.085938 314.089844 C 507.480469 314.042969 506.984375 313.984375 506.574219 313.902344 C 506.171875 313.816406 505.847656 313.71875 505.613281 313.59375 C 505.367188 313.46875 505.195312 313.328125 505.089844 313.160156 C 504.984375 313.003906 504.945312 312.816406 504.957031 312.636719 L 506.476562 292.425781 C 506.527344 291.746094 506.773438 291.1875 507.214844 290.75 C 507.652344 290.3125 508.328125 290.128906 509.242188 290.199219 L 544.371094 292.839844 C 545.285156 292.910156 545.925781 293.191406 546.292969 293.691406 C 546.660156 294.1875 546.820312 294.777344 546.769531 295.457031 L 545.257812 315.570312 C 545.242188 315.753906 545.175781 315.917969 545.058594 316.058594 C 544.945312 316.1875 544.753906 316.304688 544.492188 316.390625 C 544.21875 316.464844 543.882812 316.527344 543.472656 316.546875 C 543.054688 316.570312 542.542969 316.554688 541.917969 316.507812 C 541.332031 316.460938 540.84375 316.40625 540.433594 316.320312 C 540.035156 316.238281 539.710938 316.136719 539.476562 316.011719 C 539.226562 315.886719 539.058594 315.746094 538.949219 315.597656 C 538.84375 315.441406 538.804688 315.269531 538.816406 315.085938 L 539.898438 300.710938 L 530.082031 299.972656 L 529.171875 312.085938 C 529.15625 312.277344 529.089844 312.441406 528.960938 312.582031 C 528.832031 312.734375 528.652344 312.847656 528.402344 312.9375 C 528.160156 313.023438 527.835938 313.074219 527.417969 313.097656 C 527.007812 313.121094 526.519531 313.105469 525.945312 313.0625 C 525.339844 313.015625 524.839844 312.957031 524.453125 312.875 C 524.0625 312.792969 523.75 312.691406 523.523438 312.570312 C 523.289062 312.445312 523.125 312.304688 523.042969 312.136719 C 522.949219 311.980469 522.90625 311.808594 522.921875 311.617188 L 523.832031 299.503906 L 512.484375 298.648438 L 511.398438 313.121094 C 511.382812 313.3125 511.316406 313.476562 511.1875 313.617188 C 511.058594 313.769531 510.871094 313.882812 510.605469 313.96875 C 510.355469 314.058594 510.019531 314.105469 509.609375 314.128906 C 509.191406 314.152344 508.691406 314.136719 508.085938 314.089844 Z M 492.246094 366.722656 C 492.050781 366.660156 491.882812 366.550781 491.757812 366.390625 C 491.640625 366.230469 491.570312 365.984375 491.558594 365.667969 C 491.554688 365.355469 491.597656 364.941406 491.683594 364.445312 C 491.773438 363.949219 491.933594 363.328125 492.164062 362.597656 C 492.390625 361.875 492.609375 361.285156 492.820312 360.828125 C 493.027344 360.367188 493.230469 360.015625 493.410156 359.761719 C 493.597656 359.519531 493.792969 359.355469 493.980469 359.292969 C 494.179688 359.222656 494.382812 359.21875 494.578125 359.277344 L 525.964844 369.113281 L 525.984375 369.050781 L 498.113281 348.09375 C 497.886719 347.933594 497.710938 347.742188 497.59375 347.503906 C 497.480469 347.269531 497.421875 346.992188 497.417969 346.644531 C 497.421875 346.3125 497.476562 345.894531 497.589844 345.414062 C 497.710938 344.929688 497.882812 344.347656 498.09375 343.675781 C 498.304688 342.992188 498.503906 342.429688 498.703125 341.96875 C 498.90625 341.507812 499.109375 341.136719 499.320312 340.867188 C 499.527344 340.59375 499.734375 340.394531 499.945312 340.257812 C 500.160156 340.136719 500.394531 340.074219 500.625 340.082031 L 535.351562 339.15625 L 535.371094 339.097656 L 503.980469 329.261719 C 503.789062 329.203125 503.621094 329.09375 503.492188 328.929688 C 503.375 328.769531 503.308594 328.527344 503.296875 328.199219 C 503.304688 327.867188 503.34375 327.453125 503.425781 326.96875 C 503.511719 326.480469 503.671875 325.871094 503.902344 325.136719 C 504.125 324.417969 504.34375 323.824219 504.554688 323.367188 C 504.765625 322.910156 504.96875 322.546875 505.148438 322.292969 C 505.339844 322.039062 505.535156 321.878906 505.722656 321.8125 C 505.921875 321.75 506.121094 321.757812 506.3125 321.820312 L 540.671875 332.585938 C 541.6875 332.902344 542.378906 333.410156 542.75 334.117188 C 543.117188 334.824219 543.160156 335.621094 542.875 336.523438 L 541.269531 341.648438 C 540.984375 342.5625 540.664062 343.335938 540.308594 343.9375 C 539.949219 344.550781 539.527344 345.042969 539.03125 345.414062 C 538.539062 345.773438 537.953125 346.035156 537.285156 346.171875 C 536.617188 346.308594 535.824219 346.375 534.917969 346.347656 L 509.347656 347.457031 L 509.308594 347.578125 L 529.53125 363.363281 C 530.285156 363.878906 530.898438 364.382812 531.382812 364.871094 C 531.851562 365.363281 532.210938 365.867188 532.4375 366.382812 C 532.667969 366.902344 532.765625 367.46875 532.75 368.066406 C 532.726562 368.675781 532.59375 369.347656 532.363281 370.078125 L 530.707031 375.367188 C 530.539062 375.90625 530.324219 376.339844 530.058594 376.683594 C 529.808594 377.027344 529.5 377.289062 529.148438 377.445312 C 528.804688 377.617188 528.421875 377.699219 527.996094 377.710938 C 527.566406 377.722656 527.101562 377.640625 526.601562 377.488281 Z M 492.246094 366.722656 " fill-opacity="1" fill-rule="nonzero"/></svg>