<svg id="Capa_1" data-name="Capa 1" xmlns="http://www.w3.org/2000/svg" viewBox="0 0 676.01 96.99"><defs><style>.cls-1{fill:#ffffff;}</style></defs><title>logo_systemscorp</title><path class="cls-1" d="M43.13,49.36c-1,.91-2.06,1.71-3,2.68a7.48,7.48,0,0,0,3.55,12.55A7.11,7.11,0,0,0,50.28,63a16.88,16.88,0,0,0,2-2.12c.43-.53.87-1.05,1.38-1.66L68.93,74.81a1,1,0,0,1-.14.3,81.09,81.09,0,0,1-20.48,15,59.41,59.41,0,0,1-16.4,5.36,14.49,14.49,0,0,1-7.19-.3,11.17,11.17,0,0,1-4.9-3.28A101.24,101.24,0,0,0,10.89,83,11.57,11.57,0,0,1,7.05,72.35,57.12,57.12,0,0,1,16,48.48a86.73,86.73,0,0,1,11.1-14l.39-.38c.23-.25.46-.33.71,0,.12.14.26.26.38.39l14,14.15A2,2,0,0,1,43.13,49.36Z" transform="translate(-6.94 -6.23)"/><path class="cls-1" d="M363.71,43.33a3.28,3.28,0,0,0-.89,1q-7,9.28-14,18.58c-.34.46-.62.9-1.36.89a1.87,1.87,0,0,1-1.7-.87q-6.8-9.35-13.64-18.67a3,3,0,0,0-.82-.81V76.17a4.7,4.7,0,0,0,0,.65c.1.6-.18.72-.73.71-2.53,0-5.07,0-7.6,0-.54,0-.84-.11-.74-.72a4.86,4.86,0,0,0,0-.54v-45c0-1.46-.16-1.31,1.35-1.31,2.72,0,5.44,0,8.15,0a1.55,1.55,0,0,1,1.43.73q6.81,9.42,13.67,18.79a2.82,2.82,0,0,0,.71.84L356,38.72c1.94-2.67,3.89-5.32,5.8-8a1.6,1.6,0,0,1,1.52-.78c2.79,0,5.58,0,8.37,0,1.06,0,1,0,1,1V76.63c0,.92.11.89-.86.89h-8.12Z" transform="translate(-6.94 -6.23)"/><path class="cls-1" d="M282.36,29.9h34.48c1.41,0,1.2-.16,1.21,1.2,0,2.21,0,4.42,0,6.63,0,.89.08.87-.9.87H292.27c-1,0-.94-.1-.94.93v9.12c0,1-.05.87.88.87h24c.81,0,.82,0,.83.86V57c0,1.07.11.94-1,.94H296.58c-1.52,0-3,0-4.56,0-.49,0-.71.07-.7.64,0,3.15,0,6.3,0,9.46,0,.48.16.6.62.6,2.21,0,4.42,0,6.63,0h18.15c.25,0,.51,0,.76,0,.42,0,.58.16.58.57q0,3.92,0,7.83c0,.38-.16.51-.52.49h-34c-1.17,0-1.17,0-1.17-1.13V29.9Z" transform="translate(-6.94 -6.23)"/><path class="cls-1" d="M121.21,63.16c.11.1.19.14.21.2A11.64,11.64,0,0,0,129.64,70a19,19,0,0,0,11.11-.3,8,8,0,0,0,2.56-1.38,5.83,5.83,0,0,0,2.09-6.12A5.11,5.11,0,0,0,143,59a13.47,13.47,0,0,0-5.25-1.91c-2.42-.41-4.87-.7-7.29-1.11a27.31,27.31,0,0,1-7.33-2.2c-3.24-1.56-5.69-3.86-6.65-7.44-1.18-4.45-.73-8.63,2.38-12.25a15.79,15.79,0,0,1,7.47-4.6,27.8,27.8,0,0,1,10.18-1.17,25.12,25.12,0,0,1,8.92,2,15.48,15.48,0,0,1,7.37,6.79c.24.44.24.65-.26.9q-3.09,1.55-6.16,3.17c-.37.19-.54.12-.78-.2a12.45,12.45,0,0,0-7.68-4.52,16.41,16.41,0,0,0-8.37.35,8.4,8.4,0,0,0-2.67,1.39,5.21,5.21,0,0,0-2,3.38A4.22,4.22,0,0,0,126.78,46a12.46,12.46,0,0,0,4.52,1.7c2.41.53,4.87.69,7.29,1.11a31.56,31.56,0,0,1,8.69,2.55c4.67,2.29,7,6.08,7.27,11.21a15.36,15.36,0,0,1-.7,5.68,13,13,0,0,1-5.54,7,22,22,0,0,1-8.71,3.09,34.7,34.7,0,0,1-9,.19c-4.27-.44-8.3-1.56-11.7-4.35a17.45,17.45,0,0,1-4.86-6.57c-.15-.36-.3-.63.19-.88C116.58,65.58,118.9,64.36,121.21,63.16Z" transform="translate(-6.94 -6.23)"/><path class="cls-1" d="M206,63.16c.12.11.19.15.22.21a11.59,11.59,0,0,0,8.11,6.6,19.16,19.16,0,0,0,11.22-.27,8,8,0,0,0,2.55-1.39,5.82,5.82,0,0,0,2.09-6.12,5.11,5.11,0,0,0-2.43-3.2,13.41,13.41,0,0,0-5.25-1.91c-2.42-.41-4.87-.7-7.29-1.11a26.12,26.12,0,0,1-8.1-2.6,11.34,11.34,0,0,1-6.12-8c-1.17-5.84.74-11.08,6.25-14.22a22.46,22.46,0,0,1,8-2.61,29,29,0,0,1,11.94.71,15.93,15.93,0,0,1,10.65,8.38c-.08.09-.13.2-.22.24q-3.16,1.65-6.35,3.28c-.27.13-.51.36-.82-.06a12.25,12.25,0,0,0-7.53-4.55,16.41,16.41,0,0,0-8.57.3,7.79,7.79,0,0,0-2.68,1.39,5.13,5.13,0,0,0-2,3.37A4.23,4.23,0,0,0,211.58,46a12.53,12.53,0,0,0,4.53,1.71c2.37.52,4.79.68,7.18,1.08a32.17,32.17,0,0,1,8.79,2.57c4.68,2.29,7,6.09,7.27,11.22a15.6,15.6,0,0,1-.7,5.68,13,13,0,0,1-5.55,7,22,22,0,0,1-8.71,3.09,34.7,34.7,0,0,1-9,.19c-4.27-.44-8.3-1.56-11.7-4.35a17.69,17.69,0,0,1-4.86-6.58c-.25-.55-.07-.75.39-1C201.49,65.52,203.72,64.34,206,63.16Z" transform="translate(-6.94 -6.23)"/><path class="cls-1" d="M407.85,41.41c-2.91-3.67-6.75-5.15-11.24-5.25a14.79,14.79,0,0,0-5.74.89A7.12,7.12,0,0,0,388,39a4.68,4.68,0,0,0,1.27,7.45A16,16,0,0,0,394.44,48c3.1.52,6.24.77,9.3,1.53a23.55,23.55,0,0,1,6.82,2.66,11.87,11.87,0,0,1,5.77,9.23,16,16,0,0,1-.47,6.56,13.18,13.18,0,0,1-6,7.57,22.32,22.32,0,0,1-8.34,2.87,34.68,34.68,0,0,1-9,.21,21.81,21.81,0,0,1-11.2-3.93,17.4,17.4,0,0,1-5.43-7.07c-.17-.4-.19-.61.26-.84,2.32-1.17,4.62-2.38,6.86-3.54.2,0,.26.09.3.2a11.45,11.45,0,0,0,7.41,6.36,19.11,19.11,0,0,0,11.94-.07,8.69,8.69,0,0,0,2.39-1.26,5.71,5.71,0,0,0-.5-9.64,17.39,17.39,0,0,0-6.15-1.93,70.55,70.55,0,0,1-9.8-1.74,19.43,19.43,0,0,1-6.15-2.87,11.15,11.15,0,0,1-4.56-8.07,13.9,13.9,0,0,1,.59-6.33,12.31,12.31,0,0,1,5.05-6.19,20.4,20.4,0,0,1,8.05-3,28.93,28.93,0,0,1,12.69.61,16,16,0,0,1,10.18,7.54c.09.16.17.32.26.47s.19.5-.18.69C412.31,39.1,410.07,40.26,407.85,41.41Z" transform="translate(-6.94 -6.23)"/><path class="cls-1" d="M670.08,44l-5.77,5.72c-3,3-6,6-9,9a6.45,6.45,0,0,1-8.16,1,6.18,6.18,0,0,1-1.25-1Q638.18,51,630.47,43.25a6.45,6.45,0,0,1,0-9.49q7-7,14-14c.13-.13.27-.25.39-.38a.4.4,0,0,1,.65,0l.39.38q11.91,11.9,23.81,23.81C669.79,43.68,669.88,43.79,670.08,44Z" transform="translate(-6.94 -6.23)"/><path class="cls-1" d="M176.64,49.39a3,3,0,0,0,.72-1q5.7-8.85,11.36-17.72a1.59,1.59,0,0,1,1.56-.83c2.93,0,5.86,0,8.8,0a1.76,1.76,0,0,1,1.09.13,2.22,2.22,0,0,1-.59,1.12Q190.73,44,181.86,56.89a3.69,3.69,0,0,0-.7,2.2c0,5.76,0,11.52,0,17.28,0,.25,0,.5,0,.76s-.11.4-.38.39H173c-.85,0-.8,0-.8-.84,0-5.94,0-11.88,0-17.82a3,3,0,0,0-.55-1.8Q163,44.15,154.47,31.2c-.25-.37-.69-.68-.49-1.3h4c1.92,0,3.84,0,5.76,0a1.36,1.36,0,0,1,1.37.76q5.37,8.8,10.79,17.56C176.13,48.6,176.38,49,176.64,49.39Z" transform="translate(-6.94 -6.23)"/><path class="cls-1" d="M264.81,57.85V76.33c0,.21,0,.43,0,.65.05.43-.15.55-.56.55-1.52,0-3.05,0-4.57,0-1.08,0-2.17,0-3.26,0-.49,0-.77-.09-.69-.66a6.4,6.4,0,0,0,0-.76q0-18.42,0-36.84c0-1.34.19-1.15-1.13-1.15H242c-.25,0-.51,0-.76,0-.43,0-.56-.18-.56-.58,0-1.45,0-2.9,0-4.35,0-.91,0-1.81,0-2.72,0-.39.07-.63.53-.58a4.85,4.85,0,0,0,.66,0H278.7c1.17,0,1.17,0,1.17,1.12,0,2,0,4.06,0,6.08,0,1.11,0,1-1,1H265.62c-.86,0-.82-.07-.82.82Q264.82,48.41,264.81,57.85Z" transform="translate(-6.94 -6.23)"/><path class="cls-1" d="M47.69,44.58l-.7-.67L33.61,30.56c-.13-.12-.26-.25-.38-.38-.53-.55-.54-.57,0-1.13a26,26,0,0,1,6.12-4.81,28.35,28.35,0,0,1,31.31,2.55,1.8,1.8,0,0,1,.75.79c-.37.37-.74.76-1.13,1.13-3,3-6.09,5.89-9.1,8.87a2.5,2.5,0,0,1-2.61.8c-3-.74-5.45.49-7.5,2.62-.83.85-1.6,1.77-2.41,2.65A4,4,0,0,1,47.69,44.58Z" transform="translate(-6.94 -6.23)"/><path class="cls-1" d="M75.36,31.41a20,20,0,0,1,2.7,3.65A28,28,0,0,1,82,47.23a27.49,27.49,0,0,1-7.26,21.45c-1.25,1.4-.94,1.31-2.17.09Q65.9,62.22,59.29,55.63c-.13-.13-.25-.26-.39-.38s-.23-.48,0-.73c.73-.71,1.44-1.43,2.16-2.15A22.07,22.07,0,0,0,63,50.31a7.25,7.25,0,0,0,1.45-6,2.65,2.65,0,0,1,.71-2.59c3.3-3.34,6.59-6.71,9.89-10.07A2,2,0,0,1,75.36,31.41Z" transform="translate(-6.94 -6.23)"/><path class="cls-1" d="M460.93,36.54c-.64.56-1.25,1.08-1.84,1.61s-.68.57-1.3,0a20.1,20.1,0,0,0-6.19-3.93,22.27,22.27,0,0,0-11.28-1.34A20,20,0,0,0,431,36.3a18.84,18.84,0,0,0-7.49,11.22A23.45,23.45,0,0,0,425.08,64a18.18,18.18,0,0,0,13,10,22.11,22.11,0,0,0,15.67-2,21.44,21.44,0,0,0,4.68-3.44A32.6,32.6,0,0,1,461,70.88a10.28,10.28,0,0,1-1.73,1.64A24.33,24.33,0,0,1,445.78,78a27.22,27.22,0,0,1-12-1.57A20.79,20.79,0,0,1,421.46,65a26.63,26.63,0,0,1,.09-22.52c3.19-7,8.77-11,16.24-12.55a25.71,25.71,0,0,1,15.72,1.5A22.59,22.59,0,0,1,460.93,36.54Z" transform="translate(-6.94 -6.23)"/><path class="cls-1" d="M110.32,18.79a13.29,13.29,0,0,1-4.11,10l-11,11a9.79,9.79,0,0,0-2.66,4.88,8.6,8.6,0,0,0,6.23,10,9.36,9.36,0,0,0,7.45-1.4c.52-.33,1-.72,1.55-1a1.61,1.61,0,0,1,2,2.53,12,12,0,0,1-6.56,3.55c-3.87.71-7.22-.6-10.18-3C89.68,52.74,88.5,49.21,89,45a13.16,13.16,0,0,1,4-8q5.46-5.37,10.84-10.83a9.51,9.51,0,0,0,2.88-7A8.51,8.51,0,0,0,98.59,11a9.61,9.61,0,0,0-7.11,2.93c-3.3,3.26-6.57,6.55-9.84,9.83a7.4,7.4,0,0,1-1.51,1.23,1.55,1.55,0,0,1-2.08-.16,1.5,1.5,0,0,1-.11-2.07,6.79,6.79,0,0,1,1-1.18L89.05,11.39a13,13,0,0,1,6.3-3.64,11.61,11.61,0,0,1,10.48,2.44A11.49,11.49,0,0,1,110.32,18.79Z" transform="translate(-6.94 -6.23)"/><path class="cls-1" d="M645.51,61.9a10.91,10.91,0,0,1-3.38,2.79A6.36,6.36,0,0,1,635,63.43c-3-2.94-6-5.9-8.91-8.91a6.4,6.4,0,0,1,0-8.94c.44-.47.91-.91,1.52-1.52.42,2,1.87,3.09,3.1,4.33,3.78,3.79,7.59,7.57,11.36,11.38A6.51,6.51,0,0,0,645.51,61.9Z" transform="translate(-6.94 -6.23)"/><path class="cls-1" d="M45.07,60.36A2.44,2.44,0,0,1,43,56.56a6.22,6.22,0,0,1,.72-.82L56.13,43.31a6.21,6.21,0,0,1,.81-.73,2.46,2.46,0,0,1,3.39,3.48,6.4,6.4,0,0,1-.66.72q-6.24,6.27-12.5,12.52A2.71,2.71,0,0,1,45.07,60.36Z" transform="translate(-6.94 -6.23)"/><path class="cls-1" d="M609.29,51.45a8.31,8.31,0,0,1,8.16,4.93,13.06,13.06,0,0,0,1.7,2.76,6.78,6.78,0,0,0,1.1,1,3.56,3.56,0,0,0,3.48.59,6.18,6.18,0,0,0,2.08-1.13c.44-.38.73-.43,1.14,0s1.16,1.2,1.76,1.77c.3.28.23.45,0,.68a9.42,9.42,0,0,1-6.59,2.57,8.13,8.13,0,0,1-6-3.44A11.11,11.11,0,0,1,614.59,59c-.15-.32-.35-.63-.51-.95-1-2.08-2.34-3-5.33-2.82a22.29,22.29,0,0,0-4.35.84c-.18.05-.34.13-.52.17A1.88,1.88,0,0,1,601.64,55a1.86,1.86,0,0,1,1.23-2.34,22.41,22.41,0,0,1,4.21-1A10.53,10.53,0,0,1,609.29,51.45Z" transform="translate(-6.94 -6.23)"/><path class="cls-1" d="M541.48,88.36c.29-.2.55-.4.82-.57a4,4,0,0,1,6.16,2.14,5.46,5.46,0,0,1,.3,1.6c0,1.63,0,3.26,0,4.89,0,.53-.2.68-.7.67-2.11,0-1.68.25-1.72-1.6,0-1.19,0-2.39,0-3.58A2.47,2.47,0,0,0,545,89.5a2.41,2.41,0,0,0-3.21,1.19,3.73,3.73,0,0,0-.35,1.68c0,1.34,0,2.68,0,4,0,.49-.12.71-.66.7-2.17,0-1.72.24-1.75-1.68,0-2.42,0-4.85,0-7.28,0-.89,0-.89.9-.91h.32c.84,0,.83,0,1.09.81A2.18,2.18,0,0,0,541.48,88.36Z" transform="translate(-6.94 -6.23)"/><path class="cls-1" d="M610.65,87.41a3,3,0,0,1,1.35-.1c.39,0,.52-.16.49-.52a3.23,3.23,0,0,1,0-.44c0-1.76,0-1.75,1.81-1.87.5,0,.74.07.71.63s0,1.37,0,2.09a9.25,9.25,0,0,0,2.16.09c.42,0,.54.14.56.56.06,1.6.08,1.59-1.49,1.6S615,89.28,615,90.71V93c0,1.85.54,2.25,2.39,1.74a8.07,8.07,0,0,1,.73,2,4.5,4.5,0,0,1-3.66.23,3,3,0,0,1-1.9-3c0-1.27,0-2.54,0-3.8,0-.57-.16-.8-.73-.72-.17,0-.36,0-.54,0-.42,0-.59-.14-.58-.56S610.65,87.89,610.65,87.41Z" transform="translate(-6.94 -6.23)"/><path class="cls-1" d="M557.64,94.31l1.49,1.52c-1.46,2.07-5.61,2-7.41.23a5.82,5.82,0,0,1,0-7.78c1.74-1.69,5.92-1.77,7.15.22-.26.29-.55.56-.79.87a.89.89,0,0,1-1.36.24,2.66,2.66,0,0,0-3.36.55,3.21,3.21,0,0,0-.31,3.65A2.83,2.83,0,0,0,556.33,95,5.16,5.16,0,0,0,557.64,94.31Z" transform="translate(-6.94 -6.23)"/><path class="cls-1" d="M635.1,98.71l2.13-5.4c1.39-3.53,2.77-7,4.17-10.58.41-1,.12-.84,1.29-.87.44,0,.87,0,1.31,0a1.55,1.55,0,0,1,.21,0c.12.32-.09.56-.19.82q-3,7.6-6,15.21c-.33.83-.34.83-1.23.84h-1.3A3.36,3.36,0,0,1,635.1,98.71Z" transform="translate(-6.94 -6.23)"/><path class="cls-1" d="M634,90.23c0,2.06,0,4.12,0,6.18,0,.49-.09.75-.64.69s-1.28.22-1.68-.12-.14-1.09-.15-1.65c0-3.79,0-7.58,0-11.38,0-.82,0-.78.75-.79,1.72,0,1.72,0,1.72,1.65Z" transform="translate(-6.94 -6.23)"/><path class="cls-1" d="M499.3,87.61l-3,3.28,2.8,3-1.61,1.53-.69-.64c-1.1-1.1-2.21-2.2-3.3-3.3-.65-.65-.65-.66-.05-1.27,1.22-1.23,2.46-2.45,3.68-3.69.33-.34.58-.46,1,0A13.74,13.74,0,0,0,499.3,87.61Z" transform="translate(-6.94 -6.23)"/><path class="cls-1" d="M646.8,95.61,645.12,94l3.06-3.14-3.08-3.1a13.15,13.15,0,0,1,1.7-1.62c1.19,1.18,2.36,2.36,3.53,3.53s1.21,1.2,0,2.42Z" transform="translate(-6.94 -6.23)"/><path class="cls-1" d="M560.39,92.19c0-1.38,0-2.75,0-4.13,0-.82,0-.84.87-.84,1.92,0,1.61-.18,1.62,1.61,0,2.42,0,4.85,0,7.27,0,1,0,1-.92,1-1.82,0-1.55.25-1.57-1.52C560.38,94.43,560.39,93.31,560.39,92.19Z" transform="translate(-6.94 -6.23)"/><path class="cls-1" d="M591.16,92.18c0-1.41,0-2.82,0-4.23,0-.79,0-.82.76-.81,2.07,0,1.7-.3,1.72,1.69,0,2.49,0,5,0,7.49,0,.76.06.76-.76.77-1.73,0-1.73,0-1.73-1.65Z" transform="translate(-6.94 -6.23)"/><path class="cls-1" d="M609.3,92.17c0,1.37,0,2.75,0,4.12,0,.84,0,.83-.73.79-.57,0-1.31.28-1.65-.15s-.1-1-.1-1.57q0-3.69,0-7.38c0-.82,0-.85.83-.84,1.93,0,1.62-.28,1.65,1.55C609.31,89.85,609.3,91,609.3,92.17Z" transform="translate(-6.94 -6.23)"/><path class="cls-1" d="M593.86,84.47a1.4,1.4,0,0,1-1.4,1.47,1.48,1.48,0,1,1,0-3A1.41,1.41,0,0,1,593.86,84.47Z" transform="translate(-6.94 -6.23)"/><path class="cls-1" d="M609.51,84.42A1.43,1.43,0,0,1,608.05,86a1.48,1.48,0,0,1,0-3A1.43,1.43,0,0,1,609.51,84.42Z" transform="translate(-6.94 -6.23)"/><path class="cls-1" d="M563.09,84.49a1.4,1.4,0,0,1-1.5,1.38,1.31,1.31,0,0,1-1.35-1.49,1.33,1.33,0,0,1,1.4-1.34A1.43,1.43,0,0,1,563.09,84.49Z" transform="translate(-6.94 -6.23)"/><path class="cls-1" d="M539.85,59.25a16.76,16.76,0,0,0,4.45-.44,13.24,13.24,0,0,0,9.49-7.23,14.91,14.91,0,0,0,1.32-9,14.11,14.11,0,0,0-8-11.14A15.92,15.92,0,0,0,540,29.89H519.73c-1.34,0-1.14-.16-1.14,1.16V76.5c0,1-.17,1,1,1h1.85c1,0,.92.1.93-.93v-.54c0-5.15,0-10.29,0-15.44,0-1.29-.13-1.14,1.17-1.14,3.56,0,7.11,0,10.66,0a2.23,2.23,0,0,1,1.86.81q6.74,7.47,13.54,14.87c.73.8,1.29,1.93,2.25,2.29a9.39,9.39,0,0,0,3.23.09,3.74,3.74,0,0,0,1.51-.1ZM523.21,56c-1,0-.88,0-.88-.89V44.56c0-3.43,0-6.87,0-10.31,0-.89,0-.9.88-.9,5.72,0,11.44-.07,17.16,0a10.57,10.57,0,0,1,10.47,8.28,12.9,12.9,0,0,1-.78,8.48,9.46,9.46,0,0,1-6.91,5.39,16.77,16.77,0,0,1-3.87.44Z" transform="translate(-6.94 -6.23)"/><path class="cls-1" d="M511.59,45.58c-2.22-7.23-6.72-12.4-13.94-14.93a27.53,27.53,0,0,0-15.29-.74C475.81,31.37,470.74,35,467.72,41a26.85,26.85,0,0,0,.16,25.63,20.82,20.82,0,0,0,13.41,10.72,27.35,27.35,0,0,0,13.21.4,21.33,21.33,0,0,0,13.4-8.52,26,26,0,0,0,4.82-15.58A27,27,0,0,0,511.59,45.58ZM506,65.51a18.47,18.47,0,0,1-13.28,9A22.89,22.89,0,0,1,482.3,74a17.66,17.66,0,0,1-10.91-8.68A23.44,23.44,0,0,1,470.76,43c2.63-5.52,7.21-8.71,13.2-9.86a23.17,23.17,0,0,1,12.3.76c6.14,2.17,9.94,6.61,11.85,12.74a25.09,25.09,0,0,1,1,7A22.9,22.9,0,0,1,506,65.51Z" transform="translate(-6.94 -6.23)"/><path class="cls-1" d="M596.22,42.91a14.65,14.65,0,0,0-14.91-13q-10.21,0-20.43,0c-.28,0-.58-.1-.84.13V77.52h3.15c.38,0,.63-.07.57-.53,0-.22,0-.44,0-.66V62.2c0-1.07,0-1.07,1.12-1.07h15.43a20.84,20.84,0,0,0,4.1-.36,13.85,13.85,0,0,0,8.71-5.26A16.28,16.28,0,0,0,596.22,42.91Zm-4.45,7.66a10.82,10.82,0,0,1-10.34,7.11c-5.68.15-11.37,0-17,.06-.6,0-.63-.24-.63-.71,0-3.83,0-7.67,0-11.51V34.22c0-.95-.06-.87.88-.87H581c6.94,0,11.23,5,11.66,11.26A13,13,0,0,1,591.77,50.57Z" transform="translate(-6.94 -6.23)"/><path class="cls-1" d="M682.94,22.94a3.41,3.41,0,0,0-1.17-2.36L668.63,7.44c-.15-.15-.3-.31-.46-.45a3.23,3.23,0,0,0-3.85-.23,6.6,6.6,0,0,0-1.05.93l-7.61,7.6c-1.3,1.31-2.6,2.62-3.92,3.91-.37.36-.44.63,0,.95a4.54,4.54,0,0,1,.38.38q8.29,8.29,16.59,16.6a8.15,8.15,0,0,1,.72,1c1.52-1.54,2.81-2.85,4.12-4.16,2.74-2.74,5.47-5.48,8.22-8.21A3.49,3.49,0,0,0,682.94,22.94Zm-20.78,0c-1.15-1.14-2.27-2.26-3.4-3.37-.21-.21-.32-.38-.06-.63l5.87-5.85c1.11,1.13,2.15,2.23,3.24,3.29.4.38.34.59,0,.94C665.91,19.18,664.06,21.06,662.16,23Zm13.54,2.14L670,30.8c-1.16-1.15-2.27-2.28-3.41-3.39-.29-.28-.22-.46,0-.7L672.38,21c1.15,1.15,2.28,2.3,3.42,3.42C676.13,24.71,675.9,24.88,675.7,25.09Z" transform="translate(-6.94 -6.23)"/><path class="cls-1" d="M589.63,89.47c-.33-3.9-2.86-6-5.85-6.35-1.92-.21-3.83-.07-5.75-.12-1,0-1,0-1,.93v6.19c0,2.1,0,4.2,0,6.3,0,.52.13.69.67.68,1.88,0,3.77.07,5.64,0a6.15,6.15,0,0,0,5.71-4A7.55,7.55,0,0,0,589.63,89.47ZM587,90.4c-.18,2.17-1.28,3.62-3.17,4a18.73,18.73,0,0,1-3.67.09c-.44,0-.38-.34-.38-.62v-7.7c0-.28,0-.61.4-.6a19.46,19.46,0,0,1,3.24.08A4.21,4.21,0,0,1,587,90.4Z" transform="translate(-6.94 -6.23)"/><path class="cls-1" d="M603.45,95.65c1.9-1.67,2.49-3.85,1.4-5.77a1.28,1.28,0,0,1,.24-1.84,2.63,2.63,0,0,0,.26-.39,14.94,14.94,0,0,0-1.77-1.46c-.18.22-.32.38-.44.56-.3.46-.58.69-1.23.41a4.5,4.5,0,0,0-2.77-.11,4.88,4.88,0,0,0-3.81,5.61,4.49,4.49,0,0,0,4.67,4.2,4.73,4.73,0,0,1,1.6.29,1.91,1.91,0,0,1,.7,3.06c-1.08,1.21-3.68.94-4.27-.57a1.08,1.08,0,0,0-1.33-.82,4.38,4.38,0,0,0-1.39.11,4.14,4.14,0,0,0,2.6,3.82,6.5,6.5,0,0,0,3.51.4,4.23,4.23,0,0,0,3.73-3.17A3.61,3.61,0,0,0,603.45,95.65Zm-3.1-1a2.57,2.57,0,0,1-2.56-2.76,2.52,2.52,0,0,1,2.62-2.67A2.55,2.55,0,0,1,602.88,92,2.6,2.6,0,0,1,600.35,94.65Z" transform="translate(-6.94 -6.23)"/><path class="cls-1" d="M524.35,95.85c-.1-.06-.3-.08-.22-.29,1.75-1.57,2.37-3.55,1.43-5.41-.48-1-.5-1.63.27-2.34,0,0,0-.13.07-.26l-1.65-1.31a3.29,3.29,0,0,0-.44.51c-.31.53-.62.68-1.3.43a4.93,4.93,0,0,0-3.8.26A4.88,4.88,0,0,0,516,92.86a4.44,4.44,0,0,0,4.31,4,5.66,5.66,0,0,1,1.92.28,1.92,1.92,0,0,1,.72,3.07c-1.1,1.28-3.71,1-4.35-.54a1.13,1.13,0,0,0-1.36-.83c-.21,0-.43,0-.65,0-.68,0-.72.08-.59.78a4.12,4.12,0,0,0,1.63,2.6,6.08,6.08,0,0,0,6.64,0C526.07,100.94,526.76,97.35,524.35,95.85ZM521,94.67a2.62,2.62,0,0,1-2.58-2.76,2.58,2.58,0,1,1,5.16,0A2.61,2.61,0,0,1,521,94.67Z" transform="translate(-6.94 -6.23)"/><path class="cls-1" d="M514.83,96.08c-1.67-3.77-3.43-7.5-5-11.32a2.3,2.3,0,0,0-2.73-1.71,1.39,1.39,0,0,0-1.38.9c-1.43,3.32-2.93,6.62-4.4,9.92-.45,1-.91,2-1.44,3.21.89,0,1.58,0,2.26,0a.79.79,0,0,0,.88-.62c.19-.47.45-.91.62-1.38a.89.89,0,0,1,1-.63c2,0,3.92,0,5.87,0a1,1,0,0,1,1.05.7c.26.63.38,1.45.92,1.8s1.41.08,2.13.12a.69.69,0,0,0,.52-.09A1.65,1.65,0,0,0,514.83,96.08ZM505,92,507.59,86,510.14,92Z" transform="translate(-6.94 -6.23)"/><path class="cls-1" d="M629.64,87.77c0-.36-.06-.72-.5-.61-.64.16-1.45-.51-1.91.4-.05.09,0,.21,0,.32s0,.21-.19.26l-.23-.15a4.82,4.82,0,0,0-7.66,2.43A6.53,6.53,0,0,0,619,93.1a4.38,4.38,0,0,0,2.84,3.9,4.53,4.53,0,0,0,5-.81.23.23,0,0,1,.34,0l.12.94c.64,0,1.25,0,1.86,0,.41,0,.48-.18.48-.53Q629.64,92.17,629.64,87.77Zm-5.4,7.36a2.81,2.81,0,0,1-2.84-3,2.84,2.84,0,1,1,5.68.12A2.78,2.78,0,0,1,624.24,95.13Z" transform="translate(-6.94 -6.23)"/><path class="cls-1" d="M575.11,89.58c0-.58,0-1.16,0-1.74,0-.21,0-.5-.21-.55a5,5,0,0,0-1.84,0c-.52.08-.14.71-.47,1l-.27-.19a4.8,4.8,0,0,0-7.59,2.24,6.42,6.42,0,0,0-.23,2.58,4.55,4.55,0,0,0,3.62,4.34,4.47,4.47,0,0,0,4.54-1.33c.22,1.2.22,1.2,1.22,1.2h.21c1,0,1,0,1-1Zm-5.36,5.56a2.85,2.85,0,0,1-2.88-3,2.91,2.91,0,1,1,5.81,0A2.83,2.83,0,0,1,569.75,95.14Z" transform="translate(-6.94 -6.23)"/><path class="cls-1" d="M535,87.61a5.77,5.77,0,0,0-5.89.3,3.91,3.91,0,0,0-1.37,1.51,5.77,5.77,0,0,0-.46,4.31,4.38,4.38,0,0,0,3,3.26,6.59,6.59,0,0,0,5-.28c1.54-.71,1.56-.92.33-2.06a.64.64,0,0,0-.92-.11,4.16,4.16,0,0,1-2.71.56,2.68,2.68,0,0,1-2.09-1.2c-.35-.56-.24-.79.4-.81,1,0,2.1,0,3.14,0h3.15c.33,0,.63,0,.72-.45A4.93,4.93,0,0,0,535,87.61ZM532.22,91h-2.59a2.73,2.73,0,0,1,2.89-1.91A2.19,2.19,0,0,1,534.81,91Z" transform="translate(-6.94 -6.23)"/></svg>