<svg xmlns="http://www.w3.org/2000/svg" viewBox="0 0 384.08 384.09"><defs><style>.cls-1{fill:#b28532;}</style></defs><title>mision</title><g id="Capa_2" data-name="Capa 2"><g id="Capa_1-2" data-name="Capa 1"><path class="cls-1" d="M210.08,384.09H186.83c-3.34-1.23-6.89-.9-10.33-1.33-39.95-5-74.83-21.11-104.11-48.62C11.84,277.23-3.7,191,32.74,116.27c1-2,.9-3.18-.73-4.78-9.19-9-18.25-18.16-27.34-27.28C-3,76.5-1,67.59,9.23,63.76c12.15-4.55,24.3-9.12,36.49-13.55a6.72,6.72,0,0,0,4.48-4.46c4.43-12.2,9-24.35,13.55-36.5C67.59-1,76.47-3,84.2,4.66c9.13,9.08,18.25,18.16,27.28,27.34,1.58,1.62,2.74,1.75,4.78.77,46-22.26,93.69-26.53,141.86-9.35,67.58,24.11,108.39,72.42,123,142.71,1.41,6.81,2,13.8,3,20.71v23.25c-1,7-1.74,14.07-2.93,21C368.59,305,309.22,365.86,235.61,380.42,227.15,382.09,218.57,382.72,210.08,384.09ZM136.15,92.26c60.84-34.9,131.56-12,164.74,37.65a123.21,123.21,0,0,1-171,171C80.22,267.63,57.41,197.07,92,136.67c-1-.61-1.94-.15-2.86,0-6.15,1.08-12.31,2.09-18.41,3.4-5.75,1.22-10.66.27-14.55-4.39l-4.9-5.86c-1.15,2.48-1.82,3.79-2.38,5.14q-20.37,48.48-8.93,99.83C58.59,318.11,140,373.11,224.22,359.49c91.55-14.81,152.53-102.57,134.15-193.06C337.85,65.41,229.19,8.39,134.58,49c-4.22,1.81-4.46,2.1-.94,5,6.24,5.11,8.14,11.11,6.06,19C138.06,79.11,137.35,85.56,136.15,92.26Zm62.58,5.83A100.81,100.81,0,0,0,138.6,117.9c-2.07,1.57-2.4,2.5-.37,4.47,8.06,7.84,16,15.82,23.86,23.84,1.58,1.61,2.67,1.87,4.73.61,14.68-9,30.51-11.33,47.16-7.17,30.88,7.71,50.61,38.92,44.69,70.4-5.82,30.92-35.22,52.85-66.22,49.38-44.91-5-68.93-53.72-45.61-92.64,1.25-2.1.9-3.17-.66-4.72-8-7.89-16-15.81-23.84-23.87-2-2.09-3-1.6-4.46.45C101.28,161.52,94.75,187,99.4,214.81c8.93,53.44,56.48,89.34,110.17,83.9,56.06-5.68,97.13-58.5,88.82-114.22A100.75,100.75,0,0,0,198.73,98.09Zm-33.91,82.67a38.37,38.37,0,1,0,62.26-8c-11.88-13-33.68-16.71-46.41-7.47,1.14.93,2.27,1.72,3.24,2.68,7.53,7.49,15.07,15,22.52,22.54,3.22,3.27,4.39,7.22,2.88,11.7a10.82,10.82,0,0,1-9,7.56c-4.16.7-7.53-1-10.43-3.91C181.64,197.57,173.34,189.28,164.82,180.76Zm-52.4-84.44c1.6-8.65,3.06-16.61,4.55-24.56a3.69,3.69,0,0,0-1.17-3.66Q98.55,51,81.42,33.69c-1.89-1.92-2.43-1.08-3.12.84-2.07,5.74-4.1,11.5-6.39,17.15C71,54,71.23,55.4,73.05,57.19,85.4,69.35,97.61,81.66,109.87,93.91,110.56,94.6,111.28,95.25,112.42,96.32ZM95.89,112.49c-.24-.57-.27-.84-.43-1Q75.92,91.89,56.37,72.28a3,3,0,0,0-3.64-.74c-6.17,2.36-12.33,4.71-18.55,6.91-2.4.84-1.83,1.61-.47,3Q51,98.57,68.1,115.81A3.73,3.73,0,0,0,71.76,117C79.72,115.5,87.68,114,95.89,112.49Z"/></g></g></svg>