<svg xmlns="http://www.w3.org/2000/svg" viewBox="0 0 270.37 360.2"><defs><style>.cls-1{fill:#fff;}</style></defs><title>monitoreo</title><g id="Capa_2" data-name="Capa 2"><g id="Capa_1-2" data-name="Capa 1"><path class="cls-1" d="M214.39,148.94c-5.95-3.67-10.27-8.55-11.9-15.35-2.79-11.7,2.27-20.45,10.94-27.54a5.92,5.92,0,0,0,2.56-5.22c-.08-23,0-46-.05-69,0-12.24-7.38-19.62-19.6-19.63q-52.5,0-105,0C79.4,12.22,72,19.69,72,31.66q0,78.93,0,157.87a5.78,5.78,0,0,0,2.34,5c26.51,22,41.1,50.32,44.87,84.4.06.49.07,1,.09,1.5.22,4.69-1.88,7.6-5.58,7.74-3.46.13-6-2.58-6.39-6.89a112.71,112.71,0,0,0-30-67.54,84,84,0,0,0-13.66-12.24,8.08,8.08,0,0,1-3.65-7.29c.08-18.13,0-36.25,0-54.38a54.23,54.23,0,0,0-2.11-16.66c-3-9.45-8.72-13.93-18.52-14.79-2.57-.22-3.48.37-3.43,3.13.15,10-.3,20,.14,30,.67,15-1.4,29.57-4.86,44.1-2.6,10.92-5.42,21.82-6.67,33a67.73,67.73,0,0,0,2.81,28.13c4.57,14.52,9.11,29.05,13.76,43.55a10.17,10.17,0,0,1-.54,8.25C31,317.5,21.5,336.5,12,355.48a11.78,11.78,0,0,1-1.07,2c-2,2.58-4.5,3.51-7.57,2.06A5.75,5.75,0,0,1,.45,352a31.24,31.24,0,0,1,1.44-3c8.41-16.86,16.75-33.76,25.32-50.55a11.19,11.19,0,0,0,.83-9.5c-4.28-12.77-8.17-25.68-12.22-38.53-5.4-17.13-4.19-34.21,0-51.38,2.88-11.76,5.19-23.65,7.7-35.49a23.63,23.63,0,0,0,.4-4.83q0-27,0-54c0-5.8,1.58-7.49,7.4-8,11.23-1.07,17.63.5,28.2,7,.75-1.27.37-2.65.37-3.93q0-33.75,0-67.5C60,12.87,72.64.22,91.91.21c34,0,68,.51,102-.2,19.47-.41,34.32,12.53,34.2,31.93,1.38.18,1.83-1.09,2.62-1.74a24.1,24.1,0,0,1,32.15.85,23.73,23.73,0,0,1,2.4,32c-5.1,6.47-10.59,12.64-16,18.86-2.66,3.06-6.31,3.37-8.91,1s-2.69-5.78,0-9c4.74-5.65,9.59-11.2,14.35-16.83,5-5.88,4.75-13.07-.52-17.69s-12.09-3.51-17.65,1.85c-6.62,6.39-9.51,13.43-8.8,22.84.86,11.31.24,22.74.17,34.11,0,2,.22,3,2.7,3.3,18.55,2.1,27.36,22.72,16.31,37.89-3.23,4.43-3.23,4.43.91,8.07a24,24,0,0,1,2.55,33.12c-3.21,4-6.63,7.77-10.13,11.84,9,4.29,14.24,11,14.93,20.91a21.36,21.36,0,0,1-4.3,15.17c-3.94,5-8.22,9.73-12.53,14.42a16.79,16.79,0,0,1-7.94,4.8c-2.13.59-2.54,1.75-2.52,3.76.05,4,.3,8-.46,12-2.75,14.38-14.64,24.6-29.28,24.71-19.63.14-39.25.05-58.88,0-4.64,0-7.4-2.39-7.3-6.15s2.75-5.82,7.25-5.83q28.31,0,56.62,0c12.95,0,20.09-7.22,20.1-20.27a4.7,4.7,0,0,1,0-.75c.68-4.33-.58-6.82-5-9-13.43-6.61-16.76-24.08-7.38-35.85,2.8-3.51,5.79-6.89,8.81-10.22,1.24-1.37,1.25-1.88-.48-2.92-14.84-8.92-17.41-24.94-6.2-38.15C208.49,155.7,211.37,152.42,214.39,148.94Zm29.44,16.45a11.43,11.43,0,0,0-7.07-10.84c-4.67-2.14-9.24-1.54-12.83,2a126,126,0,0,0-11,12.71,11.2,11.2,0,0,0,.18,13.63c3,4.05,8.32,6.34,12.92,4.23,8.48-3.88,13.66-11.19,17.6-19.41A7.37,7.37,0,0,0,243.83,165.39Zm-.59,50a11.77,11.77,0,0,0-7-11.42c-4.68-2.11-9.25-1.6-12.83,2a111.37,111.37,0,0,0-11.23,13c-3,4.09-2.72,8.74.08,13s6.8,5.78,11.67,5.08C230.4,236.09,242.94,221.9,243.24,215.37Zm-3.44-90.26A12.18,12.18,0,0,0,228,113.05c-6.64-.21-14.07,7.25-14.25,14.29a11.85,11.85,0,0,0,11.58,12.18C232.21,139.71,239.72,132.25,239.8,125.11Z"/><path class="cls-1" d="M132.42,360.17c-4.52.09-7.78-4.15-6-8,3.93-8.48,8.19-16.81,12.49-25.12,1.19-2.29,3.57-2.89,6.12-2.87a69.53,69.53,0,0,0,19.62-2.46c8.42-2.4,14.8-7.55,19.6-14.78.89-1.35,1.73-2.75,2.72-4,2.21-2.86,5.51-3.47,8.26-1.64a5.85,5.85,0,0,1,1.66,8.25c-8.1,13.52-19.35,22.71-35.31,25.22a52.41,52.41,0,0,1-9.28,1.14c-3.67-.09-5.52,1.38-6.93,4.69-2.25,5.26-5.06,10.29-7.59,15.44C136.6,358.42,134.86,360,132.42,360.17Z"/><path class="cls-1" d="M143.57,36.21c-5.5,0-11,0-16.5,0-4.41,0-7.09-2.35-7.09-6s2.67-6,7.09-6q16.88-.06,33.74,0c4.41,0,7.1,2.35,7.1,6s-2.7,6-7.09,6C155.07,36.24,149.32,36.21,143.57,36.21Z"/><path class="cls-1" d="M144,252.24c2.12,0,4.26-.14,6.37,0a5.89,5.89,0,0,1,5.56,6,5.83,5.83,0,0,1-5.64,5.89c-4.23.19-8.5.2-12.73,0a5.79,5.79,0,0,1-5.56-5.95,5.89,5.89,0,0,1,5.63-5.9C139.72,252.11,141.85,252.24,144,252.24Z"/></g></g></svg>