<svg xmlns="http://www.w3.org/2000/svg" viewBox="0 0 259.37 166"><defs><style>.cls-1{fill:#242e49;}</style></defs><title>RESPETAR 01</title><g id="Capa_2" data-name="Capa 2"><g id="Capa_1-2" data-name="Capa 1"><path class="cls-1" d="M259.37,85.54c-.92,2.18-2.67,3.29-4.84,4.08-8.07,2.95-16.1,6-24.17,9-1.5.55-2.23,1.16-2.3,3-.46,11.22-10.2,18.67-21.35,16.41-1.45-.3-1.9-.15-2.23,1.48-1.8,8.77-8.29,14.08-17.4,14.3-1.58,0-1.94.56-2.11,2a17.32,17.32,0,0,1-22.53,14.77c-1.7-.5-2.05-.13-2.39,1.49a17.45,17.45,0,0,1-25.69,11.7c-4.73-2.61-9.38-5.34-14-8.09a2.29,2.29,0,0,0-2.91.09c-8.91,6-19.29,3.84-25.28-5.27-.68-1-1.15-1.26-2.39-.82-9.3,3.34-17.34.45-22.29-8-.68-1.17-1.23-1.17-2.35-.82-11,3.38-21.39-3.09-23-14.36-.2-1.41-.63-1.75-2-1.83-12.19-.69-19.61-11.07-16.28-22.82.4-1.4,0-1.9-1.11-2.52q-9.56-5.44-19.07-11c-3.7-2.15-4.39-4-2.91-8q12.66-33.6,25.36-67.19C27.66,9,29.62,8,33.92,9.13c6.52,1.7,13,3.39,19.56,5.17a7.68,7.68,0,0,0,4.43-.05C71.55,10.14,85.28,6.3,98.84,2c9.51-3,18.31-2.52,26.44,3.45,3,2.21,5.65,2.37,8.51,0A23.52,23.52,0,0,1,136.18,4C142.79-.3,149.85-1,157.29,1.22c14.63,4.33,29.27,8.62,43.88,13a10.32,10.32,0,0,0,5.2.19q10.53-2.17,21.07-4.29c4.52-.9,6.24.12,7.8,4.57l23.07,65.6c.27.76.28,1.67,1.06,2.19ZM119.14,13.78c-5-4.14-10.27-4.21-15.93-2.49C88.61,15.73,74,20,59.36,24.4a11.6,11.6,0,0,1-6.9.17C47.11,23,41.71,21.7,36.34,20.23c-1.34-.37-2-.25-2.6,1.27Q22.94,50.39,12,79.22c-.53,1.4-.33,2.09,1,2.81,3.55,1.94,7,4,10.54,6,1.83,1,3.82,3,5.48,2.82,2-.28,2.44-3.31,3.6-5.13A17.49,17.49,0,0,1,60.9,83.63c1.07,1.25,1.47,1.15,2.61.13,10.45-9.3,25.9-4.35,29.09,9.32.33,1.4.83,1.67,2.15,1.69,9.42.1,16.27,5.93,17.76,15.09.23,1.42.64,2,2.19,2a16.53,16.53,0,0,1,13.78,7.24,8.76,8.76,0,0,0,2.85,2.41q14,8.08,28,16.19c1.68,1,3.34,2,5.08,2.83a7,7,0,0,0,7.83-1,7,7,0,0,0,2.46-7.51c-.54-2.38-2.15-3.89-4.22-5.08q-17-9.76-34-19.62c-3-1.77-3.95-4.6-2.46-7.22s4.4-3.26,7.47-1.54c3.46,1.93,6.88,3.94,10.31,5.92q15.57,9,31.12,18c4.51,2.57,9.49,1,11.16-3.48,1.37-3.63,0-7.23-3.8-9.41-8-4.67-16.06-9.29-24.1-13.93-5.11-2.95-10.25-5.86-15.32-8.88-2.8-1.66-3.56-4.65-2-7.15s4.32-3,7.11-1.58c.74.39,1.46.85,2.19,1.27l47.33,27.33a10.71,10.71,0,0,0,4.18,1.7,7.53,7.53,0,0,0,7.84-4.76,7.36,7.36,0,0,0-3.25-9c-6.61-4.07-13.3-8-19.94-12-3.17-1.92-4.08-4.74-2.48-7.41s4.53-3.14,7.74-1.23q8.49,5,16.92,10.16c2.53,1.52,5.2,2.88,7.11,5.21.75.91,1.47.53,2.25.24,6.79-2.53,13.57-5.09,20.37-7.6,1.13-.42,1.54-.84,1.07-2.19Q237.19,51,227.17,22.22c-.42-1.22-.89-1.51-2.18-1.22-4.11.92-8.27,1.63-12.39,2.51-5.36,1.13-10.46,1.89-16.07,0-13.43-4.47-27.13-8.09-40.67-12.25-5.52-1.69-10.53-1.37-15.44,1.86-3.66,2.41-7.57,4.43-11.37,6.62-7.37,4.26-14.77,8.49-22.12,12.8a7.46,7.46,0,0,0-3.27,9.8c1.56,3.43,5.48,5,9.43,3.75a26.33,26.33,0,0,0,3.25-1.37q8.46-4,17.17-7.42a6.9,6.9,0,0,1,6.7.55c6.24,3.87,12.56,7.6,18.82,11.42,3.14,1.92,4.06,4.81,2.45,7.45s-4.53,3.07-7.74,1.15c-5.35-3.21-10.7-6.42-16-9.7a3.48,3.48,0,0,0-3.51-.27c-5.33,2.13-10.49,4.62-15.71,7s-10.81,2.61-16.12-.1A16.62,16.62,0,0,1,92.86,40a16.71,16.71,0,0,1,8.31-15.77C107,20.67,113,17.36,119.14,13.78ZM52.1,124A7.38,7.38,0,0,0,66,127.78q7.79-13.32,15.43-26.7c2.49-4.32,1.47-8.84-2.37-11s-8-.72-10.47,3.52c-5.08,8.74-10.11,17.5-15.17,26.26A7.59,7.59,0,0,0,52.1,124Zm30.83,16.87c2.43,0,4.63-.81,5.87-2.88,4.48-7.52,8.93-15.06,13.11-22.74,1.84-3.37.24-7.5-3-9.39a7.08,7.08,0,0,0-9.63,2.18c-4.5,7.4-8.93,14.87-13,22.54C73.78,135.36,77.58,140.86,82.93,140.88Zm24.38,8a6.88,6.88,0,0,0,6-3.19c2.67-4.39,5.3-8.81,7.67-13.35a7.26,7.26,0,0,0-2.92-9.46,7.14,7.14,0,0,0-9.66,2,134.64,134.64,0,0,0-7.93,13.78C98.1,143.56,102,149,107.31,148.91ZM40.47,114.53a6.46,6.46,0,0,0,5.86-2.9c2.8-4.5,5.51-9.06,7.93-13.77A7.32,7.32,0,0,0,41.7,90.5a141.42,141.42,0,0,0-7.94,13.76A7.21,7.21,0,0,0,40.47,114.53ZM150.36,148.1a7.22,7.22,0,0,0-3.46-5.87c-4.69-2.81-9.46-5.51-14.2-8.24-.53-.3-1.17-1-1.54.21-1.29,4-3.79,7.31-5.75,10.93-.49.89-.62,1.47.39,2,4.7,2.66,9.26,5.56,14.07,8S150.45,153.73,150.36,148.1Z"/><path class="cls-1" d="M176.65,70.91a4.91,4.91,0,0,1-5-5,5.09,5.09,0,0,1,4.93-5.09A5.21,5.21,0,0,1,181.77,66,5.06,5.06,0,0,1,176.65,70.91Z"/></g></g></svg>