<svg xmlns="http://www.w3.org/2000/svg" viewBox="0 0 259.49 259.48"><defs><style>.cls-1{fill:#242e49;}</style></defs><title>ELABORACIÓN  01</title><g id="Capa_2" data-name="Capa 2"><g id="Capa_1-2" data-name="Capa 1"><path class="cls-1" d="M5.66,259.48C1.32,257.42-.14,254,0,249.25c.26-8.34-.39-16.75,2.34-24.83C9.46,203.3,24.08,190.84,46,187.07c14.46-2.48,28.94-4.8,43.43-7.11,1.54-.25,1.87-.9,1.86-2.32-.07-6.25-.08-12.5,0-18.74A3.32,3.32,0,0,0,89.77,156,70.37,70.37,0,0,1,63.28,113,72.41,72.41,0,0,1,61.91,99c0-10.3,0-20.6,0-30.9A68,68,0,0,1,120.27.73C158-4.92,193.94,23,197.12,61.14c1.36,16.28,1.7,32.76-.48,49-2.45,18.28-11.56,33.09-25.83,44.66a6.05,6.05,0,0,0-2.56,5.48c.15,5.57.13,11.14,0,16.71,0,1.94.38,2.7,2.51,3,15.82,2.53,31.7,4.78,47.37,8,21.91,4.54,38,22.67,40.9,44.89a12.38,12.38,0,0,0,.45,1.69v19.26a11.94,11.94,0,0,1-5.57,5.57ZM77.16,81.93c0,7.2-.13,12.69,0,18.17.46,16.74,6.75,30.9,19.5,41.82,12.16,10.42,26.19,15.35,42.24,11.84,24.63-5.4,42.92-27.89,43.45-53.16.22-10.72.1-21.44.06-32.17-.12-27.66-20-49.75-47.47-52.8-26.76-3-52.27,16.24-56.91,42.75C76.58,66.77,77.44,75.22,77.16,81.93Zm52.47,162.31H240.81c.67,0,1.35,0,2,0,1.14.09,1.39-.48,1.44-1.51,1-21.3-13.11-36.81-30.11-40-15.16-2.83-30.44-5.09-45.64-7.7-1.84-.31-2.54.15-3.37,1.81-7.26,14.53-19.12,22.45-35.33,22.43s-28.24-7.91-35.45-22.6c-.81-1.65-1.56-1.92-3.23-1.63-14.14,2.4-28.24,5-42.44,7A38.36,38.36,0,0,0,15.26,241.4c.05,2.35.66,2.9,2.94,2.89Q73.91,244.19,129.63,244.24ZM106.51,165.7c0,4.85,0,9.46,0,14.07,0,2.26-.27,4.53.31,6.79a23.82,23.82,0,0,0,28.69,16.93c9.78-2.35,18.44-12.18,17.6-22.41a106.77,106.77,0,0,1,0-12.9c.09-2.33-.46-2.66-2.61-1.86a59.52,59.52,0,0,1-30.35,3.05A81.41,81.41,0,0,1,106.51,165.7Z"/><path class="cls-1" d="M122.19,92.57c-.42-8.66,3.11-14.27,10.92-17.25a8.84,8.84,0,0,0,5.49-10.45,9.07,9.07,0,0,0-17.9,1.72c-.39,5-3.53,8.15-8,8s-7.42-3.82-7.23-8.91c.43-11.58,9.76-21.51,21.51-22.9a24.32,24.32,0,0,1,12.64,46.38c-1.78.77-2.52,1.62-2.27,3.5a17.22,17.22,0,0,1,0,3.29,7.61,7.61,0,0,1-15.18,0C122.13,94.68,122.19,93.41,122.19,92.57Z"/><path class="cls-1" d="M137.4,117.91a7.61,7.61,0,1,1-15.22.12,7.62,7.62,0,1,1,15.22-.12Z"/></g></g></svg>