<svg xmlns="http://www.w3.org/2000/svg" viewBox="0 0 246.18 228.34"><defs><style>.cls-1{fill:#242e49;}</style></defs><title>PREVENIR 01</title><g id="Capa_2" data-name="Capa 2"><g id="Capa_1-2" data-name="Capa 1"><path class="cls-1" d="M200.75,228.34q-19.75,0-39.52,0c-4.52,0-5.72-1.2-5.72-5.67,0-2.11-.15-4.23,0-6.33s-.42-3-2.83-3c-23.22.1-46.43.06-69.65.06-2.37,0-4.73,0-7.1,0-3.61,0-5.07-1.47-5.07-5.08,0-12.41-.07-24.82,0-37.23,0-2.24-.54-2.79-2.77-2.77q-19.76.17-39.52,0A28.83,28.83,0,0,1,0,138.6a27.92,27.92,0,0,1,3.74-13.27C18.91,99,34,72.68,49.32,46.46c7.58-13,23.22-17.67,37-11.38,1.77.81,2.27.45,3.06-1.2,1.11-2.29.8-4.18-.13-6.42-2.9-7-3.6-6.26,2.37-12.1,1.57-1.54,3.12-3.1,4.66-4.66a4.27,4.27,0,0,1,5.08-1,40.91,40.91,0,0,1,4.22,1.71c2.2,1.21,4.14.82,6.45.05,2.73-.91,3.41-3,4.32-5.13C119,0,119,0,125.74,0c2.28,0,4.56.05,6.84,0a4.51,4.51,0,0,1,4.87,3.2,21.76,21.76,0,0,1,1.25,3c.71,3.75,3.63,4.9,6.67,6,1.2.45,2.15-.1,3.14-.5,9.19-3.75,7.44-3.85,14.36,3,6.3,6.28,6.11,4.93,2.72,13.36a7.34,7.34,0,0,0,3.9,9.64c1.54.67,3.09,1.34,4.65,2,1.8.73,3,2,3,4,0,1.78.91,1.82,2.22,1.81,6.92,0,13.84,0,20.77,0,4.87,0,6,1.13,6,5.92,0,14.78,0,29.55,0,44.33,0,2.07.47,2.7,2.62,2.67,10.72-.11,21.44,0,32.16,0,4,0,5.31,1.33,5.31,5.31q0,13.68,0,27.35c0,4-1.37,5.34-5.31,5.35-10.81,0-21.62.05-32.42,0-1.94,0-2.39.55-2.36,2.41.08,5.6,0,5.6,5.5,5.6,9.71,0,19.42,0,29.13,0,4.19,0,5.46,1.28,5.46,5.41q0,13.56,0,27.11c0,4.14-1.32,5.5-5.43,5.51-10.72,0-21.44.06-32.16,0-2,0-2.54.58-2.5,2.54.1,5.36,0,5.36,5.46,5.36q14.43,0,28.87,0c4.48,0,5.76,1.29,5.77,5.7q0,13.56,0,27.11c0,3.84-1.32,5.21-5.15,5.22Q220.89,228.36,200.75,228.34ZM137.3,149.91c3.8-7.17,3.85-13.93.07-20.6-5.54-9.75-11.09-19.5-16.87-29.11-1.51-2.51-3.44-4.79-4.28-7.63-.8-2.65-2.44-4.07-5-5.1a6.45,6.45,0,0,0-5.51.34c-1.38.61-2.82,1.11-4.22,1.69a4.4,4.4,0,0,1-5.3-1.08,71.49,71.49,0,0,0-5.94-5.87c-3.23-2.62-3.85-5.49-1.75-9.07.63-1.08.91-2.36,1.46-3.5a4.11,4.11,0,0,0,0-3.12c-.94-3.25-2.81-5.4-6.16-6.26a21.14,21.14,0,0,1-3.49-1.46A3.53,3.53,0,0,1,78,56.06a97.71,97.71,0,0,1,.16-13.15c.24-2.12-.32-2.18-1.87-2.31-9.08-.75-15.93,2.82-20.48,10.67C41,76.9,26.5,102.71,11.34,128.13A21.15,21.15,0,0,0,30,160.41c17.55-.48,35.13-.15,52.69-.06,2.11,0,3-.51,3.46-2.68a27.8,27.8,0,0,1,32.13-20.82C126.35,138.36,132.5,142.74,137.3,149.91Zm-20.06,55.42c11.9,0,23.81-.05,35.71,0,2.16,0,2.76-.62,2.6-2.68s-.05-4.39,0-6.59c0-4.58,1.23-5.8,5.9-5.81q15.71,0,31.41,0c5.23,0,5.14,0,5.24-5.34,0-2-.45-2.58-2.49-2.56-11.56.1-23.13.06-34.7,0-4,0-5.36-1.4-5.36-5.33q0-13.55,0-27.1c0-4.36,1.2-5.59,5.54-5.6h31.4c5.6,0,5.51,0,5.62-5.5,0-2-.54-2.52-2.52-2.5-11.57.09-23.13.05-34.7,0-4,0-5.34-1.39-5.34-5.33q0-13.55,0-27.1c0-4.34,1.23-5.58,5.54-5.59,11.57,0,23.14,0,34.7,0,1.71,0,2.32-.38,2.31-2.22-.08-13.5-.06-27,0-40.52,0-1.47-.32-2.11-2-2.09-5.74.08-11.48,0-17.22,0-1.09,0-1.72.22-1.72,1.52a4.39,4.39,0,0,1-3.24,4.34c-1.57.6-3.1,1.31-4.65,2a7.42,7.42,0,0,0-3.78,9.31c3.44,8.69,3.84,7.17-2.78,13.78s-5.16,6.61-14,3c-1-.41-2-1.12-3.13-.67-2.95,1.15-6.18,2-6.84,5.84a20.05,20.05,0,0,1-.94,2.34c-.89,3-2.81,4.5-6,4.14-1.94-.21-2.38.25-1.27,2.11,4.63,7.84,9.27,15.69,13.66,23.67,6.19,11.26,5.3,22.16-2.33,32.48a4.28,4.28,0,0,0-1,3.45c2.65,18.41-14.39,34.64-32.62,31C96.44,189.45,89,182.2,86,170.41c-.4-1.64-1.06-2.28-2.7-2a5.53,5.53,0,0,1-1.77,0c-2.16-.36-2.62.57-2.6,2.63.11,10.56.14,21.11,0,31.66,0,2.39.77,2.71,2.86,2.7C93.6,205.28,105.42,205.33,117.24,205.33ZM99,68.25a17.61,17.61,0,0,1-2.24,6.29c-1.29,2.37.46,3.31,1.65,4.62s2.15,2.29,4.24,1.24,4.36-2.87,6.61-2.07c5.68,2,12.56,2.74,14.12,10.41.55,2.71,2.54,2.3,4.47,2.39s3.42-.22,3.94-2.47c1-4.41,4-6.63,8.16-8.39,4.46-1.91,8.48-2.5,12.64.1,2.51,1.57,3.33-.7,4.74-1.79s1.88-2.24,1-4.07c-1-2-2.81-4.3-2.09-6.36,2-5.67,2.57-12.62,10.24-14.26,2.45-.52,2.71-2.1,2.69-4.26s-.18-3.75-2.66-4.3a10.27,10.27,0,0,1-8.17-8.28,2.11,2.11,0,0,0-.21-.46c-2.29-3.79-2.42-7.6-.06-11.4,1.17-1.88.7-3.16-.83-4.76-1.85-1.93-3.47-2.59-5.82-1.12a15.45,15.45,0,0,1-2.81,1.14c-3,1.13-13.39-2.71-14.93-5.48a8.5,8.5,0,0,1-.43-.92c-.2-.46-.35-1-.59-1.4-1.09-2-1-4.64-4.79-4.72s-4.38,2.12-5.38,4.61c-.55,1.39-.81,3.22-2.25,3.85-5.53,2.43-10.84,6.88-17.38,2.58-2-1.35-3.29-.2-4.66,1.24s-2.68,2.51-1.31,4.68c2.47,3.92,1.88,7.68.16,12-1.79,4.44-4.2,7.49-8.85,8.74-.79.21-1.82.31-2.12,1.49-.91,3.54.12,5.87,3.51,7.2,2.82,1.1,5.37,2.24,6.29,5.59C96.65,62.76,98.39,65.36,99,68.25Zm101.58,60.09c11.72,0,23.45,0,35.18,0,1.89,0,2.42-.47,2.38-2.37-.13-5.82-.09-11.65,0-17.47,0-1.45-.26-2-1.91-2q-35.31.09-70.61,0c-1.54,0-2,.39-2,2,.1,5.81.15,11.64,0,17.46-.06,2.11.7,2.45,2.58,2.43C177.61,128.31,189.08,128.34,200.56,128.34Zm.16,46c11.65,0,23.31,0,35,0,1.82,0,2.49-.37,2.44-2.35-.14-5.74-.11-11.48,0-17.22,0-1.69-.32-2.34-2.19-2.34q-35.07.1-70.16,0c-1.86,0-2.21.66-2.18,2.35.09,5.74.12,11.48,0,17.22-.05,2,.66,2.35,2.46,2.34C177.59,174.3,189.16,174.34,200.72,174.34Zm0,45.89c11.65,0,23.3,0,34.95,0,1.83,0,2.48-.38,2.43-2.35-.14-5.74-.11-11.48,0-17.22,0-1.69-.34-2.34-2.2-2.33q-35.08.09-70.16,0c-1.88,0-2.2.7-2.17,2.36.08,5.48.15,11,0,16.46-.07,2.37.46,3.14,3,3.11C177.94,220.15,189.34,220.23,200.74,220.23Zm-87.61-36a19.83,19.83,0,1,0-19.8-19.81A19.83,19.83,0,0,0,113.13,184.18Z"/><path class="cls-1" d="M86,92.69c-.26,5.22-.43,10.45-.8,15.67a11.22,11.22,0,0,1-10.78,10.72,10.83,10.83,0,0,1-11.21-9.91c-.86-10.67-1.46-21.38-1.36-32.1.06-6.14,6.2-11.16,12.64-11A12.38,12.38,0,0,1,86.54,78c.09,4.89,0,9.78,0,14.67Zm-8.15.15h0c.22-4.64.48-9.27.62-13.91A4.31,4.31,0,0,0,74,74.21c-2.52.09-4.24,2-4.14,4.74.35,9.36.75,18.72,1.15,28.09.09,2,.79,3.85,3.12,3.85s3-1.83,3.06-3.88C77.37,102.29,77.6,97.56,77.81,92.84Z"/><path class="cls-1" d="M85.2,134.33a11.06,11.06,0,0,1-10.94,11.25,11.15,11.15,0,1,1-.2-22.29A11.05,11.05,0,0,1,85.2,134.33Zm-8.09.1c-.18-1.76-1.1-3-3-3a3,3,0,0,0-.14,6C75.85,137.5,76.87,136.39,77.11,134.43Z"/><path class="cls-1" d="M154.17,50a26.66,26.66,0,1,1-25.89-27A26.54,26.54,0,0,1,154.17,50ZM127.54,68.12A18.53,18.53,0,1,0,109,49.66,18.43,18.43,0,0,0,127.54,68.12Z"/><path class="cls-1" d="M200.57,121.44c-7.93,0-15.86,0-23.79,0-3.25,0-5.2-2.14-4.53-4.89.6-2.49,2.51-3.19,4.81-3.19h13.67q16.32,0,32.65,0a13,13,0,0,1,3.25.29,3.63,3.63,0,0,1,2.85,4.19,3.55,3.55,0,0,1-3.36,3.51c-1.92.19-3.87.1-5.81.11Z"/><path class="cls-1" d="M200.84,167.41H177.3c-3.35,0-5.07-1.33-5.14-3.9s1.73-4.2,5.12-4.2q23.67,0,47.35,0c3.91,0,6.12,3.15,4.35,6.1-1,1.65-2.54,2-4.34,2C216.71,167.39,208.78,167.41,200.84,167.41Z"/><path class="cls-1" d="M200.84,213.44c-8,0-16,0-24.05,0-3.72,0-5.82-3.23-4.1-6.1a4.09,4.09,0,0,1,3.83-2q24.31,0,48.61,0c2.68,0,4.32,1.55,4.39,3.88s-1.61,4.16-4.37,4.18C217.05,213.47,208.94,213.43,200.84,213.44Z"/><path class="cls-1" d="M102.77,161.35a5.73,5.73,0,0,1,3.86,2.06c2.47,2.47,2.48,2.45,5-.06,2.86-2.86,5.7-5.74,8.59-8.58,2.09-2.06,4.52-2.24,6.23-.53s1.61,4.1-.49,6.23q-6.75,6.84-13.59,13.58c-2.23,2.19-4.37,2.15-6.62,0-1.94-1.87-3.86-3.77-5.7-5.74a3.79,3.79,0,0,1-.75-4.65A4.14,4.14,0,0,1,102.77,161.35Z"/></g></g></svg>