<svg xmlns="http://www.w3.org/2000/svg" viewBox="0 0 243.36 243.48"><defs><style>.cls-1{fill:#242e49;}</style></defs><title>REDUCCIÓN 01</title><g id="Capa_2" data-name="Capa 2"><g id="Capa_1-2" data-name="Capa 1"><path class="cls-1" d="M52.86,91.88c.66,1.35,1,2.09,1.38,2.82q13.83,26.6,27.62,53.21A3.26,3.26,0,0,0,85.32,150c5.23-.12,10.47-.07,15.7,0,11.62.08,20.63,8.89,20.66,20.18s-9,20.3-20.77,20.33c-19.17,0-38.33.06-57.5,0-2.4,0-2.86.71-2.84,2.94.12,10.46,0,20.93.1,31.4,0,1.78-.48,2.26-2.25,2.24-5.9,0-5.9,0-5.9-5.88,0-9.29-.1-18.58.06-27.86.05-2.43-.75-2.85-2.95-2.84-4.38,0-8.78.47-13.14-.36A20,20,0,0,1,.14,170.8c-.12-17-.26-33.94,0-50.91C.53,99.23,18.24,81.7,38.89,81.08c.34,0,.68,0,1,0a33.08,33.08,0,0,1,17,3.37C71.3,91.31,86,90.59,100.18,83.15A19.73,19.73,0,0,1,109.33,81c8.69-.21,17,1.07,24.58,5.55a42.3,42.3,0,0,1,11.73,10.29c1.05,1.33,1,2-.81,2.12a2.85,2.85,0,0,0-.48.13c-3.86,1.13-7,1-10.32-2.29-5.46-5.4-12.65-7.45-20.36-7.66a26.48,26.48,0,0,0-12.6,2.55C86.21,98.7,71,98.83,55.63,93,54.93,92.69,54.24,92.42,52.86,91.88ZM40.93,150a2.75,2.75,0,0,0-.62-2.08C32.54,132.92,24.72,118,17,103c-1.18-2.31-1.79-1.66-2.87-.09a33.07,33.07,0,0,0-6,19.25q0,23.55,0,47.1c0,8.09,5,13.13,13.09,13.14q17.22,0,34.43,0c.71,0,1.49.27,2.32-.42C55,176.07,51.49,170.36,49,164.24c-2.09-5.07-5-6.79-10.4-6.31-6.33.57-6.32.14-6.1-6.29.05-1.34.43-1.76,1.74-1.71C36.47,150,38.71,150,40.93,150Zm49.68,32.42c-.58-1.18-.93-1.93-1.31-2.66L66.2,135.29q-11.49-22.11-23-44.21c-.55-1.06-1-2-2.53-2a33.45,33.45,0,0,0-17.27,5c-1.1.68-1.3,1.28-.65,2.43,1.29,2.27,2.43,4.63,3.63,6.94l39.92,76.74c.51,1,.75,2.17,2.39,2.15C75.88,182.34,83.05,182.38,90.61,182.38ZM87.2,158.09c4.2,8.07,8.2,15.74,12.17,23.43.58,1.12,1.52.86,2.41.84a12.18,12.18,0,0,0,11.79-11.86,12,12,0,0,0-11.23-12.36C97.46,157.91,92.57,158.09,87.2,158.09Z"/><path class="cls-1" d="M243.28,141.9c-.28,7.85.61,17.5-.45,27.09-3.43,31.29-19,54.76-46.49,69.9C185.21,245,187.94,245,177,239c-27.6-15-43.26-38.45-46.69-69.74-1.31-11.93-.31-24-.48-35.94-.09-6.34,0-12.67,0-19,0-3.24,1.22-4.55,4.47-4.94a141.61,141.61,0,0,0,49.28-15.16,5.8,5.8,0,0,1,5.95,0A141.58,141.58,0,0,0,239,109.4c3,.36,4.23,1.75,4.24,4.89C243.29,122.91,243.28,131.52,243.28,141.9ZM137.9,143.71c.27,7.33-.63,16.3.46,25.21,3.67,30,19.2,51.57,46.25,64.94a3.87,3.87,0,0,0,3.8.06c28.8-14.38,44.68-37.62,46.57-69.73.89-15.05.15-30.2.24-45.31,0-1.62-.66-1.95-2-2.17-3.83-.64-7.65-1.27-11.44-2.1a144.43,144.43,0,0,1-33.48-11.91,3,3,0,0,0-3-.27,146.55,146.55,0,0,1-45.35,14.3c-1.75.25-2.08,1-2.06,2.59C138,126.91,137.9,134.51,137.9,143.71Z"/><path class="cls-1" d="M77,0A40.53,40.53,0,1,1,36.57,40.54,40.55,40.55,0,0,1,77,0ZM77,8.1a32.42,32.42,0,1,0,32.47,32.55A32.52,32.52,0,0,0,77,8.1Z"/><path class="cls-1" d="M77.21,109.43c4,0,4,0,3.94,4.73,0,3.38,0,3.38-5,3.37-3.07,0-3.07,0-3.06-5.11C73.05,109.43,73.05,109.43,77.21,109.43Z"/><path class="cls-1" d="M174.05,190a4,4,0,0,1-3.16-1.34c-7.64-7.63-15.3-15.25-22.9-22.93-1.37-1.39-1.86-.41,2.9-5.21.84-.85,1.44-2.05,3-.5,6.12,6.29,12.41,12.41,18.53,18.7,1.3,1.33,2,1.4,3.31,0,14.08-14.21,28.26-28.32,42.34-42.51,1.36-1.37,2.09-1.52,3.5-.05,3.93,4.11,4,4,0,8l-43.5,43.5C176.93,188.86,175.88,190.15,174.05,190Z"/></g></g></svg>