<svg xmlns="http://www.w3.org/2000/svg" viewBox="0 0 251.29 251.32"><defs><style>.cls-1{fill:#242e49;}</style></defs><title>SALVAGUARDAR 01</title><g id="Capa_2" data-name="Capa 2"><g id="Capa_1-2" data-name="Capa 1"><path class="cls-1" d="M0,178.33V111.2c0-4.65,1.17-5.81,5.83-5.82,2.7,0,5.42-.14,8.1.05,2,.14,2.33-.61,2.32-2.42-.07-14.19,0-28.37,0-42.56,0-7.6,0-15.2,0-22.79,0-3.84,1.37-5.22,5.15-5.23H67.72c3.91,0,5.23,1.37,5.23,5.4,0,21.62,0,43.23,0,64.85,0,2.23.53,2.78,2.76,2.76,14.69-.11,29.39-.08,44.08,0,1.75,0,2.63-.44,3.31-2.18,1.67-4.25,5-6.92,9.25-8.4,2.71-.94,5.47-1.73,8.15-2.74a8.9,8.9,0,0,0,5.48-10c-.25-1.38-1.17-1-1.9-1-6.92,0-13.85,0-20.77,0-7.09,0-14.18,0-21.28,0-5.39,0-8.74-3.32-8.75-8.66q0-31.92,0-63.83c0-5.17,3.42-8.55,8.6-8.56H214.29c5.22,0,8.61,3.36,8.62,8.54q0,31.92,0,63.83c0,5.35-3.36,8.67-8.74,8.68-13.76,0-27.53.07-41.29-.06-2.34,0-2.79.69-2.69,2.82.2,4.33,1.94,7,6,8.44,3.4,1.26,7,2,10.21,3.71,1.15.59,1.51-.28,2.07-.83a20.06,20.06,0,0,1,13.33-5.93c3.26-.16,4.89,1.39,4.94,4.64s.12,6.25,0,9.37c-.1,1.83.55,2.21,2.27,2.2,12.25-.07,24.49,0,36.73,0,4.35,0,5.62,1.24,5.62,5.52V245.67c0,4.34-1.26,5.61-5.52,5.62s-8.78,0-13.17,0-5.62-1.23-5.63-5.77q0-52.31.07-104.61c0-2.53-.55-3.3-3.14-3.17-4.81.24-9.63.18-14.44,0-2.14-.07-2.84.37-2.82,2.71.13,14.86.07,29.72.07,44.58,0,8.62-4.9,13.54-13.46,13.55-7,0-14,0-21,0-1.48,0-2,.3-2,1.93a38,38,0,0,0,8.51,24.86,3.85,3.85,0,0,0,3.39,1.66c2.44,0,4.89-.29,7.31.35a12.21,12.21,0,0,1,9.16,12.89,12,12,0,0,1-11.64,11q-28.87.16-57.75,0A12,12,0,0,1,117.55,239a12.2,12.2,0,0,1,11.72-12,4.91,4.91,0,0,1,1.27,0c4.82,1.11,7.37-1.63,9.61-5.34A39.65,39.65,0,0,0,146,200.47c0-1.69-.65-1.9-2.08-1.89-9.71,0-19.42,0-29.13,0-4,0-5.34-1.34-5.3-5.31,0-3.29-.32-6.6.24-9.87A20.15,20.15,0,0,1,130,166.19q24.83-.08,49.65.05c2.22,0,2.81-.51,2.77-2.76-.15-7.85-.1-15.71,0-23.56,0-1.59-.34-2.15-2.06-2.15q-44.58.07-89.16,0c-2.37,0-2,1.26-2,2.68q0,52.31,0,104.61c0,5.21-1,6.25-6.17,6.25-4.3,0-8.61,0-12.92,0-3.83,0-5.22-1.37-5.22-5.15,0-8.36-.06-16.72,0-25.07,0-1.79-.47-2.25-2.24-2.24q-18,.12-36,0c-1.84,0-2.44.38-2.41,2.33.12,8.28.06,16.55.05,24.83,0,4-1.36,5.29-5.34,5.3q-6.84,0-13.68,0c-4,0-5.29-1.35-5.3-5.33ZM158.05,8.11c-18,0-36,.05-53.93-.06-2.4,0-2.86.71-2.84,2.93q.14,21.66,0,43.3c0,2,.48,2.52,2.49,2.51q54.31-.09,108.63,0c2.08,0,2.47-.64,2.46-2.55q-.12-21.78,0-43.55c0-2.1-.5-2.65-2.62-2.64C194.18,8.15,176.12,8.11,158.05,8.11ZM95.37,113.49H51.82c-13.76,0-27.52.05-41.28,0-2,0-2.56.57-2.48,2.52a96.65,96.65,0,0,1,0,10.63c-.17,2.53.53,3.18,3.12,3.18q84.07-.14,168.16-.07a8.82,8.82,0,0,1,1.26,0c1.47.21,1.86-.44,1.83-1.85-.09-3.88-.17-7.77,0-11.64.11-2.21-.47-2.8-2.74-2.79C151.59,113.52,123.48,113.49,95.37,113.49Zm61.39,77h36.46c4,0,5.36-1.34,5.38-5.26,0-2.79-.14-5.58.05-8.36.14-2.09-.48-2.65-2.61-2.65-21.61.09-43.21.05-64.82.06-8.91,0-13.65,4.88-13.74,13.82,0,2.1.7,2.44,2.57,2.43C132.29,190.46,144.52,190.5,156.76,190.5ZM44.58,137.81c-6,0-12,.05-18,0-1.64,0-2.36.23-2.34,2.14.11,9.45.08,18.9,0,28.35,0,1.51.34,2,1.95,2q18.34-.11,36.7,0c1.61,0,2-.51,1.94-2q-.09-14.16,0-28.34c0-1.62-.37-2.17-2.07-2.14C56.73,137.87,50.66,137.81,44.58,137.81Zm.08,40.53c-6.16,0-12.32,0-18.48,0-1.37,0-1.9.3-1.89,1.8q.09,14.43,0,28.86c0,1.46.46,1.83,1.87,1.82q18.48-.07,37,0c1.54,0,1.77-.61,1.76-1.94,0-9.53-.06-19.06,0-28.6,0-1.59-.48-2-2-1.95C56.81,178.39,50.74,178.34,44.66,178.34ZM158.05,64.85h-51.4c-5.33,0-5.21,0-5.38,5.4C101.2,72.5,101.81,73,104,73q52.66-.11,105.33-.05c5.48,0,5.37,0,5.51-5.53,0-2.12-.53-2.64-2.63-2.63C194.17,64.89,176.11,64.85,158.05,64.85ZM16.21,190.62V143c0-5.22,0-5.1-5.25-5.27-2.28-.07-2.92.53-2.91,2.87q.12,48.49.06,97c0,5.63,0,5.54,5.63,5.65,2,0,2.53-.46,2.52-2.49C16.18,224,16.21,207.33,16.21,190.62ZM73,190.51v47.35c0,5.34,0,5.22,5.39,5.39,2.23.07,2.77-.52,2.77-2.76q-.12-48.62-.06-97.23c0-5.47,0-5.37-5.52-5.51-2.11-.05-2.65.51-2.64,2.63C73,157.09,73,173.8,73,190.51Zm170.23.25v-47.6c0-5.36,0-5.25-5.38-5.41-2.18-.06-2.8.45-2.79,2.74q.14,48.62.06,97.22c0,5.5,0,5.39,5.5,5.53,2.08,0,2.67-.46,2.66-2.6C243.14,224,243.19,207.38,243.19,190.76ZM44.6,56.75c6.07,0,12.15,0,18.22,0,1.42,0,2.12-.19,2.07-1.88-.13-4.22-.09-8.44,0-12.66,0-1.31-.37-1.73-1.71-1.72q-18.6.06-37.2,0c-1.38,0-1.69.49-1.67,1.76.06,4.13.09,8.26,0,12.4,0,1.64.43,2.14,2.1,2.11C32.45,56.69,38.53,56.75,44.6,56.75Zm0,24.31c6.07,0,12.15,0,18.22,0,1.46,0,2.09-.26,2-1.91q-.18-6.2,0-12.4c0-1.6-.48-2-2-2q-18.35.09-36.7,0c-1.66,0-1.93.61-1.9,2.06.08,4,.11,8.1,0,12.14-.05,1.69.5,2.11,2.13,2.09C32.48,81,38.56,81.06,44.63,81.06Zm-.05,8.11c-6.08,0-12.15,0-18.22,0-1.41,0-2.13.17-2.08,1.87.13,4.22.08,8.44,0,12.65,0,1.31.35,1.74,1.7,1.74q18.6-.07,37.2,0c1.37,0,1.7-.47,1.68-1.75-.06-4.13-.09-8.27,0-12.4,0-1.63-.41-2.16-2.09-2.13C56.72,89.23,50.65,89.17,44.58,89.17Zm180.36,24.32c-5.4,0-10.8,0-16.2,0-1.41,0-2.12.18-2.07,1.88.12,4.22.08,8.44,0,12.65,0,1.31.35,1.74,1.7,1.74q16.58-.07,33.15,0c1.38,0,1.7-.48,1.68-1.76-.07-4.13-.1-8.26,0-12.39,0-1.64-.41-2.16-2.09-2.13C235.73,113.56,230.34,113.49,224.94,113.49ZM198.6,132.16c0-10.64,0-21.27,0-31.91,0-2.21-.65-2.25-2.23-1.22a12.35,12.35,0,0,0-5.92,11.06q0,25.22,0,50.41c0,5.74,0,5.64,5.81,5.73,1.95,0,2.35-.56,2.34-2.41C198.56,153.27,198.6,142.72,198.6,132.16ZM158.07,235.08H130.21a4.09,4.09,0,0,0-4.32,2.82,3.77,3.77,0,0,0,1.25,4.32c1.1,1,2.46,1,3.83,1q19,0,38,0c5.66,0,11.31,0,17,0,2.94,0,4.85-2,4.52-4.54-.3-2.23-2-3.53-4.77-3.54Q171.88,235.06,158.07,235.08Zm-26.82-129.7c17,0,33.6,0,50.22,0,.87,0,1.43-.16,1.64-1.11.25-1.14-.62-1.28-1.28-1.51-2.94-1-5.93-1.93-8.84-3-6.32-2.41-9.88-7-10.83-13.75-.23-1.61.81-3.84-.61-4.7-1.24-.76-3.3-.06-5-.26-2.15-.25-2.64.54-2.63,2.63.07,8.13-4,13.76-11.71,16.4-2.31.79-4.64,1.53-6.95,2.32A6.44,6.44,0,0,0,131.25,105.38Zm38,121.54c.06-.32.12-.42.09-.47-.33-.6-.65-1.18-1-1.76A45.13,45.13,0,0,1,162.19,204c-.29-5.48-.23-5.39-5.86-5.49-1.93,0-2.39.53-2.36,2.4a44.73,44.73,0,0,1-6.69,24.55c-.25.41-.66.79-.34,1.42Z"/><path class="cls-1" d="M44.46,154c-2.11,0-4.23-.12-6.32,0s-2-1.23-1.6-2.24c.71-1.93-2.07-5.27,1.5-5.76,4.29-.6,8.74-.11,13.12-.17,1.24,0,1.5.46,1.56,1.61.33,6.52.36,6.52-6,6.52Z"/><path class="cls-1" d="M44.59,186.45c2.11,0,4.22.08,6.32,0,1.48-.09,1.79.49,1.81,1.87.13,6.26.18,6.26-6,6.26-2.7,0-5.41-.19-8.08.06s-2.6-1.4-2.08-2.76c.69-1.79-2.35-5,2-5.38C40.54,186.32,42.57,186.45,44.59,186.45Z"/></g></g></svg>