<svg xmlns="http://www.w3.org/2000/svg" viewBox="0 0 347.91 328.07"><defs><style>.cls-1{fill:#fff;}</style></defs><title>patrullaje</title><g id="Capa_2" data-name="Capa 2"><g id="Capa_1-2" data-name="Capa 1"><path class="cls-1" d="M50.68,144c1.27-6.19,2.36-11.44,3.43-16.7a40.5,40.5,0,0,1,39.2-32.5c5-.07,10-.12,15,0,2.16.06,2.81-.68,2.72-2.78-.15-3.37-.09-6.75,0-10.12.08-4.54,2.14-6.7,6.65-6.75,7.75-.09,15.5-.14,23.24,0,2.81.06,3.93-.52,3.87-3.66-.17-8.22,1.23-9.43,9.61-9.43h40.12c7.27,0,9,1.59,8.79,8.76-.11,3.4.81,4.49,4.31,4.36,7.37-.28,14.75-.12,22.12-.07,5.25,0,7.27,2.07,7.33,7.22,0,3.25.14,6.51,0,9.75-.12,2.22.75,2.67,2.8,2.7,6.86.1,13.75-.61,20.58.5A40.21,40.21,0,0,1,294,127.71c1,5,2.11,10,3.4,16.11,1.69-5.7,5.51-6,9.73-5.94,10.87.13,21.74,0,32.62.05,6.19,0,8.12,1.93,8.14,8q0,10.32,0,20.63c0,5.15-1.53,7-6.53,7.87-10.47,1.74-21,3.34-31.43,5.08-1.67.27-4.27-.45-4.6,1.88s.58,4.31,3.1,5.77c12.43,7.2,20.14,18.05,22,32.24,1.78,13.74,2.9,27.6,3.43,41.44.57,15,.16,30,.12,45,0,13.91-8.26,22.09-22.17,22.1-10.63,0-21.25,0-31.87,0-12.65-.06-21.12-8.57-21.21-21.2a10.61,10.61,0,0,1,0-1.87c.49-3-.55-4.07-3.79-4-11.24.21-22.49.09-33.74.09q-63.93,0-127.86-.08c-3.32,0-4.38.79-4.07,4.12,1.27,13.37-8.8,23.73-23.17,23.05-10.22-.49-20.49-.06-30.74-.1-12.72-.06-21.24-8.4-21.27-21.1-.05-17.12-.31-34.25.32-51.35a359.25,359.25,0,0,1,3.55-38c2-13.49,9.7-23.56,21.33-30.63a8.07,8.07,0,0,0,2.43-1.67c2-2.78,1-5.27-2.45-5.81Q23,176.73,6.72,174.2c-4.91-.77-6.68-2.75-6.7-7.76,0-7.12,0-14.24,0-21.37,0-4.93,2.11-7.09,7.08-7.12,12-.06,24,0,36,0C46.86,137.88,49.28,139.46,50.68,144ZM174.11,181.5H288.46c4.48,0,4.46,0,3.58-4.22q-5-23.81-10-47.63a27.78,27.78,0,0,0-23.8-22.27c-8.57-1.07-17.22-.4-25.83-.41q-68.8-.09-137.59,0c-14.89,0-25.92,9-28.93,23.26Q61,153.47,56.13,176.74c-1,4.76-1,4.76,4,4.76ZM78.2,257.43c7.87-.34,15.6.38,23.32-.57,9.67-1.2,18.16-10.35,18.49-20.13.29-8.74-5-13.89-16.27-16.07Q84.11,216.87,64.49,213c-12.34-2.47-23.27,4.88-25.4,17.17-2.32,13.43,5.14,24.85,17.58,26.77C63.86,258,71.12,257,78.2,257.43Zm193.43-.51v-.1c7.38,0,14.78.43,22.11-.1,12.38-.88,20.75-12.56,19.05-25.81-1.48-11.48-12.81-20.43-24.17-18.4-15.36,2.73-30.64,5.89-45.89,9.17-8,1.72-12.77,9.75-11.25,17.79,1.77,9.41,10.29,17,19.91,17.4C258.13,257.14,264.89,256.92,271.63,256.92Zm-98,32.18h32.21c8.33,0,8.19,0,8.36-8.44.07-3.21-.69-4.26-4.11-4.24-22.47.16-44.94.08-67.41.08-9,0-8.87,0-8.92,9.08,0,2.73.67,3.63,3.54,3.59C149.45,289,161.56,289.1,173.67,289.1Zm-40-194.35c2.74,0,5.49-.19,8.21.06,2.9.26,3-1.38,2.8-3.41-.2-1.83,1.1-4.46-2.67-4.33-5.47.19-11,.21-16.43,0-3.17-.13-2.68,1.88-2.53,3.64s-1.24,4.31,2.4,4.08C128.16,94.62,130.91,94.75,133.65,94.75Zm80.94-7.63c-2.74,0-5.5.21-8.22-.05-3.48-.34-3,1.89-3,4S203,95,206.22,94.82c5.22-.26,10.46-.23,15.68,0,2.78.12,3.15-1,3.25-3.41.13-3.27-.62-4.84-4.22-4.35A46.22,46.22,0,0,1,214.59,87.12Z"/><path class="cls-1" d="M180,16.1c0,3.25.09,6.5,0,9.74-.13,3.79-2.64,6.3-6,6.26s-5.85-2.57-5.9-6.4q-.13-9.73,0-19.48c.06-3.82,2.57-6.26,6-6.22s5.8,2.49,5.91,6.36C180.09,9.6,180,12.85,180,16.1Z"/><path class="cls-1" d="M85.59,35.45a6.33,6.33,0,0,1,5,2.24c4.43,4.37,8.91,8.69,13.28,13.12,3.15,3.18,3.3,6.61.63,9.2s-6,2.32-9-.55C90.85,55,86.27,50.39,81.7,45.8A5.7,5.7,0,0,1,80.32,39,5.76,5.76,0,0,1,85.59,35.45Z"/><path class="cls-1" d="M268.23,41.37A6.9,6.9,0,0,1,266.12,46c-4.5,4.48-8.94,9-13.5,13.45-3,2.89-6.41,3-8.94.52s-2.42-6,.45-9c4.53-4.62,9.14-9.17,13.76-13.71a5.72,5.72,0,0,1,6.85-1.3A6,6,0,0,1,268.23,41.37Z"/></g></g></svg>