<svg xmlns="http://www.w3.org/2000/svg" viewBox="0 0 252.14 307.46"><defs><style>.cls-1{fill:#b28532;}</style></defs><title>personal</title><g id="Capa_2" data-name="Capa 2"><g id="Capa_1-2" data-name="Capa 1"><path class="cls-1" d="M196.91,307.35c-17.25,0-34.5-.05-51.74,0-2.5,0-3.42-.57-3.58-3.24-1.11-18.33-2.5-36.65-3.54-55-.21-3.79-1.23-5.24-5.2-4.92a104.11,104.11,0,0,1-14.24,0c-3-.18-4.09.72-4.28,3.8-1,16-2.15,31.91-3.26,47.87a71.33,71.33,0,0,0-.52,7.84c.12,3.08-1.22,3.62-4,3.61-30-.09-60,0-90,0-4.5,0-9-.09-13.5,0C.9,307.45,0,307,0,304.52c.1-20.25-.15-40.5.16-60.74.17-10.61,5-19.23,13.68-25.44a201.23,201.23,0,0,1,59.67-29c9.68-2.91,9.9-2.76,12.7,6.82,2.28,7.78,4.53,15.57,6.85,23.34,1.13,3.8,2.19,4.09,5,1.32,8.55-8.42,17.14-16.81,25.53-25.38,2-2.06,3-1.89,5,.06,8.32,8.47,16.81,16.77,25.26,25.11,3.19,3.15,4,3,5.43-1.33,3.14-9.34,6.43-18.63,9.29-28.06.93-3.05,2.34-3.61,5.08-3,10.05,2.16,19.64,5.69,29.12,9.57a146.89,146.89,0,0,1,35.91,20.66c9,7.17,13.45,16.43,13.41,28-.07,18.75-.11,37.5.07,56.25,0,3.61-.63,4.86-4.61,4.8C230.66,307.2,213.78,307.35,196.91,307.35Zm-17.32-59.17c0,9.11,7.44,18,15.46,19.47a3.73,3.73,0,0,0,1.82-.09c10.75-3.82,18-12.84,14.24-24.14-.81-2.44-1-5,.44-7.23,1.86-2.84-.9-3.66-2.09-5.09-1-1.24-2-2.78-4.24-1.28-2.88,1.88-5.78.34-8.86-.33-2.76-.61-5.82,2.54-9.14.83-.22-.11-.51-.13-.68-.29-2.18-1.94-3.3,0-4.5,1.29s-3.69,2.39-1.79,5.11c1.45,2.09,1,4.53.42,6.88C180.2,245.24,179.81,247.18,179.59,248.18ZM126,236.38c3.11,0,6.23-.06,9.34,0,1.67,0,2.6-.32,3.17-2.19,3.94-12.86,4-12.84-5.43-22.28l-.27-.26c-2.15-2.07-4.15-5.58-6.49-5.83-2.76-.29-4.6,3.64-6.81,5.74-3.07,2.91-7.52,5.6-8.48,9.16s1.47,8.34,2.43,12.57c0,.25.16.48.19.72.22,1.79,1.16,2.47,3,2.39C119.73,236.28,122.85,236.38,126,236.38Z"/><path class="cls-1" d="M126.94,101.69c-23.21-.21-43.75-7.94-62.14-21.79A16.64,16.64,0,0,1,58,65.23a8.44,8.44,0,0,0-3-7.14c-4.12-3.82-7.94-8-12-11.87C40,43.35,38.78,40,39.9,36S44,29.93,48,29.18C73.89,24.36,97.85,14.26,121,2c4.92-2.61,9.18-2.66,14.1-.05C157.94,14.06,181.63,24.15,207.26,29c4.18.8,7.55,2.82,8.74,7.19s-.52,7.72-3.67,10.72c-4.25,4-8.28,8.31-12.5,12.39a5.51,5.51,0,0,0-1.89,4.59c.36,7.86-3.25,13.33-9.73,17.71-15,10.14-31.13,17.35-49.32,19.3C134.93,101.34,130.93,101.44,126.94,101.69ZM113.5,45.09c0,8,6.82,16.15,13.72,17.14a3.76,3.76,0,0,0,1.83-.15c8.49-3.15,15.55-10.37,12.44-21.09-.65-2.24-1-4.47.33-6.49s-.3-2.94-1.4-3.94-1.77-2.19-4.23-1.73c-5,.92-10.19.49-15.31.6a1.79,1.79,0,0,1-1-.38c-1.42-1.17-2.36-.46-3.5.57-2,1.83-3.89,3.37-1.75,6.47.87,1.25.29,3.14-.15,4.74S113.69,44.22,113.5,45.09Z"/><path class="cls-1" d="M187.88,96c6.37,30.9-14.6,63.24-45.86,71.27a63.11,63.11,0,0,1-78.88-64.93c.5-8.66.4-8.49,7.71-4.43q56.67,31.42,113.47.13C185.4,97.39,186.46,96.76,187.88,96Z"/></g></g></svg>