<svg xmlns="http://www.w3.org/2000/svg" viewBox="0 0 272.86 272.55"><defs><style>.cls-1{fill:#fff;}</style></defs><title>supervision</title><g id="Capa_2" data-name="Capa 2"><g id="Capa_1-2" data-name="Capa 1"><path class="cls-1" d="M113.66,236.16c0,11.25-.06,22.51.06,33.76,0,2.2-.64,2.74-2.71,2.62-5.27-.33-10.61.54-15.84-.6A22.35,22.35,0,0,1,77.4,250.49c-.15-15.79-.06-31.59,0-47.39a35.41,35.41,0,0,1,1.73-10.3c.37-1.19.54-2-1.13-2-13.43.07-26.9-.86-40.27.35-15.24,1.39-26.22,12.21-28.08,27.4a92.64,92.64,0,0,0,.23,26.86c1.46,8.5,7,14,15.08,16.94,2.21.82,2.48.08,2.47-1.92-.06-14.57,0-29.13-.08-43.7,0-2.46.44-3.44,3.18-3.33,5.95.22,5.95.06,5.95,5.9,0,13.62.1,27.24-.08,40.86,0,2.85.84,3.36,3.47,3.32,11.54-.15,23.08,0,34.62-.1,2.06,0,3,.29,2.93,2.72-.15,6.4,0,6.4-6.56,6.4q-19,0-38,0C13.9,272.46.12,258.67.18,239.67c0-7.55-.63-15.15.43-22.67,2.76-19.65,18.76-34.55,38.55-35.15,14.35-.43,28.74-.69,43.1.31A2.76,2.76,0,0,0,85,180.78c8.45-11.63,20-17.22,34.28-17.25q17,0,34.05,0c14.29,0,25.85,5.59,34.31,17.21,1,1.32,1.92,1.43,3.33,1.37,15.21-.69,30.47-1.21,45.63.1,19.45,1.69,35,18.35,35.82,37.85.37,8.67.87,17.42-.42,26.06a31.31,31.31,0,0,1-30.1,26.32c-14.76.18-29.51,0-44.27.09-1.62,0-2.29-.29-2.31-2.14-.09-7-.17-7,6.85-7,10.4,0,20.81-.08,31.21.06,2.43,0,2.92-.71,2.91-3-.11-14.75,0-29.51-.11-44.26,0-2.29.67-2.83,2.85-2.79,6.28.11,6.29,0,6.29,6.4,0,13.52.06,27.05-.06,40.57,0,2.51.73,2.64,2.73,1.88,8.75-3.3,14.31-9.53,15.18-18.77a107.77,107.77,0,0,0-.2-25.76,31.27,31.27,0,0,0-30.49-26.9c-12.29-.25-24.59,0-36.89-.1-2.12,0-2.58.56-1.9,2.6a36.93,36.93,0,0,1,1.68,11.73c0,14.66,0,29.32,0,44,0,13.68-9.73,23.34-23.44,23.44-3.59,0-7.19-.05-10.78,0-1.54,0-2.13-.35-2.13-2q.08-34.33,0-68.67c0-1.39.32-2,1.87-2,7.24-.34,7.23-.4,7.23,6.85,0,17.88,0,35.76-.05,53.63,0,2.33.33,3.25,3,3.21,9.8-.18,15.2-5.49,15.2-15.38q0-21.27,0-42.56c0-19.11-13.8-32.91-32.92-32.95q-17,0-34,0c-19.16.07-32.87,13.79-32.91,32.94q0,21.42,0,42.85c0,10,6.63,15.93,16.62,15.06,2.13-.18,1.52-1.52,1.52-2.59q0-17.73,0-35.46c0-7.67.06-15.33,0-23,0-1.86.33-2.63,2.44-2.63,6.68,0,6.68-.07,6.68,6.57Z"/><path class="cls-1" d="M13.77,122.64c0-4.35,0-8.7,0-13,.07-8.29,5.8-14.06,14.12-14.17q7.38-.09,14.76,0c1.63,0,2.51-.35,3-2.08a70.47,70.47,0,0,1,5.9-14.09,2.36,2.36,0,0,0-.49-3.39c-3.56-3.39-7-6.9-10.46-10.41-6.15-6.26-6.19-14.15-.05-20.36q9-9.09,18.06-18.06c6.25-6.17,14.36-6.12,20.67.08,3.44,3.38,6.89,6.76,10.21,10.25a2.39,2.39,0,0,0,3.41.55,75.23,75.23,0,0,1,14.35-6,2.24,2.24,0,0,0,1.87-2.6q-.11-7.66,0-15.32C109.22,6,114.94.19,122.92.09q13.47-.18,27,0c8,.11,13.64,6,13.72,14,.05,5,.06,10,0,15,0,1.52.28,2.36,1.93,2.85a74,74,0,0,1,14.62,6.11c1.25.7,2,.43,2.92-.52,3.43-3.52,6.92-7,10.42-10.44,6.25-6.17,14.39-6.21,20.67,0q9.11,9,18.06,18.06c6,6.13,6.05,14,.06,20.17-3.43,3.53-6.9,7-10.45,10.42-1.18,1.14-1.52,2-.63,3.6a71.57,71.57,0,0,1,5.9,14.08,2.41,2.41,0,0,0,2.78,2c4.82-.11,9.65-.06,14.47,0,8.89,0,14.6,5.7,14.63,14.51s.06,17.6,0,26.4a13.65,13.65,0,0,1-11,13.38c-1.78.35-3,.22-2.67-2.09a20.55,20.55,0,0,0,0-3.68c-.08-1.75-.16-3.19,2.17-3.8,1.76-.46,2.38-2.29,2.38-4.14,0-8.89.05-17.78,0-26.67,0-3.16-1.93-4.8-5.39-4.82-6.91-.05-13.82-.1-20.72,0-2.12,0-3.14-.42-3.67-2.7a77.9,77.9,0,0,0-10-23.92c-1-1.64-.74-2.52.55-3.77,5-4.88,9.93-9.87,14.86-14.84,2.9-2.93,2.9-5.1,0-8q-8.79-8.86-17.64-17.68c-2.85-2.82-5.15-2.8-8.05.07-5,5-10.08,10-15,15.07-1.15,1.17-2,1.29-3.36.42a80.93,80.93,0,0,0-24.72-10.33c-1.81-.42-2.17-1.24-2.15-2.9.08-7,.05-14,0-21,0-4.22-1.6-5.79-5.87-5.81q-12.34,0-24.69,0c-4.2,0-5.75,1.62-5.76,5.9,0,6.81-.06,13.62,0,20.43,0,2-.33,3-2.53,3.48a78.56,78.56,0,0,0-24.2,10.12c-1.53,1-2.39.74-3.58-.47C83.11,43.67,78.2,38.81,73.3,34c-3.27-3.24-5.43-3.24-8.66,0Q56,42.54,47.37,51.18c-3,3-3,5.16,0,8.21,4.94,5,9.87,9.93,14.87,14.83,1.14,1.12,1.61,1.93.59,3.54A80.11,80.11,0,0,0,52.57,102.2c-.45,1.9-1.28,2.35-3.08,2.33-6.9-.09-13.81,0-20.71,0-4.41,0-5.92,1.56-5.93,6,0,8.23,0,16.46,0,24.69,0,2.64.77,4.7,3.48,5.45,1,.28,1.09.83,1.08,1.63a45.64,45.64,0,0,0,0,5.1c.3,2.67-1,2.69-3,2.22a13.64,13.64,0,0,1-10.62-13.07C13.7,131.92,13.78,127.28,13.77,122.64Z"/><path class="cls-1" d="M135.52,59.09c34.29-.07,62.29,26.24,64.33,59.76.23,3.8.23,3.8-3.61,3.81-5,0-5,0-5.6-4.94-3-25.6-20.27-44.11-45.42-48.79-29.41-5.47-59.44,16.69-62.81,46.34-.14,1.23-.34,2.44-.43,3.67-.28,3.71-.27,3.72-4.15,3.72-5.41,0-5.41,0-4.82-5.31,3.18-29,22.6-50.89,50.58-56.93A65.62,65.62,0,0,1,135.52,59.09Z"/><path class="cls-1" d="M136.27,159a27.23,27.23,0,1,1,27.34-27.1A27.22,27.22,0,0,1,136.27,159Zm0-9.08a18.15,18.15,0,1,0-18-18.31A18.09,18.09,0,0,0,136.25,149.89Z"/><path class="cls-1" d="M59,177.13a27.23,27.23,0,1,1,27.41-27A27.21,27.21,0,0,1,59,177.13Zm.12-9.08A18.15,18.15,0,1,0,41,149.81,18.1,18.1,0,0,0,59.12,168.05Z"/><path class="cls-1" d="M213.42,177.13a27.23,27.23,0,1,1,27.38-27.06A27.22,27.22,0,0,1,213.42,177.13Zm.14-9.08a18.15,18.15,0,1,0-18.16-18.18A18.1,18.1,0,0,0,213.56,168.05Z"/><path class="cls-1" d="M136.67,263.42c5.19,0,10.38,0,15.56,0,1.59,0,2.32.24,2.35,2.12.12,7,.2,7-6.77,7-9.05,0-18.11-.06-27.17.05-2,0-2.5-.6-2.48-2.55,0-6.58,0-6.58,6.62-6.58Z"/></g></g></svg>