<svg xmlns="http://www.w3.org/2000/svg" viewBox="0 0 324.9 246.79"><defs><style>.cls-1{fill:#fff;}</style></defs><title>recepcionistas</title><g id="Capa_2" data-name="Capa 2"><g id="Capa_1-2" data-name="Capa 1"><path class="cls-1" d="M324.9,105c-4.19,9.19-7.94,18.63-12.69,27.53-6.72,12.56-9.87,25.62-8.38,39.82.34,3.25-.2,6.58.11,9.83.46,5-1.3,9-4.06,12.95-9.89,14.09-23.42,23.63-38.6,31.08-20.8,10.21-42.93,15.78-65.85,18.5-30,3.55-59.74,2.6-89.22-3.94-23.84-5.29-46.39-13.67-65.72-29.17a74.81,74.81,0,0,1-17.89-20.4,11.32,11.32,0,0,1-1.66-6c0-10.26,0-20.51,0-30.77A12.73,12.73,0,0,0,19.81,149Q10.45,128.2,1.23,107.34c-2.54-5.73-1.23-8.85,4.68-11.1C35.16,85.11,62.86,71,88.56,53.1a213.85,213.85,0,0,0,27.59-23.31c6.25-6.16,12.19-12.63,18.88-18.34,17-14.51,35.84-15.27,53.91-2C198,16,205.9,24,214.19,31.58c30.69,27.9,65.51,49.08,104,64.3,2.82,1.11,5.38,2.41,6.68,5.35ZM162.33,180.21h69.49c18.61,0,37.23,0,55.84,0,2.29,0,3.15-.47,3.07-2.95-.19-5.92-.15-11.85,0-17.77.05-2.1-.63-2.68-2.68-2.65-7.4.11-14.81.09-22.21,0-4.78,0-7.64-2.6-7.64-6.61s2.84-6.54,7.64-6.55c8.14,0,16.29-.11,24.43,0,2.18,0,3.12-.74,3.94-2.63,4.61-10.55,9.28-21.07,14.09-31.52,1.08-2.33.9-3.36-1.64-4.36A318.38,318.38,0,0,1,277.1,91.47c-30.92-16.08-58.37-36.9-83.5-60.91a101.37,101.37,0,0,0-15.19-12.45c-10.4-6.66-21.4-6.52-31.14.43-5.18,3.7-9.62,8.26-14.08,12.78C123.16,41.49,113,51.48,101.42,60,75.74,78.88,47.75,93.6,18.24,105.49c-2.28.92-2.83,1.68-1.74,4q7.16,15.54,13.93,31.25c1,2.28,2.16,3,4.67,3q83.76-.12,167.54-.06a33.87,33.87,0,0,1,3.49.06A6.46,6.46,0,0,1,212,151.4c-.54,3.59-3.41,5.51-8.37,5.52q-37,0-73.93,0-46.17,0-92.34,0c-2.41,0-3.3.53-3.2,3.11.2,5.5.26,11,0,16.5-.16,3.13.84,3.8,3.85,3.79Q100.13,180.12,162.33,180.21ZM41.15,193.47l-.74.87c1.37,1.1,2.82,2.11,4.1,3.3,11.84,11,25.86,18.16,40.89,23.57C108.19,229.4,131.82,233,156,233.52c29.3.65,58-2.81,85.63-13.07,14.88-5.53,28.71-12.89,40.17-24.14.82-.8,2-1.43,2.08-2.84Z"/><path class="cls-1" d="M126.16,98.41c.44-6.36,2.35-12.34,4.1-18.28a15.21,15.21,0,0,0-1-12.14,52.25,52.25,0,0,1-2.56-5.79c-1.73-4.53.31-8.34,5-9.31,3.31-.69,6.66-1.15,10-1.75a26.3,26.3,0,0,0,15.19-8.5c4.2-4.63,7.85-4.75,11.92-.1,5.87,6.69,13.7,8.75,22,9.78a29.08,29.08,0,0,1,4,.71,6.4,6.4,0,0,1,4.55,8.39,4.83,4.83,0,0,1-.43,1.19c-5.11,7.68-4.86,15.64-1.8,24,1.88,5.14,3.09,10.61,1.9,16.19-1.77,8.3-6.71,14.21-14.22,18-2.73,1.38-5.58,2.51-8.42,3.66-3.33,1.34-6.36,2.77-8.6,6-2.58,3.71-7.57,3.5-10.23-.3a15.08,15.08,0,0,0-7.49-5.43c-3-1.18-6.1-2.4-9-3.86C131.84,116.26,126.74,108.8,126.16,98.41ZM163,55.34a7.71,7.71,0,0,0-1.12.62,39.91,39.91,0,0,1-18.28,8.23c-1.76.32-1.35,1.17-.86,2.16,2.54,5.15,2.3,10.34.57,15.69-1.22,3.81-2.06,7.74-3,11.63-2,8,.32,12.68,7.84,16,4.53,2,9.1,3.92,13.64,5.92a2.31,2.31,0,0,0,2.08.11c5.11-2.27,10.31-4.34,15.34-6.77,6.1-3,8.22-7.85,6.58-14.39-1.15-4.6-2.15-9.26-3.6-13.77a17.85,17.85,0,0,1,.72-13.82c1-2.15.22-2.68-1.7-3a38.58,38.58,0,0,1-16.59-7.44C164.08,56.1,163.57,55.75,163,55.34Z"/><path class="cls-1" d="M235.48,143.67a6.16,6.16,0,0,1,6.33,6.13,6.35,6.35,0,0,1-6.38,6.48,6.53,6.53,0,0,1-6.25-6.37A6.33,6.33,0,0,1,235.48,143.67Z"/></g></g></svg>