<svg xmlns="http://www.w3.org/2000/svg" viewBox="0 0 275.46 275.51"><defs><style>.cls-1{fill:#fff;}</style></defs><title>analisis</title><g id="Capa_2" data-name="Capa 2"><g id="Capa_1-2" data-name="Capa 1"><path class="cls-1" d="M166.42,0a108.91,108.91,0,0,1,108,94.33c8.1,57.81-32,112.56-89.33,122-31.34,5.16-59.71-2-85.09-21-1.73-1.3-2.71-1.4-4,.3a16.28,16.28,0,0,1-2.71,2.73c-3.54,2.88-5.77,5.35-2.94,10.73s.27,10.88-4.17,15.17q-20.87,20.17-41.64,40.44c-3.4,3.31-6.85,6.56-10.17,9.94-1.18,1.2-1.86,1.14-3,0Q16.22,259.34,1,244.23c-1.3-1.29-1.26-1.95,0-3.24q25.35-26,50.61-52c5.43-5.56,11.91-6.38,18.51-2.33,1.35.83,2,.59,3-.41,2.26-2.35,4.52-4.71,6.94-6.88,1.48-1.33,1.51-2.2.26-3.8a107.22,107.22,0,0,1-19.55-40.12C45.62,76.24,83.25,15.37,142.92,2.54A106.13,106.13,0,0,1,166.42,0ZM66.89,108.78c0,55,44.46,99.76,99.21,99.8A99.71,99.71,0,0,0,266,109.11c.15-54.65-44.52-99.57-99.08-99.63C111.68,9.42,66.92,53.86,66.89,108.78Zm-4.63,84.95a4.84,4.84,0,0,0-3.86,1.79Q36.22,218.35,14,241.18c-.94,1-1.12,1.56,0,2.61q8.87,8.72,17.59,17.59c1.1,1.13,1.74,1.07,2.83,0q22.68-22.12,45.43-44.2c2.71-2.65,2.73-5.08.12-7.73-4.63-4.72-9.34-9.36-14-14A4.55,4.55,0,0,0,62.26,193.73Zm28.35-6.34c-.62-.66-1.28-1.37-2-2.06s-1-.26-1.48.2c-2.64,2.65-5.28,5.32-8,7.94-1,1-.25,1.59.42,2.16s1.1,1.76,2.12.77c2.84-2.74,5.6-5.56,8.38-8.35A4.47,4.47,0,0,0,90.61,187.39Z"/><path class="cls-1" d="M76.37,109c0-49.53,40.37-90,89.8-90a90.21,90.21,0,0,1,90.33,90.13c.06,49.84-40.47,90-90.72,90C116.64,199.05,76.38,158.47,76.37,109Zm90.18-80.54A80.63,80.63,0,0,0,85.85,109c0,44.37,36.09,80.63,80.31,80.64a80.59,80.59,0,1,0,.39-161.18Z"/><path class="cls-1" d="M166.61,66.32c19.29.28,36.28,6.86,50.44,20.34,7.15,6.8,14,13.93,21,20.88,1,1,1.45,1.6.19,2.81-8.1,7.81-15.59,16.27-24.11,23.64a73.09,73.09,0,0,1-97.33-1.69c-7.59-7.06-14.73-14.6-22.1-21.89-.9-.9-1.3-1.51-.16-2.6,8.92-8.52,17-18,26.6-25.73C134.32,71.52,149.56,66.55,166.61,66.32ZM133.26,109a33.18,33.18,0,1,0,33.11-33.16A33.22,33.22,0,0,0,133.26,109Zm70.61-20.64c6.88,13.94,6.9,27.36-.05,41.41a25.17,25.17,0,0,0,2.25-1.4c6.82-5.54,12.58-12.19,18.93-18.23,1.26-1.2.4-1.82-.39-2.6-5-5-10-10-15.12-15A22.76,22.76,0,0,0,203.87,88.37Zm-75.74.42a13.8,13.8,0,0,0-1.2.79c-6.84,5.52-12.57,12.2-18.94,18.21-1.37,1.3-.49,2,.38,2.82,4.82,4.79,9.61,9.61,14.46,14.37a24.67,24.67,0,0,0,6.16,4.65C122.14,115.74,122.09,102.4,128.13,88.79Z"/><path class="cls-1" d="M166.43,85.33a23.7,23.7,0,1,1-23.69,23.47A23.72,23.72,0,0,1,166.43,85.33Zm0,37.9a14.21,14.21,0,1,0-14.25-14.31A14.27,14.27,0,0,0,166.48,123.23Z"/></g></g></svg>