<svg xmlns="http://www.w3.org/2000/svg" viewBox="0 0 322.2 322.89"><defs><style>.cls-1{fill:#fff;}</style></defs><title>atencion al lciente</title><g id="Capa_2" data-name="Capa 2"><g id="Capa_1-2" data-name="Capa 1"><path class="cls-1" d="M102.48,322.89c-11.82-1.78-20.3-8.88-28-17.32-3.4-3.72-7.11-7.16-10.68-10.72L12.07,243.13c-16-16.06-16.1-38-.12-54,6.75-6.77,13.57-13.47,20.25-20.32,1.47-1.5,2.22-1.37,3.63.05q17.42,17.58,35,35c1.54,1.52,1.37,2.32-.06,3.71C64.83,213.3,59,219.2,53.13,225.09c-3.53,3.55-3.51,6.06.07,9.66,5.38,5.41,10.77,10.8,16.49,16.53.89-2.55,1.58-4.61,2.34-6.64,5-13.29,14.47-21.32,28.42-24,10.52-2,21.07-3.81,31.58-5.79,1-.18,2.44.19,2.66-1.57.2-1.6-.85-2.14-1.94-2.85a51.64,51.64,0,0,1-22.61-31.8,3.14,3.14,0,0,0-2.29-2.56q-14.77-5.4-14.81-21c0-11.67-.05-23.33,0-35,.17-34.83,25.39-63.24,60-67.6C190,47.84,225,76.09,228,113.15c1.08,13,.29,26,.44,39.07.1,9.46,0,18.92,0,28.37,0,10.84-6.46,17.64-17.18,17.23-5.95-.23-10.68.65-14.28,5.91-1.86,2.72-4.92,4.53-7.74,6.39-1.16.77-2.82,1.24-2.42,3.21s2.12,1.41,3.29,1.63c10.41,2,20.87,3.71,31.27,5.77,13.9,2.77,23.42,10.9,28.14,24.29,3.91,11.07,7.4,22.3,11.26,33.39.92,2.65.11,2.88-2.24,2.87q-52.17-.07-104.34,0h-4.46c2.65,2.57,4.58,4.55,6.64,6.39,1.26,1.12,1.16,1.83-.06,2.94-8.81,8-17.49,16.07-26.35,24a33.33,33.33,0,0,1-16.64,7.74,19,19,0,0,0-2.08.61Zm90.17-52.13c17.12,0,34.25-.05,51.37.05,2.75,0,3.15-.68,2.24-3.19-2.27-6.32-4.19-12.76-6.44-19.08-3.49-9.84-10.46-15.76-20.72-17.68-10.93-2.05-21.9-3.91-32.82-6a4.79,4.79,0,0,0-5,1.46c-5.92,6.1-12.07,12-18,18.13-1.89,2-3,2.32-5.07.12-6-6.33-12.3-12.37-18.42-18.58a3.88,3.88,0,0,0-3.87-1.3c-11.34,2.13-22.73,4-34.05,6.26-9.84,1.92-16.58,7.73-20.1,17.15-1.13,3-2,6.19-3.14,9.23a3.1,3.1,0,0,0,.89,3.86c3,2.78,5.82,5.77,8.73,8.65,3.45,3.43,5.78,3.47,9.47.14,6.55-5.9,13.14-11.78,19.6-17.79,1.52-1.42,2.34-1.36,3.76.1,5.33,5.51,10.86,10.83,16.19,16.34a6.6,6.6,0,0,0,5.22,2.18C159.24,270.72,175.94,270.76,192.65,270.76Zm-88.82-133c3-.68,5.75-1.43,4.91-5.52-.36-1.75.73-2.07,2.23-2.06A69.94,69.94,0,0,0,125.69,129c13.29-2.72,24-9.81,32.93-19.69,1.65-1.83,2.63-1.84,4.3,0,5.71,6.24,12.09,11.63,19.82,15.3a59.63,59.63,0,0,0,27.19,5.59c1.63,0,3-.22,3,2.32-.1,4.13.29,4.34,5.15,5.09-.4-8.74.77-17.49-.72-26.13C213.27,88,199.89,72,177.2,65.11s-42.54-.81-58.84,16.27C103.1,97.38,102.34,117.29,103.83,137.76ZM187,198H168.15c-7.58,0-7.47,0-7.5-7.62,0-2.41.77-3,3.08-3,10.08.12,20.17,0,30.25.11a4,4,0,0,0,4.28-2.71,43.2,43.2,0,0,0,4.12-18.28c0-7.77-.06-15.55.06-23.32,0-2.15-.71-2.88-2.82-3.11a65.53,65.53,0,0,1-37-16.54c-1.37-1.21-2.13-1.38-3.6-.08a65.23,65.23,0,0,1-37.32,16.63c-2.22.24-2.7,1.19-2.67,3.22.1,7.46,0,14.92,0,22.38.13,25.56,20,44.2,45.52,42.4A34.68,34.68,0,0,0,187,198ZM109.11,312.41c5.89.1,12.31-3.5,17.87-9.06,1-1,1-1.61,0-2.56q-10.74-10.65-21.41-21.37c-.85-.86-1.4-1.07-2.58-.23-7.81,5.54-15.22,4.85-22-1.95q-17.73-17.7-35.43-35.43c-6.65-6.67-7.3-14.05-1.87-21.8.74-1.06.89-1.65-.08-2.6Q32.86,206.76,22.21,196c-.93-.94-1.46-1-2.51-.05C8.28,206,7.07,223.14,17.68,233.9c23.6,23.93,47.45,47.61,71.28,71.33C93.85,310.1,100,312.4,109.11,312.41ZM136,294.86c.47-.35.9-.62,1.27-.95a37.12,37.12,0,0,1,3.49-3.17c2.11-1.47,1.64-2.52,0-4.1-5.81-5.62-11.48-11.39-17.19-17.12-4.74-4.74-4.68-4.69-9.69-.1-1.4,1.28-1.62,2-.15,3.43,6.91,6.75,13.69,13.63,20.53,20.46C134.76,293.82,135.32,294.27,136,294.86ZM33.72,182.13c-.52.49-1.14,1-1.73,1.62-3.69,3.62-3.69,3.62-.13,7.18l16.23,16.22c4.39,4.4,4.34,4.35,8.49-.15,1.06-1.15,1-1.75-.07-2.77-7.08-7-14.09-14.07-21.14-21.1C35,182.71,34.61,182.11,33.72,182.13Zm112.17,35.33q7,6.94,14,13.89c.71.71,1.18.52,1.79-.1q7.05-7.09,14.13-14.15A110.51,110.51,0,0,1,161,218.76C156,218.83,151.13,217.78,145.89,217.46Zm63-30.33c7.32,1,9.1-.53,9.1-7.66,0-1.15,0-2.31,0-3.46,0-.48,0-1.41-.59-1.18-1.94.81-4.72.63-5.63,2.76C210.43,180.61,209.8,183.92,208.88,187.13Zm-100.32-39c-2.7.8-4.59,3.44-5,6.93-.44,4.35,1.26,7.72,5,9.59Zm104.39,17c4-2.76,5.44-6.13,4.9-10.3a9.44,9.44,0,0,0-4.9-7.26Z"/><path class="cls-1" d="M242.21,104.2c1.54-9,2.91-17.25,4.38-25.5,1-5.75,1.07-5.74-4.81-5.74-2.63,0-5.25.06-7.88,0-9.31-.32-15.81-6.79-15.89-16.08q-.16-20.49,0-41C218.11,6.64,224.86.05,234.08,0Q270,0,306,0c9.51,0,16.07,6.45,16.16,16q.18,20.49,0,41c-.09,9.23-6.42,15.52-15.63,15.93a4.32,4.32,0,0,1-1,0c-9.37-1.42-17.16,1.88-24.83,7.14C269.18,88,257.1,95,245.26,102.42,244.47,102.91,243.65,103.36,242.21,104.2Zm14.28-21.69c.6,0,.84,0,1-.08,6.07-3.76,12.44-7.11,18.11-11.4,8.93-6.77,18.52-10.24,29.75-8.56h.32c4.21-.08,6.11-1.94,6.12-6.23q.06-19.69,0-39.38c0-4.49-1.83-6.37-6.3-6.38q-35.44,0-70.89,0c-4.33,0-6.08,1.84-6.09,6.2q0,19.85,0,39.7c0,4.3,1.85,6.06,6.19,6.08,7.45,0,14.91.1,22.37-.05,2.31,0,2.84.62,2.43,2.81C258.43,70.87,257.52,76.56,256.49,82.51Z"/><path class="cls-1" d="M29.61,128.88c4.37-2.62,8.16-4.84,11.89-7.16,1.39-.88,2.15-1,3.18.66,4.39,7,4.46,6.94-2.62,11.18s-14.43,8.6-21.58,13c-1.61,1-2.34,1-3.36-.79q-7.8-13.32-15.88-26.46C.18,117.6.52,117,2.14,116c6.83-4.08,6.79-4.13,10.91,2.71,1.81,3,3.66,6,5.81,9.54a143.18,143.18,0,0,1,11.7-32.15c21.89-41.85,56-67.89,102.14-77.62,23-4.84,45.94-3.56,68.58,2.88,2.09.59,2.62,1.24,2,3.36C200.94,32,201,32,193.7,30.13,123,11.91,49,55.21,30.27,125.73,30.06,126.52,29.93,127.34,29.61,128.88Z"/><path class="cls-1" d="M288.75,118c-2.72,4.53-5.33,8.7-7.77,13-.89,1.57-1.62,1.69-3.17.79-7-4.09-7.05-4-2.82-11.1s8.62-14.17,12.75-21.36c1.14-2,1.95-2,3.79-.9q12.87,7.94,25.91,15.57c1.7,1,2.3,1.81.93,3.55-1.6,2-2.15,5.76-4.38,6.16-1.89.34-4.3-2.19-6.46-3.47-2.62-1.55-5.22-3.11-8.34-5,1,3.75,2.05,7,2.83,10.27q16.26,69.11-26.44,125.86c-1.18,1.56-1.88,1.65-3.43.44-6.12-4.81-6.09-4.69-1.65-11.11q38.37-55.46,19.28-120.18c-.15-.5-.33-1-.52-1.48C289.19,118.81,289.08,118.63,288.75,118Z"/><path class="cls-1" d="M270.26,20.84c9.44,0,18.88.07,28.31-.06,2.25,0,2.79.69,2.79,2.84,0,7.67.08,7.67-7.43,7.67-17.2,0-34.4-.05-51.6.05-2.6,0-3.69-.43-3.6-3.39.21-7.11,0-7.11,7.3-7.11Z"/><path class="cls-1" d="M259.81,41.66c6.1,0,12.19.05,18.29,0,1.69,0,2.35.39,2.42,2.24.3,8.27.37,8.26-7.8,8.26-10.3,0-20.6-.06-30.9,0-2.27,0-3.09-.51-3.08-3,.07-7.56,0-7.56,7.52-7.56Z"/><path class="cls-1" d="M296.26,41.66c5.05,0,5.05,0,5.05,5.18s0,5.29-5.34,5.29a9,9,0,0,0-1.56,0c-2.71.43-4-.56-3.45-3.39a11.79,11.79,0,0,0,0-1.88C291,41.66,291,41.66,296.26,41.66Z"/></g></g></svg>