<svg xmlns="http://www.w3.org/2000/svg" viewBox="0 0 176.96 294.41"><defs><style>.cls-1{fill:#fff;}</style></defs><title>monitoreo</title><g id="Capa_2" data-name="Capa 2"><g id="Capa_1-2" data-name="Capa 1"><path class="cls-1" d="M0,147.25Q0,88.45,0,29.64C0,14.17,10,2.57,25,.25A32.38,32.38,0,0,1,29.76,0Q88.41,0,147.07,0c17.41,0,29.83,12.14,29.84,29.51q.1,117.62,0,235.23c0,17.53-12.42,29.64-30,29.65q-58.51,0-117,0C12.37,294.39,0,282.09,0,264.57Q0,205.91,0,147.25ZM9.5,157.9q0,53.32,0,106.65c0,12.44,7.94,20.36,20.4,20.37q58.5,0,117,0c12.52,0,20.38-7.8,20.49-20.28.05-5.63-.15-11.26.07-16.88.12-2.85-.7-3.61-3.57-3.61q-67,.15-133.91.07a32.37,32.37,0,0,1-3.55-.09,4.17,4.17,0,0,1-4.06-4.27c-.17-2.48.89-4.26,3.36-4.87a16.16,16.16,0,0,1,3.82-.27q66.95,0,133.9,0c4.38,0,3.94.59,3.94-3.95q0-99.84,0-199.67a40.81,40.81,0,0,0-.15-4.14c-1-10.18-8.76-17.41-19-17.43q-59.84-.09-119.68,0A18.77,18.77,0,0,0,9.83,25.63a29.68,29.68,0,0,0-.32,4.42c0,7,0,7,6.83,7H149.06a24.7,24.7,0,0,1,4.13.22,4.18,4.18,0,0,1,3.64,4.38,4.16,4.16,0,0,1-3.39,4.58,20.8,20.8,0,0,1-4.4.34q-68,0-136,0c-2.79,0-3.64.61-3.63,3.54C9.54,86,9.5,122,9.5,157.9Z"/><path class="cls-1" d="M74,264.39A14.52,14.52,0,1,1,88.3,279.07,14.54,14.54,0,0,1,74,264.39Zm19.55.16a5.06,5.06,0,0,0-5.12-5,5,5,0,0,0,0,10.05A5.1,5.1,0,0,0,93.52,264.55Z"/><path class="cls-1" d="M88.53,28c-8.48,0-17,.05-25.43,0-3.66,0-5.87-2.83-4.9-6,.87-2.87,3.14-3.48,5.82-3.47,10,0,20.1,0,30.16,0,6.5,0,13-.08,19.51,0,4.16.07,6.44,3.65,4.67,7.06-1.06,2-2.91,2.44-5,2.43Q101,28,88.53,28Z"/></g></g></svg>