<svg xmlns="http://www.w3.org/2000/svg" viewBox="0 0 274.88 259.12"><defs><style>.cls-1{fill:#fff;}</style></defs><title>patrullaje</title><g id="Capa_2" data-name="Capa 2"><g id="Capa_1-2" data-name="Capa 1"><path class="cls-1" d="M40,113.78c1-5,1.87-9.11,2.73-13.27a32,32,0,0,1,31-25.63c3.66,0,7.32-.19,11,0,2.59.17,3.21-.77,3-3.16a64.65,64.65,0,0,1,0-7.1c.08-3.55,1.72-5.25,5.3-5.29,6.23-.07,12.45-.1,18.67,0,2,0,2.94-.53,2.66-2.64a13.4,13.4,0,0,1,0-2.37c.1-3.42,1.64-5.25,5-5.27q18.07-.15,36.14,0c3.67,0,5.12,1.84,5.18,5.73.08,4.52.08,4.52,4.58,4.52,5.43,0,10.86,0,16.29,0,4.13,0,5.7,1.64,5.75,5.75a64.42,64.42,0,0,1,0,6.52c-.24,2.5.41,3.39,3.16,3.32,5.12-.13,10.27-.49,15.37.34a31.85,31.85,0,0,1,26.47,25.36c.83,4,1.69,8.09,2.66,12.73,1.44-3.95,4.19-4.5,7.5-4.45,8.69.13,17.38,0,26.07,0,4.87,0,6.37,1.52,6.39,6.37,0,5.53,0,11.06,0,16.59,0,3.68-1.3,5.23-4.91,5.83-8.57,1.41-17.15,2.72-25.72,4.11-1.08.18-2.81-.12-3,1.19-.2,1.53-.09,3.33,1.73,4.35,12.61,7.13,17.63,18.41,19,32.43,2,20.89,2,41.8,1.88,62.72,0,9.86-6.81,16.47-16.66,16.52q-13,.06-26.07,0c-10,0-16.64-6.8-16.71-16.79,0-4.53,0-4.53-4.51-4.53q-62.8,0-125.6-.06c-2.78,0-3.88.38-3.82,3.6.22,11.37-6.34,17.78-17.7,17.79-8.3,0-16.59,0-24.89,0-9.89,0-16.7-6.62-16.75-16.41-.05-13.63-.25-27.27.26-40.88a277.42,277.42,0,0,1,2.81-30c1.56-10.66,7.68-18.61,16.88-24.18a6.19,6.19,0,0,0,1.9-1.34c1.59-2.26.75-4.12-2-4.56-8.47-1.36-17-2.72-25.43-4C1.41,137,0,135.57,0,131.46c0-5.53,0-11.06,0-16.59C0,110.71,1.6,109,5.66,109c9.48,0,19,0,28.44,0C37.07,108.93,39,110.22,40,113.78Zm97.43,39H55.71c-3.06,0-6.13-.06-9.17.16-12,.86-22,10.7-23.41,22.61-2.7,22.31-2.81,44.7-2.52,67.12.05,4.3,2.56,6.84,6.83,6.87,9,.08,18,0,27,0a6.44,6.44,0,0,0,5.72-3.09c1.39-2.16.81-4.6,1-6.93.1-1.45-.51-1.87-1.89-1.83-3,.07-5.92.09-8.88,0a4.71,4.71,0,0,1-1.95-9,7.31,7.31,0,0,1,3.49-.45c13.92,0,27.84,0,41.76,0,2.05,0,2.77-.57,2.69-2.65-.14-3.75-.1-7.51,0-11.26.08-3.91,1.78-5.6,5.66-5.61q35.54,0,71.08,0c3.86,0,5.54,1.73,5.62,5.65.08,3.56.21,7.13,0,10.66-.19,2.72.82,3.25,3.34,3.22,13.92-.12,27.84-.07,41.76,0,3.52,0,5.6,1.83,5.59,4.72s-2.13,4.68-5.62,4.74c-2.67,0-5.34,0-8,0-.73,0-1.49-.19-1.82,1-1.76,6.09,1.66,10.86,7.93,10.87q12.13,0,24.28,0c6.08,0,8.28-2.15,8.29-8.14,0-11.75.21-23.5-.06-35.25a277.79,277.79,0,0,0-2.7-31.55c-1.83-13.22-12.83-21.84-27.08-21.85Q181,152.79,137.46,152.82Zm-.34-9.86v.44q45.62,0,91.22,0c2.33,0,3.11-.42,2.56-3-2.69-12.23-5.15-24.51-7.79-36.75-2.73-12.62-11-19.23-23.94-19.24H145.26q-35.1,0-70.2,0c-12,0-20.49,6.94-23,18.53-2.69,12.23-5.27,24.49-8.08,36.68-.67,2.89.16,3.31,2.84,3.3Q91.95,142.89,137.12,143Zm.67,75.32H112.64c-6.93,0-6.83,0-6.94,6.91,0,2.39.54,3.17,3.08,3.16,17.75-.12,35.49-.06,53.24-.06,7.28,0,7.21,0,7.23-7.22,0-2.12-.46-2.88-2.77-2.85C156.92,218.36,147.35,218.28,137.79,218.28Zm-.27-143.42c3.94,0,7.87,0,11.81,0,1.39,0,1.9-.41,1.88-1.84-.07-4.23-.08-8.46,0-12.69,0-1.48-.63-1.84-2-1.83q-11.82,0-23.63,0c-1.4,0-1.89.51-1.87,1.9.06,4.13.1,8.27,0,12.4,0,1.8.7,2.1,2.26,2.07C129.84,74.8,133.68,74.86,137.52,74.86Zm117.8,43.52c-2.86,0-5.71.07-8.56,0-1.7-.06-2.22.6-2.17,2.24q.15,4.71,0,9.44c-.06,1.61.47,2.06,2,1.77q5.37-1,10.76-1.79c8.32-1.22,8.27-1.19,8.12-9.51,0-1.73-.6-2.2-2.21-2.15C260.63,118.45,258,118.38,255.32,118.38Zm-234.68.07H17.38c-8.14,0-8.08,0-7.94,8.24,0,1.63.57,2.18,2.09,2.41,5,.77,10.09,1.64,15.13,2.5,3.58.61,3.65.63,3.56-3.09-.07-3.23,1.38-7.47-.53-9.41C27.63,117,23.34,118.76,20.64,118.45Zm84.85-43.59c2.36,0,4.72-.07,7.08,0s1.73-1.69,1.68-2.86,1-3.21-1.67-3.19c-4.63,0-9.25,0-13.87,0-.68,0-1.27,0-1.54.94-1,3.42.14,5.08,3.59,5.08Zm63.92,0a58.06,58.06,0,0,1,6.19,0c2.33.24,2.38-1.12,2.18-2.69-.17-1.39,1-3.53-2-3.43-4.32.15-8.66.14-13,0-3-.1-1.89,2-2.07,3.44-.21,1.65,0,2.86,2.24,2.66S167.24,74.86,169.41,74.86Z"/><path class="cls-1" d="M132.75,12.59c0-2.57-.07-5.14,0-7.7.11-3,2.06-4.93,4.8-4.89a4.56,4.56,0,0,1,4.62,4.75q.15,7.85,0,15.69a4.67,4.67,0,0,1-4.79,4.92c-2.67,0-4.56-2-4.64-5.08C132.69,17.72,132.74,15.15,132.75,12.59Z"/><path class="cls-1" d="M67.65,28a4.76,4.76,0,0,1,3.69,1.59c3.64,3.59,7.33,7.13,10.91,10.78,2.3,2.36,2.3,5.09.24,7.06s-4.64,1.83-6.84-.29c-3.77-3.61-7.45-7.3-11.13-11a4.48,4.48,0,0,1-1-5.4A4.54,4.54,0,0,1,67.65,28Z"/><path class="cls-1" d="M196.4,48.81c-2.47-.1-4-1-4.8-2.71a4.21,4.21,0,0,1,.57-5c4-4.1,8-8.17,12.15-12.05,1.91-1.78,4.26-1.5,6.13.3s2.22,4.08.59,5.87c-4,4.41-8.39,8.56-12.68,12.75A2.94,2.94,0,0,1,196.4,48.81Z"/><path class="cls-1" d="M214.45,203c-5.33,0-10.67.18-16,0-7.44-.31-14.12-6.3-15.55-13.6a12,12,0,0,1,9.28-14.3c11.67-2.46,23.36-4.86,35.08-7.08,9.17-1.73,18.4,5.15,19.79,14.47,1.5,10-5.41,19.63-15.15,20.38-5.79.45-11.64.09-17.46.09Zm.5-9.42h15.37c4.94-.29,7.87-4.07,7.31-9.44-.5-4.77-4.08-7.56-8.85-6.77-3.11.51-6.19,1.21-9.27,1.82-8,1.6-16,3.17-24,4.82-3.34.69-4.16,2.7-2.43,5.64a7.68,7.68,0,0,0,7.12,3.95C205.1,193.55,210,193.56,215,193.56Z"/><path class="cls-1" d="M62.52,203.05c-4.73,0-9.47-.07-14.21,0-15.88.26-21.44-15.94-15.59-26.95a15.62,15.62,0,0,1,16.65-8.25q18,3.27,36,7.21c7.54,1.66,11,8.24,8.86,15.67a16.85,16.85,0,0,1-16,12.29C73,203.12,67.76,203,62.52,203.05Zm.1-9.64H78a7.46,7.46,0,0,0,6.7-3.62c1.78-2.87.75-5.25-2.51-5.91q-16.34-3.33-32.68-6.57c-5.3-1.05-9,1.83-9.54,7.22-.46,5.14,2.79,8.83,7.89,8.88C52.78,193.45,57.7,193.42,62.62,193.41Z"/></g></g></svg>