<svg xmlns="http://www.w3.org/2000/svg" viewBox="0 0 333.25 312.43"><defs><style>.cls-1{fill:#fff;}</style></defs><title>manual</title><g id="Capa_2" data-name="Capa 2"><g id="Capa_1-2" data-name="Capa 1"><path class="cls-1" d="M333.25,192.65c-2.61,0-5.22-.15-7.81,0-2.24.17-2.89-.73-2.62-2.77a19.1,19.1,0,0,0,0-2.27q0-69.81,0-139.6c0-8.49-4.49-14.41-12-16.41-2.83-.75-3.66-.27-3.65,2.88.1,46.1,0,92.19.14,138.29,0,3.22-.54,4.49-4.12,4.31-6.35-.34-6.36-.1-6.36-6.54q0-78.25.06-156.51c0-2.89-.61-3.78-3.67-3.72-26.28.5-52.42,2.11-77.93,9.16a147.08,147.08,0,0,0-41.18,18.1c-1.47,1-2.3,1.88-2.3,3.83q.09,106.23.06,212.48c0,.42.06.85.13,1.67,5.25-2.68,10.2-5.52,15.32-8,2.78-1.34,3.76-.85,4.83,1.94,2.36,6.13,2.49,6-3.44,9a135.5,135.5,0,0,0-15,8.49,3.45,3.45,0,0,0-1.91,3.38c.18,3.45-1.13,7.95.58,10.08s6.5.59,9.92.69c4.44.13,8.89.09,13.34,0,1.63,0,2.21.39,2.27,2.15.31,8.3.37,8.3-7.82,8.3H28.37C10.78,291.58,0,280.81,0,263.23V49.12C0,33.17,8.53,23.18,24.21,20.94c1.67-.24,1.86-.91,1.84-2.26-.05-4.34-.07-8.68,0-13C26.13,2.14,28,0,31.43,0c31.19,0,62.22,1.48,92.42,10.32a152.17,152.17,0,0,1,40.69,18.43c1.44.94,2.44,1.18,4,.14,20.19-13.28,42.68-20.38,66.29-24.36C256.52.9,278.39,0,300.32,0c5.13,0,6.87,1.71,6.89,6.78q0,6,0,12c0,1.19.08,1.92,1.65,2.1,13.06,1.49,21.06,8.72,24,21.53,0,.18.25.33.38.5ZM161,255.44c.69-1.05.39-2,.39-3q0-105.24.06-210.49a4.55,4.55,0,0,0-2.36-4.45,148,148,0,0,0-39-17.43c-26.61-7.67-53.93-9.33-81.41-9.74-2.46,0-2.23,1.25-2.23,2.82q0,106.55,0,213.1c0,2.29.63,2.88,2.88,2.88a389.09,389.09,0,0,1,50.6,3.18c21.16,2.88,41.67,8,60.87,17.62C154.21,251.7,157.58,253.6,161,255.44ZM10.41,156.05q0,53.69,0,107.36c0,11.69,6.11,17.76,17.9,17.76H154.87c6.55,0,6.37,0,6.63-6.59.12-3.11-.68-3.91-3.86-3.9-36.33.12-72.66.08-109,.07-5.32,0-7-1.67-7-7s0-10.85,0-16.27c0-7.94,0-7.94-7.83-8-6.42,0-7.79-1.4-7.79-7.83V86.6C26,69,26,51.46,26.09,33.89c0-2.48-.75-2.89-3-2.41-7.69,1.66-12.67,7.89-12.68,16.24Q10.39,101.89,10.41,156.05ZM146.76,260.34l.18-.53c-.54-.3-1.06-.64-1.62-.89-4.36-1.91-8.65-4-13.11-5.67-25.09-9.36-51.29-12.36-77.84-13.33-1.95-.07-2.36.64-2.33,2.41.09,5.2.14,10.41,0,15.62-.07,2.17.82,2.44,2.66,2.43,12.47-.07,24.94,0,37.42,0Z"/><path class="cls-1" d="M333.25,257.09a7.46,7.46,0,0,1-7.55,3.28c-1.18-.14-2.42.14-3.58-.06-4.91-.83-8.06.51-9.33,5.89-.49,2.06-.7,3.22.93,4.67,2.42,2.17,4.7,4.5,6.9,6.9s2.34,5.11,0,7.54q-7,7.26-14.25,14.28c-2.71,2.62-5.29,2.55-8,0-2.44-2.31-4.84-4.67-7.12-7.15-1.15-1.26-2.09-1-3.62-.69-5.55,1.23-6.83,4.48-6.58,9.91.5,10.46-.15,10.78-10.55,10.78-4.88,0-9.76,0-14.64,0-3.87-.06-5.81-2-5.89-5.81-.07-3.25-.11-6.51,0-9.76.08-1.78-.67-2.4-2.15-3.33-4.87-3.05-8-1.57-11.62,2.47-7,7.79-7.58,7.54-15.1,0q-4.6-4.61-9.2-9.21c-4.25-4.26-4.23-6.24.1-10.59,1.92-1.92,3.75-3.94,5.79-5.72,1.41-1.24,1.08-2.24.68-3.9-1.31-5.35-4.39-6.64-9.71-6.39-10.68.51-10.89-.05-10.89-10.75,0-4.78-.05-9.55,0-14.32.05-4.06,2-5.92,6-6,1.63,0,3.25,0,4.88,0,7.45,0,7.39,0,10.06-7.13.52-1.4-.07-2-.84-2.75-2.31-2.29-4.64-4.56-6.9-6.9-3.05-3.15-3.11-5.66-.1-8.74q6.72-6.86,13.58-13.57c2.82-2.75,5.41-2.75,8.27-.06,2.36,2.23,4.67,4.53,6.89,6.91,1.18,1.28,2.12,1.26,3.87.84,5.58-1.33,6.75-4.57,6.48-10-.51-10.38.14-10.68,10.64-10.68,4.77,0,9.55,0,14.32,0,4.23.05,6.08,1.94,6.13,6.23,0,3.25.1,6.51,0,9.76-.06,1.59.74,2.05,1.95,2.8,4.85,3,8.15,1.83,11.92-2.41,6.88-7.72,7.58-7.43,14.86-.14,3.44,3.45,6.93,6.87,10.33,10.38,2.87,3,2.85,5.49,0,8.5-2.24,2.36-4.53,4.68-6.92,6.88-1.25,1.15-1.06,2.07-.71,3.62,1.24,5.55,4.49,7.48,9.9,6.47,1.05-.2,2.18.08,3.25,0a7.42,7.42,0,0,1,7.55,3.28ZM215,239.52c-6.73,0-6.73,0-6.72,6.73a9.38,9.38,0,0,1,0,1.3c-.25,1.8.4,2.52,2.31,2.42,2.81-.15,5.64,0,8.46-.05,3.32-.08,5.32,1.5,6.1,4.67a41.9,41.9,0,0,0,3.54,9.39c3.46,6.66,3.46,6.8-1.7,11.95-5.89,5.89-5.85,5.84.27,11.56,1.3,1.22,2,1.05,3.08-.12,2-2.14,4.14-4.14,6.19-6.23s4.46-2.61,7-1.07a48.67,48.67,0,0,0,12.55,5.23c2.87.75,4.29,2.75,4.23,5.76,0,1.09,0,2.17,0,3.26,0,8.19,0,8.14,8.38,7.72,1.5-.08,2.12-.44,2.06-2-.1-2.92,0-5.85,0-8.78-.07-3.32,1.5-5.31,4.68-6.09a41.93,41.93,0,0,0,9.39-3.55c6.64-3.47,6.76-3.47,11.94,1.71,5.89,5.89,5.85,5.85,11.57-.27,1.22-1.3,1-2-.13-3.08-2.06-1.92-4-4-6-5.95-2.36-2.26-2.87-4.72-1.15-7.58a43.09,43.09,0,0,0,5-12c.75-3,2.68-4.61,5.87-4.54,1.08,0,2.16,0,3.25,0,8.19,0,8.14,0,7.72-8.38-.08-1.5-.43-2.12-2-2.06-2.93.1-5.86,0-8.78,0-3.32.07-5.32-1.51-6.1-4.68a41.09,41.09,0,0,0-4.83-11.66c-1.82-3-1.37-5.53,1.16-7.84.64-.58,1.23-1.22,1.84-1.83,5.89-5.9,5.85-5.85-.28-11.57-1.3-1.22-2-1-3.08.13-2,2.14-4.14,4.14-6.19,6.23s-4.46,2.6-7.06,1.07A47.45,47.45,0,0,0,275,204.17a5.19,5.19,0,0,1-4.21-5.45c0-1.19,0-2.38,0-3.58,0-8,0-7.9-8-7.74-1.78,0-2.51.43-2.41,2.35.15,2.81,0,5.63.05,8.45.07,3.32-1.51,5.32-4.67,6.11A43,43,0,0,0,246,208c-6.27,3.31-6.51,3.28-11.66-1.87-5.89-5.89-5.84-5.84-11.57.28-1.21,1.3-1.05,2,.13,3.08,2.07,1.91,4,4,6,5.94,2.49,2.38,2.78,4.95,1,7.88a38.87,38.87,0,0,0-4.72,11.35c-.8,3.32-2.82,5-6.29,4.85C217.6,239.47,216.3,239.51,215,239.52Z"/><path class="cls-1" d="M275.94,57.84c.15,4.5.16,4.63-4.4,4.89-16.68,1-33.28,2.53-49.6,6.26a142.53,142.53,0,0,0-24.76,7.76c-2,.86-2.73.41-3.56-1.49C190.47,68,190.38,68,198,65.19c16.58-6.07,33.79-9.35,51.3-11.14,7.44-.77,14.91-1.2,22.37-1.78,4.2-.32,4.2-.31,4.31,3.94C276,56.76,275.94,57.3,275.94,57.84Z"/><path class="cls-1" d="M276,83.79a14.31,14.31,0,0,0,0,2.27c.36,2.07-.56,2.51-2.49,2.61-16.24.89-32.43,2.23-48.38,5.65a152.74,152.74,0,0,0-27.94,8.43c-1.86.79-2.72.65-3.6-1.38-3.18-7.36-3.29-7.37,4.23-10.12,16.58-6.07,33.79-9.36,51.3-11.16,7.54-.78,15.13-1.1,22.68-1.86,3-.3,4.6.26,4.09,3.61a12.68,12.68,0,0,0,0,2Z"/><path class="cls-1" d="M276,109.86a8.87,8.87,0,0,0,0,1.63c.41,2.28-.27,3.13-2.83,3.26-16.13.82-32.21,2.22-48.06,5.61a152.13,152.13,0,0,0-27.93,8.44c-1.92.82-2.73.55-3.58-1.43-3.17-7.33-3.27-7.34,4.27-10.1,16.59-6.07,33.8-9.35,51.3-11.15,7.44-.77,14.91-1.2,22.37-1.77,4.25-.33,4.25-.33,4.36,3.89,0,.54,0,1.08,0,1.62Z"/><path class="cls-1" d="M275.94,136c.15,4.5.16,4.63-4.41,4.89-16.68.95-33.28,2.52-49.6,6.26a137.29,137.29,0,0,0-24.45,7.65c-2.29,1-3.11.48-4-1.68-2.91-7-3-7,4.2-9.67,16.68-6.14,34-9.44,51.61-11.25,7.44-.76,14.91-1.2,22.36-1.77,4.2-.33,4.2-.32,4.31,4C276,134.87,275.94,135.41,275.94,136Z"/><path class="cls-1" d="M275.94,161.79c.15,4.69.16,4.83-4.53,5.09-16.58,1-33.06,2.52-49.29,6.22a148.34,148.34,0,0,0-25.07,7.82c-1.8.76-2.53.49-3.35-1.35-3.28-7.45-3.36-7.45,4.39-10.29,16.48-6,33.59-9.27,51-11.08,7.55-.78,15.13-1.22,22.69-1.8,4.06-.31,4.07-.29,4.18,3.76C276,160.71,275.94,161.25,275.94,161.79Z"/><path class="cls-1" d="M60.59,52.2c24.68,1.38,49,3.95,72.35,12.17.72.25,1.44.48,2.15.74,8.23,3,8.2,3,4.22,10.84-.59,1.16-1,1.62-2.42,1C112.36,66.91,86.43,64.11,60.28,62.65c-2.52-.14-3.52-.77-3.09-3.33a15.89,15.89,0,0,0,.11-3.9C57.1,52.83,57.84,51.37,60.59,52.2Z"/><path class="cls-1" d="M60.61,78.23c24.68,1.39,49,4,72.35,12.18,2.55.9,5.06,1.93,7.61,2.84,1.44.51,2,1,1.33,2.8-3,7.58-2.88,7.61-10.47,4.85-17.76-6.46-36.21-9.48-54.95-11.07-5.72-.49-11.45-.92-17.19-1.21-1.73-.09-2.29-.64-2.12-2.31a29.48,29.48,0,0,0,.13-4.88C57.11,78.8,57.9,77.42,60.61,78.23Z"/><path class="cls-1" d="M60.86,104.27c22.56,1.22,45,3.6,66.64,10.35,4.44,1.38,8.75,3.17,13.15,4.69,1.6.55,1.84,1.24,1.21,2.85-3,7.49-2.9,7.52-10.51,4.75-17.65-6.43-36-9.42-54.63-11-5.72-.5-11.45-1-17.19-1.2-2.15-.08-2.55-.91-2.35-2.75.17-1.5.1-3,.15-4.55C57.44,104.07,57.45,104.07,60.86,104.27Z"/><path class="cls-1" d="M57.23,135.47c.18-5.55.17-5.4,5.81-5.05,17.54,1.08,35,2.83,52.14,6.87a187.92,187.92,0,0,1,25.08,7.87c2.07.8,2.19,1.65,1.37,3.53-3,6.91-2.91,6.92-9.87,4.38-17.75-6.48-36.2-9.53-54.93-11.15-5.4-.47-10.81-1-16.22-1.12-2.86-.06-4-.84-3.39-3.7A8.06,8.06,0,0,0,57.23,135.47Z"/><path class="cls-1" d="M57.24,161.42c.17-5.46.16-5.33,5.56-5,17.65,1.1,35.21,2.83,52.47,6.91a185,185,0,0,1,25.07,7.9c1.82.71,2.35,1.45,1.39,3.27-1.17,2.2-1.51,5.45-3.27,6.53s-4.49-1.16-6.78-2c-17.77-6.42-36.21-9.49-54.94-11.1-5.4-.47-10.81-1.06-16.22-1.11-3,0-3.79-1.12-3.3-3.8A8.75,8.75,0,0,0,57.24,161.42Z"/><path class="cls-1" d="M60.28,182.36c25,1.38,49.43,4,72.89,12.25.92.32,1.83.66,2.74,1,6.82,2.54,6.72,2.5,4,9.25-1,2.47-1.93,2.8-4.45,1.78C116.69,199.05,97,195.74,76.92,194c-5.83-.51-11.67-1-17.52-1.22-1.94-.09-2.41-.79-2.22-2.54a31.67,31.67,0,0,0,.13-4.87C57.16,182.84,57.89,181.5,60.28,182.36Z"/><path class="cls-1" d="M265.52,213.48a31.24,31.24,0,1,1-31.2,31.27A31.32,31.32,0,0,1,265.52,213.48Zm.23,10.42A20.82,20.82,0,1,0,286.37,245,20.86,20.86,0,0,0,265.75,223.9Z"/></g></g></svg>