<svg xmlns="http://www.w3.org/2000/svg" viewBox="0 0 270.8 298.65"><defs><style>.cls-1{fill:#fff;}</style></defs><title>guardia</title><g id="Capa_2" data-name="Capa 2"><g id="Capa_1-2" data-name="Capa 1"><path class="cls-1" d="M5.33,298.65c-3.91-1.76-5.37-4.74-5.33-9,.15-17.69-.14-35.39.11-53.08C.55,206,14,182.75,40,166.82c1.53-.94,2.29-1.89,2.06-3.67a20.18,20.18,0,0,1,0-2.91c.12-6.16,4.17-10.55,10.36-10.7,8.07-.19,16.14-.11,24.21,0a10.21,10.21,0,0,1,8.82,4.84c.84,1.3,7.43,2.25,8.57,1.28.6-.51.42-1.25.42-1.92,0-3.88,0-7.77,0-11.66A4.44,4.44,0,0,0,93,138.75a51.74,51.74,0,0,1-12.16-21.3,3.16,3.16,0,0,0-2.9-2.6A19,19,0,0,1,62.51,96.51c-.1-5-.07-9.92,0-14.88C62.56,76,65.9,71.46,71.37,70.1c1.91-.47,2.18-1.35,2.17-3-.05-12-.09-24.11,0-36.16C73.65,13.07,87.05-.1,104.88,0c3.4,0,5.17,1.38,5.29,4.06s-1.7,4.61-5.21,4.44a22,22,0,0,0-22.42,17.1c-1.17,5.26-.47,10.66-.6,16,0,1.39.78,1.53,1.89,1.53,10.79,0,21.58,0,32.37,0,2,0,1.8-.68,1-2-2.07-3.68-3.7-7.51-3.27-11.88.78-7.94,5.9-13.42,14.23-15.22a33.32,33.32,0,0,1,13.6-.13c13.06,2.6,18.55,13.62,12.7,25.5-1.83,3.71-1.83,3.71,2.22,3.71,9.72,0,19.44-.08,29.16.06,2.49,0,3.18-.73,3-3.11-.2-3,0-6-.06-9-.32-13.37-9.45-22.4-22.79-22.46-12.35-.05-24.7,0-37,0a25.65,25.65,0,0,1-2.91-.07c-2.68-.32-4.21-2-4.14-4.37s1.77-4,4.41-4.09c1.36-.07,2.72,0,4.08,0C142.23,0,154,0,165.75,0c18.35,0,31.44,13,31.52,31.34.06,11.66.07,23.33,0,35,0,2.26.32,3.35,2.94,3.8,5.67,1,9.28,5.6,9.37,11.36.07,5,.1,10.11,0,15.16A18.77,18.77,0,0,1,193.12,115a3.43,3.43,0,0,0-3.31,2.88,51,51,0,0,1-11.9,20.79,5.06,5.06,0,0,0-1.57,3.86c.1,3.79.08,7.58,0,11.37,0,1.51.51,2.12,2,2a42.66,42.66,0,0,1,4.38,0,2.53,2.53,0,0,0,2.58-1.4c2.09-3.47,5.37-5,9.31-5,7.77-.05,15.55-.11,23.33,0,6.62.11,11,4.48,10.7,11.16-.15,3.69.9,5.76,4.24,7.47a56.15,56.15,0,0,1,12.29,9.29c2.13,2,2.37,4.62.65,6.43s-4.11,1.8-6.25-.08a68,68,0,0,0-10.69-8.12c-.06,1.17-.13,2-.13,2.81,0,25.47,0,50.94-.06,76.41,0,2.45.67,3.06,3.06,3,9.33-.14,18.67-.06,28,0,1.28,0,2.54.22,2.48-1.8-.31-11.26.79-22.56-1.38-33.74a71.26,71.26,0,0,0-8.21-22c-.78-1.36-1.57-2.74-1-4.39a4,4,0,0,1,3.24-3,4.2,4.2,0,0,1,4.66,2.22,78.51,78.51,0,0,1,8.24,19.21,81.13,81.13,0,0,1,3,21.87c0,17.79-.09,35.58.06,53.36,0,4.31-1.43,7.29-5.33,9.06H95.74c-.66-1-1.92-1.57-2.31-2.88-.94-3.13,1.16-5.63,5-5.65,9.91-.06,19.82-.1,29.73,0,2.49,0,3.06-.76,3-3.13q-.17-18.07,0-36.15A9.52,9.52,0,0,0,128,243c-12.83-12.3-25.31-25-37.79-37.64a39.6,39.6,0,0,1-10.89-21.49c-1.29-7.43-.53-14.93-.67-22.4,0-2.46-.89-3.46-3.45-3.42q-10.64.18-21.28,0c-2.51,0-3.57.84-3.48,3.36.1,2.72,0,5.45,0,8.17v45.18c0,4.55,0,4.55,4.69,4.55a40.23,40.23,0,0,1,4.66,0c2.18.24,2.81-.52,2.76-2.72-.13-7.48-.09-15,0-22.45,0-2.88,1.67-4.6,4.14-4.65s4.15,1.57,4.39,4.43c.06.77,0,1.55,0,2.33,0,6.9.06,13.8,0,20.7,0,1.8.43,2.65,2.3,3.28a16.17,16.17,0,0,1,11.25,15.43q.15,23.31,0,46.64a16.52,16.52,0,0,1-11,15.35c-.78.29-1.78.15-2.33,1Zm215-74.08q0-31.33,0-62.69c0-3.5-.33-3.81-3.84-3.81H196.08c-3.63,0-3.89.27-3.9,4.06q0,6.85,0,13.7a42.31,42.31,0,0,1-13.06,31.09Q161.56,224.4,144.07,242a11.28,11.28,0,0,1-2.6,2.31c-1.74.84-1.9,2.15-1.9,3.82.05,12.92.1,25.85,0,38.78,0,2.5.55,3.3,3.19,3.29q37.19-.17,74.36,0c2.82,0,3.31-.94,3.3-3.47C220.3,266,220.34,245.28,220.34,224.57ZM183.79,99.08c0-2.86-.12-5,0-7.13.12-1.73-.45-2.41-2.21-2.54-9.82-.68-18.5-4.47-26.91-9.41-12.79-7.51-25.91-7.49-38.69,0-8.4,5-17.09,8.73-26.92,9.4-1.53.11-2.18.65-2.12,2.31.12,3.39,0,6.8,0,10.19a45.1,45.1,0,0,0,14.35,33.27c5.75,5.51,11.62,10.9,17.51,16.25,10.08,9.14,23,9.11,33.09,0,4.9-4.43,9.57-9.12,14.56-13.43C178.65,127.49,184.48,114.37,183.79,99.08ZM87.05,172.47c-.67,11.67,3.31,21.39,11.71,29.58,11.42,11.11,22.57,22.5,33.84,33.77,2.61,2.61,3,2.61,5.61,0q17.22-17.2,34.41-34.44a58.74,58.74,0,0,0,4.08-4.56c7.44-9.19,7.49-20.12,6.93-31.07-.13-2.6-2.83-.89-4.3-1.24-2.08-.49-3,.28-3.09,2.7a32.43,32.43,0,0,1-24.66,30c-9.73,2.36-19.8,2-29.55.55-15.73-2.35-26.5-15-27.58-30.9,0-.79.4-2.12-.7-2.25a15.38,15.38,0,0,0-6,.06c-1.43.43-.49,2.41-.62,3.69A39.6,39.6,0,0,0,87.05,172.47ZM28.81,258.88c0,7.18,0,14.37,0,21.55,0,6.77,2.84,9.65,9.49,9.66q14.11,0,28.25,0c6.44,0,9.52-3,9.54-9.39q.06-21.69,0-43.4c0-6.41-3-9.54-9.42-9.59q-14.27-.12-28.54,0c-6.31,0-9.28,3.06-9.32,9.33C28.78,244.32,28.81,251.6,28.81,258.88Zm75-207.34c-6.41,0-12.82.06-19.23,0-2,0-2.72.5-2.69,2.6.11,7.77,0,15.54,0,23.31,0,3.37.48,3.78,4,3.72,9.2-.18,17.42-3.31,25.17-8.09a45.23,45.23,0,0,1,29.51-6.67,48.85,48.85,0,0,1,20.58,7.5,47.41,47.41,0,0,0,23.92,7.31c2.82.09,3.83-1,3.79-3.71-.09-7.67-.11-15.35,0-23,0-2.28-.6-3-2.93-3-10.78.11-21.57.26-32.34-.05-4.94-.14-8.77.62-12.06,4.87-3.12,4-9,3.63-12.64-.07a27.87,27.87,0,0,1-2.72-3,4.13,4.13,0,0,0-3.75-1.69C116.26,51.58,110,51.54,103.82,51.54Zm-.76,96.88c0,6.94-.54,13.28.11,19.5,1.28,12.19,10.22,20.78,22.42,21.86a97.07,97.07,0,0,0,20.66-.13c10.2-1.3,17.11-7.14,20.37-16.8,2.63-7.76.94-15.88,1.44-24.72l-10,9.26c-13.44,12.45-31.74,12.48-45.17.07ZM42,176a4.81,4.81,0,0,0-1,.15,14,14,0,0,0-1.23.76,71.16,71.16,0,0,0-29.3,42.33c-2.43,9.65-2,19.46-2,29.25,0,3-1.26,7,.47,8.73,1.9,2,5.9.36,9,.66,2,.19,2.46-.59,2.43-2.46-.09-6.79-.11-13.59,0-20.38a16.14,16.14,0,0,1,11.88-15.18c2.58-.74,5.2-.55,7.81-.55,1.32,0,1.9-.36,1.9-1.8C42,203.72,42,189.94,42,176Zm203.3,114.1c4.85,0,9.7,0,14.54,0,1.69,0,2.43-.39,2.41-2.25q-.15-9.6,0-19.2c0-1.82-.64-2.29-2.37-2.27q-14.4.09-28.8,0c-1.67,0-2.41.36-2.38,2.24.11,6.39.1,12.8,0,19.19,0,1.82.6,2.33,2.34,2.3C235.83,290,240.58,290.09,245.33,290.09ZM134.7,21.71c-1.19.15-2.94.25-4.64.62-6.79,1.47-9.33,6.64-6.3,12.92,2.6,5.38,6.49,9.84,10.49,14.21.66.73,1.24,1.19,2.11.22,4.42-4.9,8.89-9.78,11.34-16,1.79-4.56-.2-8.88-4.74-10.65A24.41,24.41,0,0,0,134.7,21.71ZM22.28,290.08c-1.77-3.59-2-7-1.89-10.54.07-3.69,0-7.37,0-11.05,0-1.45-.38-2.13-1.95-2.08-2.71.08-5.43,0-8.14,0-1.18,0-1.79.34-1.79,1.64,0,6.78,0,13.57,0,20.35,0,1,.25,1.68,1.45,1.68C14,290.06,17.91,290.08,22.28,290.08Zm170-192.95h-.11c0,2.52.12,5,0,7.55-.12,1.84.58,1.91,2,1.43a10.87,10.87,0,0,0,7-10.11c.13-4.55,0-9.11,0-13.66a3.83,3.83,0,0,0-1.55-3.56c-1.26-.81-2.33-1.16-2.39,1.06a7.79,7.79,0,0,1-2.53,6c-2.41,1.93-2.58,4.27-2.44,6.93C192.34,94.22,192.27,95.67,192.27,97.13ZM73.34,78.56A2.79,2.79,0,0,0,71,81.64c0,5.24-.12,10.49.15,15.71a9.24,9.24,0,0,0,7.34,8.58V89.4a2,2,0,0,0-.7-1.81C74.84,85.35,73.61,82.2,73.34,78.56Z"/><path class="cls-1" d="M185,278.26c-6.71,0-13.42,0-20.12,0-5.48,0-8.47-3-8.51-8.45,0-5.25,0-10.5,0-15.74.06-5,3-8,8-8q20.7-.09,41.4,0c4.86,0,7.81,3,7.9,7.82q.15,8.31,0,16.62c-.1,4.78-3.16,7.72-8,7.76C198.78,278.3,191.88,278.25,185,278.26Zm.41-23.86c-6.12,0-12.24,0-18.36,0-1.53,0-2.33.3-2.28,2.06.09,3.79.07,7.58,0,11.36,0,1.52.54,2,2,2q18.21,0,36.42,0c1.68,0,2.16-.64,2.12-2.23-.09-3.59-.13-7.19,0-10.78.07-1.92-.55-2.51-2.47-2.47C197,254.47,191.22,254.4,185.39,254.4Z"/><path class="cls-1" d="M135.42,134.27c-3.59,0-7.17,0-10.75,0-3,0-4.89-1.75-4.85-4.23s1.92-4.1,5-4.12q10.61-.06,21.22,0c3,0,4.92,1.61,5,4.08s-1.89,4.24-5.09,4.28C142.39,134.3,138.91,134.27,135.42,134.27Z"/><path class="cls-1" d="M117.07,94.06a5.61,5.61,0,0,1-5.47,5.63,5.51,5.51,0,0,1-.22-11A5.55,5.55,0,0,1,117.07,94.06Z"/><path class="cls-1" d="M159.13,88.68a5.42,5.42,0,0,1,5.55,5.46,5.48,5.48,0,0,1-5.49,5.55,5.62,5.62,0,0,1-5.46-5.35A5.53,5.53,0,0,1,159.13,88.68Z"/><path class="cls-1" d="M52.25,267.26c-2.82,0-5.64,0-8.45,0C40.67,267.19,39,265.64,39,263s1.67-4.11,4.6-4.14c5.63-.08,11.27-.07,16.91,0,2.85,0,4.67,1.7,4.73,4.08s-1.83,4.19-4.81,4.3H52.25Z"/><path class="cls-1" d="M52.29,285.32c-3,0-6,.08-9,0-2.69-.08-4.27-1.67-4.3-4.1A3.94,3.94,0,0,1,43.15,277c6-.09,12-.07,18,0,2.54,0,3.86,1.66,4.05,4.08a4.06,4.06,0,0,1-4.2,4.22C58.1,285.4,55.19,285.32,52.29,285.32Z"/><path class="cls-1" d="M43.22,248.55a5.12,5.12,0,0,1-5.31-5.25,5.25,5.25,0,0,1,5-5.3,5.38,5.38,0,0,1,5.53,5.15A5.29,5.29,0,0,1,43.22,248.55Z"/></g></g></svg>