<svg xmlns="http://www.w3.org/2000/svg" viewBox="0 0 359.91 360.09"><defs><style>.cls-1{fill:#b28532;}</style></defs><title>servicio</title><g id="Capa_2" data-name="Capa 2"><g id="Capa_1-2" data-name="Capa 1"><path class="cls-1" d="M179.37,288C99.85,287.79,35.79,223,36,143,36.18,63.72,101.24-.3,181.35,0c78.51.29,143,65.47,142.63,144.24A144.07,144.07,0,0,1,179.37,288ZM264,115.59c0-6.51-4.52-11-11.94-12.07-13-1.87-25.93-3.85-38.92-5.65a5.07,5.07,0,0,1-4.38-3.27C203,82.67,197.13,70.84,191.38,58.92c-2.32-4.8-5.79-7.84-11.27-7.89-5.65-.06-9.2,3-11.57,8-5.69,11.8-11.57,23.52-17.21,35.35a5.79,5.79,0,0,1-5,3.67c-12.74,1.76-25.46,3.71-38.2,5.44-5.52.75-9.8,3-11.61,8.54-1.75,5.4.22,9.68,4.2,13.42,9.27,8.75,18.33,17.73,27.72,26.34,2.69,2.47,3.13,4.83,2.51,8.17-2.28,12.4-4.31,24.85-6.47,37.27-.92,5.3-.13,10.06,4.53,13.36s9.32,2.52,14.09-.05c11.11-6,22.35-11.69,33.39-17.76,2.69-1.47,4.66-1.22,7.17.15C194.87,199,206.13,205,217.35,211a15.42,15.42,0,0,0,5.57,2.09c8.91,1,14.76-6.16,13.09-15.87-2.25-13-4.37-26.1-6.74-39.12a4.73,4.73,0,0,1,1.64-4.86c9.5-9.24,18.91-18.57,28.39-27.82C262.09,122.68,264.08,119.65,264,115.59Z"/><path class="cls-1" d="M39.2,235.25A171.12,171.12,0,0,0,73.38,273.5a165.65,165.65,0,0,0,48.12,27.7c3,1.09,3.11,2,1.59,4.57-9,15.38-17.91,30.88-26.86,46.32-6.14,10.59-16.69,10.68-22.82.19s-12.22-20.91-18.19-31.44a4.88,4.88,0,0,0-4.95-2.91c-12.25.15-24.49.09-36.74.06-11.47,0-16.95-9.3-11.26-19.2q17.64-30.68,35.42-61.28C38.05,236.88,38.5,236.3,39.2,235.25Z"/><path class="cls-1" d="M321,235.3l6.95,12q14.71,25.44,29.43,50.89c6.11,10.59.83,19.81-11.34,19.83-12,0-24,.1-36-.08-2.8,0-4.18.94-5.5,3.28-5.94,10.54-12,21-18.17,31.44-5.78,9.87-16.55,9.91-22.27.08-9.16-15.75-18.22-31.57-27.38-47.32-1.11-1.89-1.67-2.92,1.09-3.95q51.48-19.17,82.05-64.86C320.06,236.29,320.34,236,321,235.3Z"/><path class="cls-1" d="M180,89.82c4,7.91,7.65,15,11.07,22.14,2.29,4.8,5.75,7.58,11.11,8.31,7.74,1.06,15.45,2.44,24.32,3.87-3.32,3.14-6,5.66-8.67,8.22-3.05,3-5.94,6.09-9.11,8.92-4.25,3.81-5.43,8.38-4.46,13.88,1.34,7.6,2.45,15.24,3.72,23.31-3.77-1.06-6.59-3-9.62-4.55-4.13-2.06-8.18-4.28-12.27-6.43a13.25,13.25,0,0,0-13.23.09c-7,3.76-14.08,7.37-21.85,11.42,1.38-8.12,2.43-15.51,3.92-22.81,1.27-6.19-.06-11.14-4.81-15.54-5.57-5.15-10.68-10.8-16.34-16.59,7.42-1.12,14.58-2.5,21.81-3.22,6.81-.68,11.24-3.81,14-10.09C172.6,103.92,176.2,97.35,180,89.82Z"/></g></g></svg>