<svg xmlns="http://www.w3.org/2000/svg" viewBox="0 0 348.65 348.71"><defs><style>.cls-1{fill:#b28532;}</style></defs><title>supervision</title><g id="Capa_2" data-name="Capa 2"><g id="Capa_1-2" data-name="Capa 1"><path class="cls-1" d="M210.64,0c69-.07,127.06,50.63,136.69,119.38,10.26,73.18-40.43,142.47-113,154.43-39.68,6.54-75.58-2.53-107.7-26.61-2.19-1.64-3.44-1.76-5.07.39a20.36,20.36,0,0,1-3.43,3.45c-4.49,3.65-7.31,6.78-3.72,13.58s.34,13.77-5.28,19.21Q82.68,309.37,56.37,335c-4.3,4.18-8.67,8.29-12.87,12.57-1.5,1.53-2.35,1.45-3.83-.05Q20.53,328.25,1.22,309.12c-1.65-1.63-1.6-2.46,0-4.09q32.1-32.85,64.07-65.82c6.87-7,15.07-8.07,23.42-3,1.71,1.05,2.55.74,3.75-.52,2.85-3,5.71-6,8.78-8.71,1.87-1.68,1.91-2.78.33-4.81a135.87,135.87,0,0,1-24.75-50.78C57.74,96.5,105.38,19.46,180.9,3.21A133.92,133.92,0,0,1,210.64,0Zm-126,137.67C84.62,207.3,140.93,264,210.24,264A126.23,126.23,0,0,0,336.66,138.1c.19-69.17-56.35-126-125.41-126.1C141.35,11.92,84.71,68.17,84.66,137.68ZM78.8,245.21a6.14,6.14,0,0,0-4.88,2.26q-28.08,28.91-56.19,57.79c-1.19,1.23-1.41,2-.05,3.31q11.24,11,22.27,22.27c1.39,1.42,2.19,1.35,3.58,0q28.71-28,57.49-56c3.44-3.35,3.46-6.42.17-9.77-5.87-6-11.83-11.86-17.75-17.79A5.73,5.73,0,0,0,78.8,245.21Zm35.89-8c-.79-.84-1.63-1.73-2.47-2.6s-1.3-.33-1.87.25c-3.35,3.36-6.68,6.73-10.06,10-1.27,1.25-.32,2,.52,2.73s1.39,2.23,2.69,1c3.59-3.47,7.08-7,10.61-10.57A7.14,7.14,0,0,0,114.69,237.18Z"/><path class="cls-1" d="M96.66,137.94C96.66,75.24,147.76,24,210.33,24A114.18,114.18,0,0,1,324.66,138.08c.07,63.09-51.23,114-114.82,113.92C147.64,252,96.67,200.58,96.66,137.94ZM210.8,36A102,102,0,0,0,108.66,137.94C108.63,194.1,154.34,240,210.31,240A102.17,102.17,0,0,0,312.66,137.85C312.68,81.79,266.9,36,210.8,36Z"/><path class="cls-1" d="M210.88,83.94c24.41.36,45.93,8.69,63.84,25.74,9,8.62,17.72,17.64,26.6,26.43,1.24,1.22,1.83,2,.24,3.57-10.26,9.88-19.74,20.58-30.52,29.91a92.5,92.5,0,0,1-123.19-2.14c-9.61-8.93-18.64-18.48-28-27.71-1.15-1.13-1.65-1.91-.21-3.29,11.3-10.78,21.45-22.78,33.67-32.57C170,90.52,189.3,84.24,210.88,83.94Zm-42.21,54a42,42,0,1,0,41.91-42A42,42,0,0,0,168.67,138ZM258,111.85c8.71,17.64,8.73,34.63-.07,52.41,1.65-1,2.31-1.32,2.86-1.76,8.63-7,15.92-15.44,24-23.08,1.59-1.52.5-2.31-.5-3.29-6.37-6.32-12.71-12.68-19.13-19A28.78,28.78,0,0,0,258,111.85Zm-95.86.54a15.87,15.87,0,0,0-1.52,1c-8.66,7-15.92,15.45-24,23.06-1.73,1.63-.62,2.47.48,3.56,6.11,6.06,12.17,12.17,18.31,18.19a31,31,0,0,0,7.79,5.88C154.6,146.5,154.53,129.61,162.18,112.39Z"/><path class="cls-1" d="M210.66,108a30,30,0,1,1-30,29.7A30,30,0,0,1,210.66,108Zm.05,48a18,18,0,1,0-18-18.11A18,18,0,0,0,210.71,156Z"/></g></g></svg>