<svg xmlns="http://www.w3.org/2000/svg" viewBox="0 0 384.04 384.13"><defs><style>.cls-1{fill:#b28532;}</style></defs><title>valores</title><g id="Capa_2" data-name="Capa 2"><g id="Capa_1-2" data-name="Capa 1"><path class="cls-1" d="M101.29,384.13c-11.36-3.84-15.94-11.92-15.05-23.63.3-3.85-.11-7.75.1-11.62a8.26,8.26,0,0,0-2.8-6.85c-22.61-22.47-45.06-45.1-67.69-67.54C5.14,263.88-.07,251.27,0,236.19c.19-40,.16-80,.28-120,0-17.31,10.12-31,25.58-35a34.26,34.26,0,0,1,43.06,33c.26,17,.11,34,0,51,0,2.76.49,3.8,3.59,3.87,8.74.2,16.19,3.74,22.37,9.92,9,9,18.09,18,27,27.09a7.26,7.26,0,0,0,6.62,2.36c4.47-.47,9-.76,13.47-.85a34.68,34.68,0,0,1,25.86,10c7.6,7.41,15,15,22.36,22.7,1.48,1.55,2,1.74,3.63.08,7.34-7.68,14.73-15.32,22.35-22.71s17-10.63,27.71-10c2.74.17,5.6-.16,8.21.49,5.63,1.41,9.28-1,13-4.91,7.51-8,15.53-15.57,23.24-23.42C295,173,303,169.08,312.62,169c2.88,0,2.48-1.63,2.48-3.36,0-17-.11-34,0-51,.15-16.74,10.92-30,27.06-33.77,18.75-4.35,38.15,8.78,41.08,27.79.2,1.33.51,2.65.77,4V243.88a10.19,10.19,0,0,0-.59,1.71c-1.79,12-7.76,21.59-16.29,30-22.39,22.14-44.55,44.51-66.88,66.71a7.72,7.72,0,0,0-2.55,6.2c.14,6.37.45,12.79-.17,19.1-.87,8.83-6.81,13.71-14.77,16.51Zm79.49-67.62c0-13.5.06-27,0-40.49a32.21,32.21,0,0,0-9-22.77c-6.23-6.49-12.67-12.78-19-19.14a13.42,13.42,0,0,0-10.15-4,36.3,36.3,0,0,0-6.36.36c-15,3.1-26.27-2.7-35.89-14-6.53-7.7-14.13-14.49-21.39-21.55-4.7-4.58-11.12-4.54-15.42-.2-4.16,4.19-4.12,10.51.11,15.19.92,1,1.92,2,2.89,2.94,12.9,12.9,25.85,25.77,38.69,38.74,4.78,4.83,4.82,11.62.4,16.12a11.14,11.14,0,0,1-15.87.1c-14.48-14.32-29.05-28.57-43.13-43.3C35.39,212.78,34.86,195,44.63,182.14a8.75,8.75,0,0,0,1.88-5.8c-.06-14.63,0-29.25,0-43.88,0-6,.1-12,0-18-.15-6.65-4.86-11.54-11.15-11.85-6.49-.33-11.61,4.17-12.39,11a35.3,35.3,0,0,0-.14,4.12c-.08,39.24-.05,78.49-.29,117.74a31.38,31.38,0,0,0,9.82,23.76C56.27,283,80,306.91,104,330.71c3.32,3.3,5.05,6.93,4.87,11.65-.19,5.36.06,10.75-.09,16.12-.06,2.32.45,3.22,3,3.21q33-.17,66,0c2.53,0,3.09-.81,3.07-3.18C180.74,344.51,180.79,330.51,180.78,316.51Zm180.76-139h-.22V116.73c0-2.9-.2-5.75-1.73-8.33A11.93,11.93,0,0,0,346.34,103c-5.2,1.31-8.71,6-8.72,12.11-.05,20.75,0,41.5-.05,62.25a6.87,6.87,0,0,0,1.56,4.41c10.45,13.94,9.39,31.51-2.71,44.07-5.11,5.3-10.41,10.44-15.62,15.66-8.66,8.66-17.25,17.4-26,25.95-6.7,6.54-17.08,3.69-19.18-5.15-1.08-4.59.74-8.24,4-11.45q19.8-19.7,39.53-39.48c1.69-1.7,3.32-3.42,4.07-5.75a10.85,10.85,0,0,0-4.48-12.46,10.53,10.53,0,0,0-13.4,1.63c-9.43,9.31-18.84,18.64-28.1,28.12a25.75,25.75,0,0,1-22,8.07c-4.35-.41-8.73-.58-13.09-.83A13.3,13.3,0,0,0,231.53,234c-6.46,6.43-13,12.81-19.3,19.4a31.27,31.27,0,0,0-8.88,22.07c-.11,27.74,0,55.49-.11,83.24,0,2.27.55,3,2.9,3q33.2-.14,66.38,0c2.48,0,2.87-.91,2.81-3.05-.13-5,.2-10-.11-15-.34-5.56,1.63-9.73,5.57-13.63,24-23.76,47.74-47.71,71.66-71.52a29.54,29.54,0,0,0,9.14-22.15C361.43,216.72,361.54,197.1,361.54,177.47Z"/><path class="cls-1" d="M191.73,166.63q-28.68,0-57.36,0c-15.77,0-25.17-12-21.38-27.28,2.8-11.26,5.56-22.53,8.46-33.77,4.22-16.35,14.23-27.77,29.84-34.16,2.49-1,2.8-1.73,1.47-4.13-9.09-16.52-7.69-36,4.18-50.19C169.4,2.22,185.56-3.37,204.31,2s29.51,18.54,32.46,37.72a41.18,41.18,0,0,1-5.57,27.75c-1.38,2.32-.8,3,1.46,3.88,15.65,6.34,25.66,17.76,29.93,34.08,3,11.47,5.86,23,8.66,34.49,3.54,14.56-6,26.66-21,26.7C230.73,166.67,211.23,166.63,191.73,166.63Zm57.27-23c-2.69-10.72-5.33-21.48-8.09-32.2C237.58,98.59,228,90.65,214.76,90.41q-22.65-.42-45.31,0c-13.26.22-23,8.16-26.26,20.94-2.49,9.65-4.79,19.35-7.36,29-.78,2.93-.58,3.91,3,3.89,35.46-.15,70.91-.09,106.37-.11C246.36,144.11,247.62,144.42,249,143.67ZM214.6,45.29A22.56,22.56,0,1,0,192,67.8,22.56,22.56,0,0,0,214.6,45.29Z"/></g></g></svg>