<svg xmlns="http://www.w3.org/2000/svg" viewBox="0 0 384.12 338.98"><defs><style>.cls-1{fill:#fff;}</style></defs><title>vision</title><g id="Capa_2" data-name="Capa 2"><g id="Capa_1-2" data-name="Capa 1"><path class="cls-1" d="M0,166.49C4.24,159.13,10.66,153.7,16.7,148c28.37-26.79,59.77-49.17,95.8-64.58,55.14-23.58,110.05-22.53,164.44,2.36,39.22,17.94,73.05,43.52,102.74,74.66,5.72,6,5.95,11.85.5,17.53-34.49,36-73.8,65-120.94,82.34-45.84,16.86-91.79,16.37-137.34-1C76,241.75,37.54,213.19,3.73,178c-1.58-1.64-2.34-3.75-3.73-5.48Zm192,83.79c44.87,0,81.63-36.28,81.71-80.63.08-44.52-36.71-81-81.74-81-44.86,0-81.62,36.29-81.7,80.62C110.2,213.83,147,250.29,192,250.28ZM279.4,112.13c10.87,17.68,16.76,36.58,16.8,57.17s-5.91,39.74-17.26,57.13c1.12.39,1.68-.19,2.31-.52,27.47-14.49,51.94-33.06,74.21-54.65,1.77-1.72,1-2.49-.3-3.78-21-20.39-44-38-69.64-52.11C283.5,114.26,281.44,113.21,279.4,112.13Zm-174.48.15a4.47,4.47,0,0,0-1,.19c-28,14.54-52.91,33.41-75.53,55.37-1.62,1.57-1,2.31.27,3.52,21.6,21,45.37,39.08,71.9,53.43,1.34.72,2.74,1.32,4.48,2.15C81.94,188.47,82,150.55,104.92,112.28Z"/><path class="cls-1" d="M180.76,315.74c0-3.74-.09-7.48,0-11.22a11.22,11.22,0,0,1,22.43-.19q.24,11.78,0,23.56a11.21,11.21,0,0,1-22.42-.18C180.67,323.72,180.76,319.73,180.76,315.74Z"/><path class="cls-1" d="M113.44,272.2a11,11,0,0,1,9.84,16c-3.78,7.43-8.07,14.61-12.47,21.69-3.12,5-9.87,6.28-14.89,3.33-4.86-2.86-7.1-9.24-4.41-14.32,3.95-7.47,8.26-14.77,12.68-22C106.2,273.61,109.56,272.18,113.44,272.2Z"/><path class="cls-1" d="M272.29,272.22a10.17,10.17,0,0,1,7.92,5.18c4.11,6.83,8.14,13.71,12,20.7a11.21,11.21,0,0,1-4.33,15.24,11.07,11.07,0,0,1-15-4c-4.13-6.81-8.21-13.67-11.92-20.71C256.85,280.93,262.32,272.16,272.29,272.22Z"/><path class="cls-1" d="M203.24,22.88c0,3.49.06,7,0,10.47C203.1,40,198.33,44.93,192.07,45s-11.2-4.88-11.29-11.48q-.15-11,0-22.06a11.22,11.22,0,1,1,22.44-.15C203.33,15.15,203.24,19,203.24,22.88Z"/><path class="cls-1" d="M112.9,66.09a10.61,10.61,0,0,1-9.64-5.43c-3.91-6.54-7.77-13.1-11.43-19.78a11.21,11.21,0,0,1,4-15.07,11.08,11.08,0,0,1,15.35,3.91c4,6.5,7.84,13.06,11.43,19.78A11.12,11.12,0,0,1,112.9,66.09Z"/><path class="cls-1" d="M271.1,66.09c-8.22,0-13.8-8.49-10-15.88C264.74,43,268.9,36,273.18,29.11a11,11,0,0,1,14.6-3.49c5,2.72,7.44,9.08,4.8,14.2-3.83,7.42-8.12,14.62-12.5,21.75C278.15,64.72,274.86,66.1,271.1,66.09Z"/><path class="cls-1" d="M225.56,174.18c-8.52,8.58-16.32,16.5-24.19,24.36-6.36,6.36-12.41,6.3-18.82-.08-3.63-3.61-7.33-7.16-10.83-10.89-1.65-1.76-2.7-1.93-4.43-.06-3.65,3.94-7.52,7.67-11.36,11.43-5.29,5.17-12,5.45-16.68.78s-4.43-11.44.75-16.67q10.16-10.25,20.39-20.41c6-6,12.19-5.93,18.3.1,3.82,3.78,7.59,7.61,11.42,11.38.79.78,1.51,2.3,3,.82l16.67-16.71c-2.88,0-4.83.08-6.78,0a11.32,11.32,0,0,1-11-11.08,11.17,11.17,0,0,1,11.08-11.34q17.06-.21,34.11,0c6.33.08,10.94,4.92,11,11.38.1,9.74.08,19.49,0,29.23,0,6.75-4.74,11.69-11,11.83s-11-4.59-11.48-11.37C225.71,176.28,225.67,175.7,225.56,174.18Z"/></g></g></svg>