<svg id="Capa_1" data-name="Capa 1" xmlns="http://www.w3.org/2000/svg" xmlns:xlink="http://www.w3.org/1999/xlink" viewBox="0 0 2488.84 2500"><defs><style>.cls-1{fill:#e0e0e0;}.cls-2{fill:url(#Degradado_sin_nombre);}.cls-3,.cls-4{fill:#fff;}.cls-3{fill-rule:evenodd;}</style><linearGradient id="Degradado_sin_nombre" x1="957.59" y1="1293.57" x2="957.59" y2="2462.6" gradientTransform="matrix(2.04, 0, 0, -2.04, -709.74, 5068.67)" gradientUnits="userSpaceOnUse"><stop offset="0" stop-color="#20b038"/><stop offset="1" stop-color="#60d66a"/></linearGradient></defs><title>whatsapp</title><path class="cls-1" d="M2126.29,363.3C1892.31,129.16,1581.19.14,1249.71,0,566.64,0,10.76,555.7,10.48,1238.74a1236.46,1236.46,0,0,0,165.41,619.33L.08,2500,657,2327.75a1238.4,1238.4,0,0,0,592.16,150.8h.54c683,0,1238.92-555.8,1239.21-1238.81.11-331-128.68-642.28-362.63-876.44Zm-876.58,1906h-.4a1028.64,1028.64,0,0,1-524.24-143.54l-37.63-22.31L297.61,2205.68l104.08-379.95-24.52-39c-103.11-164-157.54-353.41-157.46-548C219.93,671.1,682,209.24,1250.1,209.24c275.12.11,533.7,107.35,728.18,302s301.48,453.32,301.4,728.46C2279.44,1807.39,1817.4,2269.32,1249.71,2269.32Z" transform="translate(-0.08)"/><path class="cls-2" d="M57,2428.77l167.77-612.6a1180,1180,0,0,1-157.87-591C67.14,573.33,597.63,43,1249.44,43c316.36.15,613.28,123.26,836.52,346.72S2432.14,910.2,2432,1226.08c-.28,651.84-530.8,1182.19-1182.53,1182.19H1249a1182.33,1182.33,0,0,1-565.09-143.88L57,2428.77Z" transform="translate(-0.08)"/><path class="cls-3" d="M943.48,712.84c-22.92-51-47.06-52-68.87-52.89-17.84-.76-38.27-.72-58.66-.72s-53.57,7.67-81.62,38.3S627.19,802.2,627.19,952.79s109.7,296.12,125,316.56,211.75,339.31,522.86,462c258.56,102,311.17,81.68,367.3,76.58s181.08-74,206.59-145.51,25.51-132.71,17.86-145.52-28.06-20.4-58.67-35.71S1627,1391.83,1599,1381.62s-48.47-15.3-68.88,15.34-79,99.54-96.89,119.94-35.71,23-66.32,7.7-129.2-47.64-246.14-151.91c-91-81.12-152.42-181.31-170.28-212s-1.91-47.2,13.44-62.45c13.74-13.72,30.61-35.73,45.92-53.61s20.37-30.63,30.58-51,5.1-38.32-2.55-53.62S970.7,773.36,943.48,712.84Z" transform="translate(-0.08)"/><path class="cls-4" d="M2116.17,359.36C1884.88,127.91,1577.32.38,1249.65.23,574.42.23,24.92,549.56,24.65,1224.75A1222.33,1222.33,0,0,0,188.15,1837L14.37,2471.53l649.38-170.28a1224.1,1224.1,0,0,0,585.37,149.08h.53c675.12,0,1224.7-549.42,1225-1224.59.12-327.23-127.19-634.9-358.46-866.38ZM1249.65,2243.51h-.4A1017,1017,0,0,1,731,2101.61l-37.19-22.05-385.36,101L411.36,1805l-24.23-38.5a1015.11,1015.11,0,0,1-155.66-541.68C231.69,663.63,688.42,207.07,1250,207.07c272,.11,527.58,106.12,719.83,298.5s298,448.11,297.94,720.1C2267.56,1786.88,1810.82,2243.51,1249.65,2243.51Z" transform="translate(-0.08)"/></svg>