<svg xmlns="http://www.w3.org/2000/svg" xmlns:xlink="http://www.w3.org/1999/xlink" width="768" zoomAndPan="magnify" viewBox="0 0 576 576" height="768" preserveAspectRatio="xMidYMid meet" version="1.0"><defs><clipPath id="0b3daa541e"><path d="M 0 3.070312 L 576 3.070312 L 576 573.070312 L 0 573.070312 Z M 0 3.070312 " clip-rule="nonzero"/></clipPath></defs><path fill="#173487" d="M 271.339844 65.859375 C 293.679688 65.859375 311.789062 83.96875 311.789062 106.308594 C 311.789062 128.65625 293.679688 146.769531 271.339844 146.769531 C 248.992188 146.769531 230.878906 128.65625 230.878906 106.308594 C 230.878906 83.96875 248.992188 65.859375 271.339844 65.859375 Z M 271.339844 65.859375 " fill-opacity="1" fill-rule="evenodd"/><path fill="#173487" d="M 133.527344 363.425781 C 207.460938 310.4375 237.394531 240.441406 230.878906 156.363281 L 303.609375 156.363281 C 304.902344 227.664062 291.128906 297.621094 230.195312 363.425781 Z M 133.527344 363.425781 " fill-opacity="1" fill-rule="evenodd"/><path fill="#173487" d="M 286.445312 299.484375 C 302.964844 270.660156 310.011719 235.011719 314.410156 197.445312 C 325.339844 278.390625 361.859375 331.492188 418.464844 362.71875 L 333.53125 362.71875 C 309.625 342.359375 294.894531 321.1875 286.445312 299.484375 Z M 286.445312 299.484375 " fill-opacity="1" fill-rule="evenodd"/><path fill="#173487" d="M 140.738281 520.546875 L 140.738281 461.128906 L 164.976562 461.078125 L 164.976562 520.546875 Z M 416.898438 520.546875 L 414.4375 511.0625 L 395.691406 511.0625 L 393.304688 520.546875 L 357.941406 520.546875 L 349.488281 501.414062 L 346.40625 501.414062 L 346.40625 520.546875 L 305.375 520.546875 L 296.933594 501.414062 L 293.839844 501.414062 L 293.839844 520.546875 L 256.910156 520.546875 L 254.449219 511.0625 L 235.691406 511.0625 L 233.316406 520.546875 L 211.761719 520.546875 L 212.894531 517.4375 C 210.757812 518.867188 208.195312 519.898438 205.1875 520.546875 L 167.425781 520.546875 L 167.425781 461.453125 L 199.121094 461.453125 C 204.652344 461.453125 208.828125 462.472656 211.664062 464.535156 C 214.484375 466.609375 216.214844 468.972656 216.835938 471.644531 C 217.46875 474.304688 217.777344 476.28125 217.777344 477.550781 C 217.777344 480.582031 216.910156 483.304688 215.195312 485.714844 C 213.464844 488.128906 211.402344 489.679688 209.027344 490.363281 L 209.835938 490.789062 L 210.90625 491.398438 C 215.242188 493.734375 217.890625 496.953125 218.847656 501.054688 L 233.230469 461.464844 L 256.996094 461.464844 L 272.722656 505.082031 L 272.722656 460.507812 L 301.160156 460.507812 C 307.253906 460.507812 312 461.328125 315.382812 462.980469 C 318.761719 464.632812 321.136719 466.785156 322.515625 469.445312 C 323.882812 472.105469 324.691406 474.269531 324.941406 475.945312 C 325.113281 477.203125 325.226562 478.34375 325.277344 479.375 L 325.277344 460.507812 L 353.714844 460.507812 C 359.820312 460.507812 364.554688 461.328125 367.9375 462.980469 C 371.328125 464.632812 373.703125 466.785156 375.070312 469.445312 C 376.453125 472.105469 377.257812 474.269531 377.496094 475.945312 C 377.742188 477.625 377.867188 479.101562 377.867188 480.371094 C 377.867188 484.769531 376.664062 488.078125 374.25 490.304688 C 371.839844 492.527344 369.851562 494.042969 368.257812 494.851562 L 376.390625 507.816406 L 393.230469 461.464844 L 416.984375 461.464844 L 438.277344 520.546875 Z M 410.894531 496.679688 L 405.066406 475.757812 L 399.234375 496.679688 Z M 347.863281 476.902344 L 346.40625 476.902344 L 346.40625 488.015625 C 360.914062 488.015625 358.925781 476.902344 347.863281 476.902344 Z M 325.277344 510.128906 L 325.277344 481.402344 C 325.101562 485.28125 323.910156 488.25 321.695312 490.304688 C 319.285156 492.527344 317.285156 494.042969 315.703125 494.851562 Z M 295.304688 476.902344 L 293.839844 476.902344 L 293.839844 488.015625 C 308.359375 488.015625 306.355469 476.902344 295.304688 476.902344 Z M 250.894531 496.679688 L 245.0625 475.757812 L 239.246094 496.679688 Z M 197.605469 479.539062 C 197.605469 478.097656 197.167969 476.964844 196.300781 476.132812 C 195.441406 475.289062 194.261719 474.875 192.78125 474.875 L 188.21875 474.875 L 188.21875 485.316406 L 191.527344 485.316406 C 193.675781 485.316406 195.269531 484.820312 196.300781 483.800781 C 197.34375 482.808594 197.777344 481.378906 197.605469 479.539062 Z M 198.140625 500.917969 C 198.015625 500.121094 197.605469 499.117188 196.882812 497.910156 C 196.175781 496.691406 194.769531 496.09375 192.683594 496.09375 L 187.871094 496.09375 L 187.871094 507.902344 L 191.140625 507.902344 C 195.800781 507.902344 198.140625 505.890625 198.140625 501.875 C 198.140625 501.476562 198.140625 501.15625 198.140625 500.917969 Z M 198.140625 500.917969 " fill-opacity="1" fill-rule="evenodd"/><path fill="#173487" d="M 221.769531 406.609375 L 220.300781 406.609375 L 220.300781 417.722656 C 234.820312 417.722656 232.820312 406.609375 221.769531 406.609375 Z M 199.183594 413.582031 L 165.871094 413.582031 L 165.871094 428.945312 L 179.46875 428.945312 C 176.996094 432.578125 173.277344 434.601562 168.867188 434.601562 C 161.894531 434.601562 156.238281 428.773438 156.238281 421.179688 C 156.238281 413.324219 162.152344 407.492188 169.921875 407.492188 C 173.640625 407.492188 176.996094 408.910156 180.699219 411.644531 L 193.863281 399.277344 C 186.703125 392.5625 178.847656 389.308594 169.835938 389.308594 C 160.664062 389.308594 152.445312 392.664062 146.355469 398.753906 C 140.265625 404.84375 136.996094 412.699219 136.996094 421.265625 C 136.996094 429.828125 140.265625 437.785156 146.355469 443.875 C 152.359375 449.878906 160.390625 453.25 168.953125 453.25 C 182.03125 453.25 193.066406 445.902344 198.015625 434.15625 C 198.4375 433.097656 198.835938 432.003906 199.183594 430.875 L 199.183594 450.078125 L 220.300781 450.078125 L 220.300781 431.136719 L 223.398438 431.136719 L 231.761719 450.078125 L 258.152344 450.078125 L 242.167969 424.570312 C 243.746094 423.765625 245.746094 422.234375 248.144531 420.011719 C 250.558594 417.785156 251.761719 414.476562 251.761719 410.078125 C 251.761719 408.808594 251.640625 407.332031 251.402344 405.664062 C 251.15625 403.988281 250.347656 401.8125 248.980469 399.152344 C 247.597656 396.492188 245.226562 394.339844 241.84375 392.6875 C 238.464844 391.046875 233.714844 390.214844 227.625 390.214844 L 199.183594 390.214844 Z M 344.09375 412.914062 C 344.15625 412.613281 344.195312 412.179688 344.195312 411.59375 C 344.195312 411.308594 344.058594 410.585938 343.808594 409.457031 C 343.546875 408.3125 342.976562 407.378906 342.082031 406.621094 C 341.175781 405.863281 339.792969 405.402344 337.941406 405.230469 L 334.289062 405.230469 L 334.289062 418.320312 L 336.601562 418.320312 C 341.011719 418.320312 343.523438 416.515625 344.09375 412.914062 Z M 362.851562 408.261719 C 362.851562 408.5 362.851562 408.761719 362.878906 409.058594 C 364.480469 404.945312 367.027344 401.277344 370.523438 398.019531 C 376.972656 392.015625 385.078125 389.007812 394.796875 389.007812 C 396.949219 389.007812 400.242188 389.355469 404.679688 390.054688 C 409.105469 390.738281 413.691406 393.183594 418.429688 397.375 C 423.164062 401.5625 426.097656 405.851562 427.203125 410.214844 C 428.308594 414.578125 428.855469 418.058594 428.855469 420.667969 C 428.855469 423.203125 428.558594 425.640625 427.9375 427.953125 C 426.097656 435.410156 422.21875 441.304688 416.300781 445.640625 C 410.398438 449.980469 403.261719 452.15625 394.886719 452.15625 C 392.546875 452.15625 388.867188 451.769531 383.859375 451.023438 C 378.835938 450.265625 373.753906 447.03125 368.582031 441.304688 C 363.625 435.808594 361.039062 429.195312 360.839844 421.476562 C 360.042969 422.957031 359.023438 424.261719 357.792969 425.390625 C 354.300781 428.597656 351.167969 430.648438 348.371094 431.546875 C 345.585938 432.441406 341.882812 432.898438 337.269531 432.898438 L 334.289062 432.898438 L 334.289062 450.078125 L 312.074219 450.078125 L 312.074219 390.214844 L 339.867188 390.214844 C 340.566406 390.214844 341.285156 390.265625 342.03125 390.351562 C 342.765625 390.4375 344.804688 390.796875 348.136719 391.433594 C 351.464844 392.066406 354.5625 393.792969 357.40625 396.589844 C 360.265625 399.402344 362.082031 403.292969 362.851562 408.261719 Z M 308.433594 427.867188 L 308.347656 429.59375 C 308.347656 436.941406 306.097656 442.582031 301.609375 446.511719 C 297.121094 450.4375 290.398438 452.414062 281.410156 452.414062 C 280.265625 452.414062 279.136719 452.414062 278.054688 452.414062 C 276.449219 452.242188 273.503906 451.917969 269.203125 451.457031 C 264.902344 451 260.960938 448.972656 257.371094 445.378906 C 253.789062 441.800781 251.988281 436.542969 251.988281 429.59375 L 251.988281 389.480469 L 274.300781 389.617188 L 274.300781 431.507812 C 274.832031 433.757812 276.6875 434.890625 279.855469 434.890625 C 280.601562 434.890625 281.683594 434.789062 283.148438 434.589844 C 284.605469 434.378906 285.5625 433.359375 286.035156 431.507812 L 286.035156 389.480469 L 308.433594 389.617188 Z M 407.8125 417.535156 C 407.441406 414.066406 405.859375 411.394531 403.0625 409.519531 C 400.253906 407.640625 397.445312 406.695312 394.613281 406.695312 C 389.253906 406.695312 385.6875 408.289062 383.910156 411.46875 C 382.121094 414.652344 381.222656 417.773438 381.222656 420.84375 C 381.222656 425.054688 382.429688 428.398438 384.828125 430.863281 C 387.226562 433.308594 390.484375 434.539062 394.613281 434.539062 C 399.472656 434.539062 402.925781 432.988281 404.953125 429.855469 C 406.980469 426.734375 408 423.589844 408 420.40625 C 408 419.949219 408 419.476562 408 419.015625 C 407.875 418.320312 407.8125 417.835938 407.8125 417.535156 Z M 407.8125 417.535156 " fill-opacity="1" fill-rule="evenodd"/><g clip-path="url(#0b3daa541e)"><path stroke-linecap="butt" transform="matrix(0.318214, 0, 0, -0.318214, -48.377266, 627.239418)" fill="none" stroke-linejoin="miter" d="M 1.836176 1.071543 L 2099.13572 1.071543 L 2099.13572 2098.371088 L 1.836176 2098.371088 Z M 1.836176 1.071543 " stroke="#000000" stroke-width="2" stroke-opacity="1" stroke-miterlimit="4"/></g></svg>