<svg xmlns="http://www.w3.org/2000/svg" xmlns:xlink="http://www.w3.org/1999/xlink" width="768" zoomAndPan="magnify" viewBox="0 0 576 576" height="768" preserveAspectRatio="xMidYMid meet" version="1.0"><defs><clipPath id="e5aa5068e8"><path d="M 112 411 L 518.191406 411 L 518.191406 576 L 112 576 Z M 112 411 " clip-rule="nonzero"/></clipPath><clipPath id="880d01ae1b"><path d="M 107 406 L 518.191406 406 L 518.191406 576 L 107 576 Z M 107 406 " clip-rule="nonzero"/></clipPath><clipPath id="bf7a8587dc"><path d="M 55.441406 414 L 97 414 L 97 572 L 55.441406 572 Z M 55.441406 414 " clip-rule="nonzero"/></clipPath><clipPath id="c64a0a321c"><path d="M 55.441406 409 L 103 409 L 103 576 L 55.441406 576 Z M 55.441406 409 " clip-rule="nonzero"/></clipPath></defs><path stroke-linecap="butt" transform="matrix(0.390173, 0, 0, 0.390173, 45.516824, -20.761059)" fill-opacity="1" fill="#ffffff" fill-rule="nonzero" stroke-linejoin="miter" d="M 421.004589 56.18339 C 434.169838 56.18339 447.355111 56.693982 460.500337 56.093286 C 497.13277 54.401326 533.785225 56.313541 570.37761 54.931941 C 604.006563 53.680491 637.625505 53.630433 671.26447 53.760584 C 690.917234 53.830665 710.590021 53.760584 730.262808 54.391314 C 752.508576 55.05208 774.804402 55.782926 796.980088 57.534956 C 814.980939 58.946591 833.091917 59.527264 851.142826 60.278133 C 868.743213 61.00898 886.353611 61.279293 903.923963 62.39058 C 919.862425 63.39174 935.840933 63.461821 951.74936 64.513039 C 972.513412 65.874616 993.437649 66.265068 1014.101584 69.338628 C 1041.253034 73.413348 1068.104136 79.700631 1091.671435 94.097307 C 1123.30808 113.419688 1141.599267 142.823747 1150.669774 178.505078 C 1155.685584 198.918723 1159.540048 219.542612 1162.223156 240.376745 C 1164.605916 258.117294 1166.307888 275.977982 1167.609395 293.858694 C 1170.192387 329.039445 1171.704138 364.25023 1172.795402 399.511073 C 1173.666411 427.303265 1174.126945 455.095458 1174.797722 482.88765 C 1176.22938 545.360013 1175.488522 607.832376 1175.328336 670.304739 C 1175.22822 700.59983 1174.567455 730.904933 1173.326017 761.200024 C 1172.15466 789.082321 1169.942097 816.904548 1166.69834 844.676717 C 1164.595905 862.797707 1162.93398 880.978766 1161.362159 899.169837 C 1160.030617 914.48758 1156.576616 929.565045 1152.361734 944.352173 C 1147.355935 962.262919 1141.589256 979.933387 1131.677775 995.971965 C 1116.990763 1019.729484 1096.446966 1035.888201 1070.236606 1045.329136 C 1052.38593 1051.756581 1034.244917 1056.772391 1015.413103 1059.095082 C 1003.749593 1060.52674 992.00599 1061.537911 980.282411 1062.208688 C 958.066678 1063.470149 935.88098 1065.142086 913.605177 1065.582596 C 900.369847 1065.842898 887.114493 1066.894115 873.839116 1067.42473 C 849.440855 1068.415878 825.062617 1070.047768 800.664356 1071.108998 C 789.020869 1071.609577 777.357359 1071.629601 765.663814 1072.170227 C 749.044564 1072.921097 732.375255 1072.570691 715.766017 1073.4417 C 690.636909 1074.773242 665.487778 1074.442859 640.348659 1074.442859 C 587.227128 1074.583022 534.095584 1074.833312 481.004087 1073.88221 C 455.3744 1073.421676 429.724689 1074.162535 404.125037 1072.981166 C 380.477646 1071.889902 356.840266 1072.901073 333.212898 1072.070111 C 315.98294 1071.459404 298.702925 1070.818661 281.563071 1069.066632 C 250.857504 1065.963037 220.131914 1062.699256 190.097124 1055.230605 C 162.785489 1048.432731 138.567437 1036.358746 119.365194 1014.903894 C 103.72708 997.433658 94.5064 977.100105 88.29921 954.844326 C 81.130907 929.114523 76.906013 903.004279 74.19287 876.413478 C 71.820122 853.256655 70.148185 830.069797 69.187072 806.862916 C 68.075785 781.783867 65.933303 756.764887 64.401529 731.695849 C 61.498166 684.100719 62.759627 636.435507 62.399209 588.810342 C 62.038792 541.986105 61.688386 495.161867 62.869755 448.347641 C 63.360323 428.895109 64.111193 409.442577 65.562874 390.040103 C 67.655298 361.667238 69.006863 333.264338 70.558661 304.861439 C 71.689971 284.317642 73.401954 263.783858 75.564459 243.320154 C 78.037323 219.502566 79.779341 195.544815 87.308062 172.508131 C 97.710111 140.701289 114.50957 113.409677 142.311774 93.917098 C 157.419273 83.364875 174.879498 78.058729 192.419815 73.343267 C 211.742196 68.147248 231.424995 65.113734 251.338061 63.08138 C 269.13868 61.269281 286.94931 60.077901 304.789975 58.896533 C 325.564038 57.534956 346.338101 57.62506 367.092141 56.904225 C 385.002887 56.18339 403.003738 56.273495 421.004589 56.18339 Z M 286.5088 412.265847 C 285.94815 412.936624 285.347455 413.567355 284.706712 414.168051 C 267.506789 426.712581 250.26682 439.167007 233.106943 451.801642 C 231.034543 453.333417 229.803117 452.802802 228.031064 451.371144 C 220.101879 444.773501 212.032533 438.36608 204.033267 431.798472 C 197.365544 426.332141 190.137171 425.801526 182.628473 429.555875 C 173.417804 434.151197 164.307251 438.956764 155.196699 443.742307 C 147.768094 447.636818 142.271727 458.36925 144.424221 467.019269 C 147.597897 479.824101 155.677255 490.356301 160.993413 503.281272 C 165.67884 494.791438 172.32654 490.376324 180.405899 488.013587 C 185.872231 486.471801 191.438678 485.65085 197.105242 485.540723 C 221.113051 484.729784 245.020743 486.441767 268.968483 486.952358 C 296.780698 487.533031 324.422716 489.945825 352.114792 492.068284 C 383.110696 494.471067 413.906367 497.544627 444.531841 503.071029 C 469.17038 507.506166 493.728827 512.271686 517.806717 519.219734 C 553.518082 529.531678 587.006872 544.949537 619.344329 563.220701 C 643.812672 576.88653 666.6291 592.895073 687.803627 611.256342 C 708.978154 629.607598 728.060257 649.931139 745.049937 672.216953 C 779.730107 717.77973 799.533045 769.910113 806.641279 826.785994 C 809.875025 852.495774 808.59354 877.965276 802.806838 903.224534 C 794.807572 938.215064 779.8102 970.362301 760.487819 1000.507218 C 755.331846 1008.506484 750.346071 1016.726005 744.949821 1025.376024 C 747.39265 1025.376024 749.02454 1025.466129 750.626396 1025.376024 C 773.392767 1023.754146 795.618511 1019.419124 817.323653 1012.380972 C 843.263699 1004.151439 867.882216 993.078614 889.737531 976.68963 C 917.679897 955.695312 937.002279 927.712899 952.490219 896.997321 C 977.429106 847.499987 994.488866 794.879035 1012.179358 742.578455 C 1026.17557 701.23056 1035.70661 658.581159 1045.67816 616.111966 C 1055.429455 574.56384 1063.889254 532.745401 1069.746038 490.446405 C 1073.260109 465.087031 1076.193506 439.667587 1078.746464 414.188074 C 1081.369502 388.348143 1083.752262 362.4982 1084.453074 336.528119 C 1085.264013 307.714744 1084.202784 278.931403 1082.380673 250.178098 C 1080.658679 222.776358 1075.21237 196.175546 1062.377503 171.55703 C 1040.962698 130.319263 1002.307923 110.686522 956.725124 115.742379 C 930.654926 118.565649 906.907419 128.807512 884.511478 142.21304 C 858.311129 157.931247 835.224387 177.844312 811.506915 196.806276 C 769.508267 230.295067 728.110315 264.494681 684.970345 296.491744 C 658.419591 316.214589 631.13799 334.926263 603.73625 353.407671 C 560.876605 382.321162 517.226044 409.752937 468.369452 427.77381 C 450.018196 434.531638 431.476719 440.678758 412.73501 446.20516 C 411.533618 446.555566 409.741543 447.907131 408.740383 445.944858 C 407.589049 443.702261 409.66145 443.161634 411.023027 442.330672 C 414.717306 440.098086 418.311469 437.655256 422.135899 435.702995 C 436.892993 428.094182 450.769066 419.133803 463.764118 408.801835 C 476.75917 398.469867 488.622912 386.976554 499.355344 374.311884 C 500.977223 372.429704 502.889438 370.657652 503.550203 367.954521 C 487.671811 369.566388 472.273975 371.83902 456.81607 373.671142 C 433.168679 376.474389 409.441195 377.565653 385.693688 378.206396 C 372.22809 378.566813 358.762493 378.516755 345.276872 377.725839 C 329.959129 376.974969 314.651398 377.185213 299.36369 378.366581 C 289.912743 379.027346 280.5519 380.258773 271.261138 382.070872 C 253.59067 385.494838 237.942545 393.994683 221.86392 401.423288 C 217.949386 403.225376 213.864655 404.847254 210.590863 407.720582 C 209.589703 408.58158 208.588543 409.672844 209.159204 411.114514 C 209.729865 412.546172 211.161524 412.015557 212.272811 411.935465 C 236.701107 410.27354 261.099368 411.925453 286.5088 412.265847 Z M 250.647261 532.274856 C 232.175865 531.954485 214.735664 533.085795 197.315486 534.347256 C 195.323178 534.49743 192.099444 533.566352 192.880348 538.161675 C 195.883827 555.992328 199.197666 573.782936 203.05213 591.473427 C 215.396429 648.289238 231.164694 704.17397 249.045405 759.468018 C 262.380852 800.845947 275.946565 842.093725 294.818425 881.389242 C 310.256307 913.516455 328.407332 943.661373 354.027007 968.880585 C 379.136092 993.609228 407.418852 1013.051749 441.558397 1023.183485 C 470.972468 1031.883562 501.307605 1033.825812 531.702813 1034.967134 C 566.703354 1036.278653 601.423572 1034.877029 635.703278 1026.267056 C 682.797829 1014.453372 716.266596 986.691215 736.92052 942.910503 C 748.754227 917.841465 753.729991 891.210618 755.35187 863.908994 C 756.813563 839.070223 755.562113 814.261486 749.254807 790.093492 C 737.250903 743.980078 715.806063 703.092717 680.344988 670.454912 C 660.341818 652.043586 637.335169 638.057386 613.157163 626.183632 C 582.591758 611.176249 550.284336 604.428433 516.164815 608.252863 C 492.687621 610.885913 471.342897 619.656071 451.159518 631.629941 C 449.978149 632.330753 449.027048 633.922596 447.325076 632.380811 C 445.793302 630.989199 447.114833 629.857888 447.635436 628.856729 C 451.429831 621.738483 453.522255 614.079612 455.164156 606.260555 C 460.510349 580.821088 449.577686 560.257268 425.549854 550.515985 C 412.364581 545.199827 398.37838 543.117415 384.432226 541.51556 C 363.497978 539.082742 342.50366 536.960283 321.429249 535.618729 C 297.511545 534.046909 273.663921 531.824334 250.647261 532.274856 Z M 566.823494 323.452974 C 563.549701 320.079066 560.876605 317.145668 558.013289 314.452548 C 519.01812 277.159351 478.07069 242.158809 435.160986 209.450923 C 403.384179 185.322975 372.158009 160.454169 339.470146 137.537624 C 316.002963 121.068548 290.473392 111.657647 260.999252 115.00152 C 241.206325 117.214083 223.816182 124.362363 209.609726 137.707822 C 184.000062 161.755677 172.997317 193.172067 171.876019 227.251542 C 170.294186 277.679954 171.275323 328.168436 173.608025 378.606859 C 173.728164 381.089735 174.308837 383.5626 174.749347 386.485986 C 177.172153 384.303458 179.03431 382.651544 180.856421 380.979608 C 206.416027 357.85282 236.701107 344.597466 270.600373 340.592827 C 289.221943 338.390276 308.153872 338.440334 326.945639 338.350229 C 369.885376 338.149997 412.835126 338.860821 455.644713 334.285521 C 469.030218 332.863874 482.495815 332.233144 495.891332 330.971683 C 515.233736 329.149572 534.536094 327.097195 553.888511 325.104887 C 558.003277 324.704423 562.218159 324.053669 566.823494 323.452974 Z M 566.823494 323.452974 " stroke="#154f3a" stroke-width="1" stroke-opacity="1" stroke-miterlimit="10"/><g clip-path="url(#e5aa5068e8)"><path fill="#ffffff" d="M 308.691406 546.871094 C 309.9375 544.050781 309.976562 540.871094 310.644531 537.8125 C 310.730469 537.421875 310.753906 537.035156 310.832031 536.667969 C 311.707031 532.375 311.710938 532.335938 316.039062 533.0625 C 316.792969 533.234375 317.554688 533.339844 318.324219 533.378906 C 319.214844 533.378906 319.703125 533.8125 320.046875 534.652344 C 324.339844 545.257812 332.574219 551.207031 343.457031 553.5 C 349.855469 554.84375 356.398438 555.277344 362.804688 552.917969 C 368.816406 550.707031 373.699219 544.277344 374.269531 537.988281 C 375.265625 527.066406 369.875 520.339844 359.441406 516.289062 C 347.0625 511.472656 335.003906 506.027344 324.007812 498.386719 C 312.375 490.304688 306.351562 479.128906 304.753906 465.339844 C 303.433594 453.847656 305.804688 443.164062 312.667969 433.734375 C 318.253906 426.070312 325.867188 420.859375 334.519531 417.167969 C 341.386719 414.269531 348.542969 412.535156 355.976562 411.972656 C 372.3125 410.617188 387.480469 414.148438 401.699219 422.183594 C 402.839844 422.832031 402.828125 423.46875 402.554688 424.492188 C 400.378906 432.585938 398.21875 440.679688 396.070312 448.78125 C 395.746094 449.996094 394.96875 450.648438 393.699219 450.628906 C 392.007812 450.605469 390.320312 450.515625 388.625 450.519531 C 387.566406 450.519531 387.210938 449.78125 386.820312 449.027344 C 383.566406 442.75 378.992188 437.746094 372.519531 434.734375 C 365.039062 431.253906 357.238281 430.667969 349.523438 433.5625 C 340.289062 437.039062 335.820312 449.707031 340.707031 457.753906 C 343.257812 461.945312 347.285156 464.492188 351.519531 466.59375 C 361.40625 471.492188 371.421875 476.105469 381.300781 481.027344 C 388.113281 484.425781 395.109375 487.617188 400.859375 492.734375 C 411.054688 501.832031 416.757812 513.101562 416.722656 526.972656 C 416.730469 528.335938 416.617188 529.695312 416.386719 531.039062 C 416.089844 532.707031 416.960938 533.382812 418.339844 533.25 C 420.324219 533.082031 421.070312 534.058594 421.851562 535.730469 C 426.609375 546.0625 434.964844 551.652344 445.96875 553.640625 C 451.105469 554.566406 456.210938 554.808594 461.363281 553.667969 C 462.320312 553.460938 463.253906 553.179688 464.167969 552.820312 C 465.078125 552.464844 465.957031 552.035156 466.800781 551.535156 C 467.640625 551.039062 468.441406 550.472656 469.191406 549.84375 C 469.941406 549.21875 470.640625 548.53125 471.28125 547.792969 C 471.921875 547.050781 472.496094 546.261719 473.011719 545.429688 C 473.523438 544.59375 473.96875 543.722656 474.339844 542.820312 C 474.710938 541.914062 475.007812 540.984375 475.230469 540.027344 C 475.453125 539.074219 475.597656 538.109375 475.664062 537.132812 C 476.21875 527.96875 472.097656 521.28125 463.65625 517.597656 C 454.75 513.699219 445.621094 510.3125 437.085938 505.601562 C 430.230469 501.820312 423.382812 497.929688 417.96875 492.179688 C 411.222656 485.003906 407.390625 476.328125 406.179688 466.546875 C 405.683594 462.773438 405.621094 458.996094 406 455.214844 C 406.378906 451.429688 407.1875 447.738281 408.425781 444.140625 C 411.339844 435.757812 416.714844 429.316406 423.679688 424.074219 C 431.992188 417.832031 441.460938 414.183594 451.636719 412.507812 C 458.738281 411.335938 465.910156 411.503906 473.09375 412.21875 C 483.628906 413.257812 493.199219 416.984375 502.480469 421.792969 C 503.972656 422.574219 504.21875 423.421875 503.792969 424.914062 C 501.558594 432.929688 499.371094 440.957031 497.230469 449 C 497.011719 449.804688 496.660156 450.0625 495.855469 450.308594 C 493.5625 451.007812 491.347656 450.199219 489.101562 450.207031 C 488.25 450.207031 488.285156 449.300781 488.007812 448.773438 C 483.851562 440.945312 477.863281 435.230469 469.136719 432.957031 C 462.648438 431.269531 456.019531 430.957031 449.789062 433.96875 C 441.066406 438.1875 437.304688 450.332031 442.183594 457.984375 C 444.871094 462.207031 449.019531 464.6875 453.308594 466.824219 C 461.503906 470.910156 469.835938 474.683594 478.050781 478.707031 C 485.6875 482.449219 493.507812 485.9375 500.253906 491.191406 C 510.0625 498.8125 516.335938 508.820312 517.703125 521.234375 C 519.097656 533.847656 515.753906 545.371094 507.746094 555.390625 C 503.304688 560.957031 498.132812 565.691406 491.707031 568.863281 C 486.007812 571.671875 479.898438 573.15625 473.667969 574.367188 C 468.765625 575.242188 463.824219 575.695312 458.84375 575.734375 C 451.925781 575.871094 445.058594 575.167969 438.386719 573.109375 C 428.871094 570.238281 419.648438 566.625 410.71875 562.265625 C 408.992188 561.40625 408.332031 560.550781 408.796875 558.570312 C 409.328125 556.324219 409.449219 553.980469 409.757812 551.644531 C 408.921875 551.582031 408.804688 552.234375 408.5 552.675781 C 403.296875 560.160156 396.761719 566.148438 388.390625 569.84375 C 382.71875 572.351562 376.683594 573.773438 370.5625 574.730469 C 366.074219 575.433594 361.546875 575.640625 357.03125 575.777344 C 347.34375 576.074219 338.117188 573.777344 329.070312 570.511719 C 323.324219 568.433594 317.667969 566.148438 311.734375 563.4375 C 312.222656 565.855469 312.492188 567.960938 313.109375 569.964844 C 313.578125 571.492188 313.164062 571.707031 311.765625 571.605469 C 300.742188 570.796875 289.695312 571.1875 278.65625 571.214844 C 276.203125 571.214844 273.746094 571.453125 271.292969 571.628906 C 270.394531 571.691406 270.0625 571.441406 270.054688 570.460938 C 269.992188 560.261719 268.980469 550.121094 268.039062 539.984375 C 267.191406 530.832031 266.183594 521.695312 265.097656 512.566406 C 264.097656 504.144531 262.992188 495.738281 261.78125 487.335938 C 261.191406 483.269531 260.574219 479.171875 259.359375 474.960938 C 258.046875 476.3125 257.523438 477.914062 256.808594 479.367188 C 248.742188 495.601562 240.710938 511.835938 232.707031 528.070312 C 225.703125 542.234375 218.710938 556.410156 211.722656 570.601562 C 211.21875 571.617188 210.597656 571.769531 209.734375 571.589844 C 206.585938 570.96875 203.433594 570.96875 200.285156 571.589844 C 199.347656 571.785156 198.726562 571.589844 198.175781 570.523438 C 191.683594 557.878906 185.097656 545.289062 178.554688 532.675781 C 169.097656 514.449219 159.648438 496.21875 150.207031 477.984375 C 149.914062 477.421875 149.570312 476.882812 149.105469 476.085938 C 148.078125 479.011719 147.953125 481.832031 147.601562 484.582031 C 146.351562 494.476562 145.128906 504.378906 144.140625 514.300781 C 143.386719 521.84375 143.21875 529.449219 142.414062 536.988281 C 141.210938 548.160156 140.917969 559.382812 140.199219 570.582031 C 140.117188 571.871094 139.449219 571.699219 138.683594 571.621094 C 132.273438 570.972656 125.839844 571.230469 119.417969 571.230469 C 117.230469 571.230469 115.074219 572.011719 112.738281 571.492188 C 114.914062 564.507812 116.292969 557.375 117.605469 550.21875 C 119.785156 538.324219 121.675781 526.382812 123.378906 514.40625 C 125.023438 502.886719 126.75 491.386719 128.335938 479.847656 C 129.621094 470.480469 130.738281 461.117188 131.949219 451.753906 C 133.472656 439.933594 135.035156 428.125 136.519531 416.300781 C 136.667969 415.132812 136.910156 414.941406 138.164062 415.046875 C 144.824219 415.628906 151.5 415.414062 158.167969 415.074219 C 159.628906 415 160.328125 415.390625 160.976562 416.632812 C 166.699219 427.714844 172.457031 438.769531 178.253906 449.796875 C 187.5 467.488281 196.75 485.175781 206.007812 502.863281 C 208.425781 507.496094 210.839844 512.128906 213.253906 516.761719 C 214.199219 518.585938 214.375 518.640625 215.59375 516.921875 C 218.898438 512.203125 221.605469 507.125 224.3125 502.0625 C 233.257812 485.339844 241.589844 468.304688 249.914062 451.261719 C 255.453125 439.90625 260.945312 428.523438 266.390625 417.105469 C 267.152344 415.511719 267.800781 414.789062 269.902344 415.015625 C 276.683594 415.757812 283.507812 415.40625 290.304688 415.015625 C 291.746094 414.929688 291.902344 415.363281 291.910156 416.574219 C 291.96875 424.890625 292.953125 433.132812 293.773438 441.398438 C 294.488281 448.6875 295.441406 455.945312 296.289062 463.21875 C 297.203125 471.0625 298.328125 478.882812 299.433594 486.707031 C 300.519531 494.453125 301.652344 502.1875 302.839844 509.917969 C 304.195312 518.859375 305.46875 527.816406 307.097656 536.71875 C 307.710938 540.097656 308.152344 543.5 308.691406 546.871094 Z M 308.691406 546.871094 " fill-opacity="1" fill-rule="nonzero"/></g><g clip-path="url(#880d01ae1b)"><path stroke-linecap="butt" transform="matrix(0.390173, 0, 0, 0.390173, 45.516824, -20.761059)" fill="none" stroke-linejoin="miter" d="M 674.508227 1454.823461 C 677.701926 1447.595089 677.802042 1439.445649 679.514025 1431.606569 C 679.73428 1430.605409 679.79435 1429.614261 679.994582 1428.673171 C 682.237179 1417.670426 682.247191 1417.57031 693.34004 1419.432467 C 695.272278 1419.872977 697.22454 1420.143291 699.196824 1420.243407 C 701.479468 1420.243407 702.730918 1421.354694 703.611938 1423.507187 C 714.614683 1450.688672 735.719129 1465.936334 763.611437 1471.813141 C 780.010432 1475.25713 796.779856 1476.368417 813.198875 1470.321413 C 828.606722 1464.654849 841.121218 1448.175761 842.582911 1432.057091 C 845.135868 1404.064666 831.319865 1386.824697 804.57889 1376.442671 C 772.85214 1364.098373 741.946342 1350.142207 713.763697 1330.559524 C 683.949162 1309.845531 668.51128 1281.202353 664.416537 1245.861417 C 661.032618 1216.407299 667.109657 1189.025583 684.700032 1164.857588 C 699.016615 1145.214836 718.529217 1131.859366 740.704904 1122.398407 C 758.305291 1114.969802 776.646536 1110.524654 795.698604 1109.082984 C 837.567101 1105.60896 876.442131 1114.659443 912.884342 1135.253297 C 915.807729 1136.915222 915.777694 1138.547112 915.076882 1141.170151 C 909.500423 1161.914179 903.96401 1182.658207 898.457632 1203.422259 C 897.626669 1206.535865 895.634361 1208.207802 892.380592 1208.157744 C 888.045571 1208.097674 883.720561 1207.867407 879.375528 1207.877419 C 876.662386 1207.877419 875.75133 1205.985227 874.750171 1204.052989 C 866.410511 1187.964353 854.686931 1175.139498 838.097716 1167.420557 C 818.925508 1158.500225 798.93235 1156.998485 779.159446 1164.417078 C 755.492032 1173.327399 744.038765 1205.795007 756.563273 1226.418896 C 763.100845 1237.161339 773.422801 1243.6889 784.275372 1249.075139 C 809.614723 1261.629681 835.284457 1273.453377 860.603785 1286.067989 C 878.064009 1294.778078 895.994779 1302.957552 910.731849 1316.072744 C 936.862116 1339.389752 951.479047 1368.273208 951.388943 1403.824388 C 951.408966 1407.318435 951.11863 1410.802471 950.527946 1414.24646 C 949.767064 1418.521412 951.99965 1420.253418 955.533744 1419.913024 C 960.619635 1419.482525 962.53185 1421.985424 964.534169 1426.270388 C 976.728294 1452.751061 998.143099 1467.077656 1026.345767 1472.173558 C 1039.511016 1474.546307 1052.596173 1475.167026 1065.801469 1472.243639 C 1068.25431 1471.713025 1070.647082 1470.99219 1072.989796 1470.071123 C 1075.322498 1469.160068 1077.575107 1468.058792 1079.737612 1466.777308 C 1081.890105 1465.505835 1083.942482 1464.054153 1085.864709 1462.442286 C 1087.786935 1460.840431 1089.579011 1459.07839 1091.220913 1457.186198 C 1092.862815 1455.283995 1094.334519 1453.261652 1095.65605 1451.129182 C 1096.967569 1448.9867 1098.108891 1446.754114 1099.059993 1444.441436 C 1100.011095 1442.118745 1100.771976 1439.735985 1101.342637 1437.283144 C 1101.913298 1434.840314 1102.283727 1432.36745 1102.453924 1429.864551 C 1103.875571 1406.377345 1093.313337 1389.237492 1071.678276 1379.796556 C 1048.851836 1369.804983 1025.454735 1361.124929 1003.579396 1349.050943 C 986.009044 1339.359717 968.458715 1329.388167 954.582642 1314.651097 C 937.292615 1296.259794 927.471239 1274.024038 924.367644 1248.955 C 923.096171 1239.283798 922.935985 1229.602584 923.90711 1219.911358 C 924.878235 1210.210121 926.950636 1200.749162 930.124312 1191.528482 C 937.592963 1170.043595 951.36892 1153.534473 969.219597 1140.09891 C 990.524274 1124.100379 1014.792384 1114.749547 1040.872594 1110.454572 C 1059.073676 1107.451093 1077.454968 1107.881592 1095.866294 1109.713714 C 1122.86757 1112.376799 1147.395982 1121.927862 1171.183535 1134.252138 C 1175.007965 1136.254457 1175.638696 1138.426973 1174.547432 1142.251403 C 1168.820798 1162.795199 1163.214304 1183.369031 1157.727949 1203.982908 C 1157.1673 1206.045297 1156.266256 1206.706062 1154.203867 1207.336793 C 1148.32706 1209.128869 1142.650485 1207.056468 1136.893817 1207.076491 C 1134.711289 1207.076491 1134.801393 1204.753801 1134.09057 1203.402235 C 1123.438231 1183.338996 1108.090453 1168.69203 1085.724546 1162.865281 C 1069.095284 1158.540271 1052.105605 1157.739343 1036.137108 1165.458284 C 1013.781213 1176.270809 1004.140046 1207.396862 1016.64453 1227.00958 C 1023.532508 1237.832116 1034.164824 1244.18948 1045.157557 1249.665823 C 1066.161887 1260.137953 1087.516622 1269.809156 1108.57101 1280.1211 C 1128.143681 1289.71221 1148.186898 1298.652566 1165.476925 1312.118163 C 1190.616044 1331.650788 1206.694668 1357.300499 1210.198727 1389.117353 C 1213.772867 1421.444798 1205.20294 1450.979008 1184.679167 1476.658754 C 1173.295982 1490.925279 1160.040628 1503.059334 1143.571552 1511.18875 C 1128.964632 1518.387088 1113.306495 1522.191495 1097.337998 1525.29509 C 1084.773445 1527.537688 1072.108775 1528.699033 1059.343989 1528.799149 C 1041.613452 1529.149555 1024.013065 1527.347467 1006.913258 1522.071356 C 982.525008 1514.712832 958.887629 1505.452105 936.001119 1494.279164 C 931.575993 1492.076612 929.884033 1489.884073 931.075413 1484.808193 C 932.436991 1479.051525 932.74735 1473.044567 933.538266 1467.057632 C 931.395785 1466.897447 931.095437 1468.569383 930.314532 1469.700694 C 916.979085 1488.882913 900.229684 1504.230691 878.774833 1513.701661 C 864.237994 1520.129106 848.770078 1523.773327 833.081906 1526.226168 C 821.578581 1528.028256 809.975141 1528.55887 798.401735 1528.909276 C 773.572975 1529.670158 749.925584 1523.783339 726.738726 1515.413644 C 712.011668 1510.087475 697.514876 1504.230691 682.307261 1497.282643 C 683.55871 1503.479821 684.24951 1508.876071 685.831343 1514.01202 C 687.032734 1517.926555 685.971505 1518.477193 682.387353 1518.216891 C 654.134628 1516.144491 625.821832 1517.14565 597.52906 1517.215731 C 591.241778 1517.215731 584.944483 1517.826439 578.657201 1518.276961 C 576.354534 1518.437146 575.503548 1517.796404 575.483525 1515.283493 C 575.323339 1489.143214 572.730336 1463.15311 570.317541 1437.173016 C 568.145024 1413.715846 565.562032 1390.298721 562.778809 1366.90162 C 560.21584 1345.316617 557.382558 1323.771662 554.278963 1302.236717 C 552.767212 1291.814645 551.18538 1281.31248 548.071773 1270.519979 C 544.707877 1273.983992 543.366323 1278.088746 541.534201 1281.81306 C 520.860254 1323.421256 500.276411 1365.029451 479.762649 1406.637647 C 461.811857 1442.939696 443.891099 1479.27178 425.980352 1515.643911 C 424.688856 1518.246926 423.097013 1518.637378 420.88445 1518.176845 C 412.815103 1516.585001 404.735744 1516.585001 396.666397 1518.176845 C 394.263614 1518.677425 392.67177 1518.176845 391.260135 1515.443679 C 374.620862 1483.036141 357.74131 1450.768765 340.971885 1418.441319 C 316.73381 1371.727209 292.515758 1325.003088 268.317729 1278.268955 C 267.566859 1276.827285 266.685839 1275.445685 265.494459 1273.403319 C 262.861409 1280.902005 262.541038 1288.130378 261.639994 1295.178542 C 258.436283 1320.537916 255.302653 1345.917313 252.769719 1371.346769 C 250.837481 1390.679162 250.406982 1410.17174 248.344594 1429.494122 C 245.261022 1458.127288 244.510152 1486.890605 242.668018 1515.593853 C 242.457775 1518.89768 240.745792 1518.457169 238.783519 1518.256937 C 222.354489 1516.595012 205.865389 1517.255778 189.406324 1517.255778 C 183.79983 1517.255778 178.273429 1519.258097 172.286494 1517.926555 C 177.862953 1500.02582 181.397047 1481.744645 184.760943 1463.4034 C 190.347414 1432.918088 195.193027 1402.312637 199.558083 1371.617082 C 203.772965 1342.092883 208.198091 1312.618743 212.262799 1283.044486 C 215.556615 1259.036678 218.419931 1235.038881 221.523526 1211.041084 C 225.428049 1180.745992 229.432688 1150.480936 233.237094 1120.175833 C 233.617535 1117.182365 234.238254 1116.691797 237.451976 1116.96211 C 254.521749 1118.453838 271.631567 1117.9032 288.721363 1117.032191 C 292.4657 1116.841971 294.257776 1117.843131 295.919701 1121.026818 C 310.58669 1149.429718 325.343783 1177.762536 340.200993 1206.025274 C 363.898442 1251.367795 387.605902 1296.700304 411.333386 1342.032814 C 417.530565 1353.906567 423.717732 1365.780321 429.904898 1377.654075 C 432.327705 1382.32949 432.778226 1382.469653 435.901845 1378.06455 C 444.371655 1365.970541 451.309692 1352.955466 458.247728 1339.980436 C 481.174285 1297.120791 502.52902 1253.460218 523.863732 1209.779622 C 538.060177 1180.675911 552.136481 1151.502118 566.092647 1122.238222 C 568.044908 1118.15349 569.706833 1116.301345 575.093072 1116.882017 C 592.473204 1118.784221 609.963463 1117.883177 627.383642 1116.882017 C 631.077921 1116.661762 631.478385 1117.773049 631.498408 1120.876644 C 631.648582 1142.191334 634.171504 1163.315802 636.273939 1184.500341 C 638.106062 1203.18198 640.548891 1221.783527 642.721408 1240.42512 C 645.064121 1260.528406 647.947461 1280.571622 650.780743 1300.62485 C 653.563967 1320.477846 656.46733 1340.300808 659.510855 1360.113757 C 662.984879 1383.030302 666.24866 1405.986893 670.423495 1428.803322 C 671.995316 1437.463353 673.126627 1446.183453 674.508227 1454.823461 Z M 674.508227 1454.823461 " stroke="#154f3a" stroke-width="1" stroke-opacity="1" stroke-miterlimit="10"/></g><g clip-path="url(#bf7a8587dc)"><path fill="#ffffff" d="M 62.367188 415.105469 C 67.113281 414.992188 71.828125 415.757812 76.582031 415.574219 C 82.824219 415.328125 89.042969 415.25 95.273438 414.980469 C 96.5 414.925781 96.527344 415.414062 96.515625 416.304688 C 96.425781 421.769531 95.789062 427.171875 95.519531 432.617188 C 95.222656 438.707031 94.910156 444.796875 94.742188 450.894531 C 94.222656 470.59375 94.40625 490.300781 94.601562 509.992188 C 94.734375 523.566406 95.261719 537.136719 95.742188 550.703125 C 95.964844 557.046875 96.324219 563.390625 96.523438 569.738281 C 96.578125 571.472656 96.058594 571.746094 94.523438 571.652344 C 85.046875 571.074219 75.558594 571.144531 66.070312 571.238281 C 63.089844 571.265625 60.128906 571.792969 57.132812 571.652344 C 56.351562 571.613281 55.761719 571.652344 55.878906 570.550781 C 56.703125 562.800781 56.867188 555.011719 57.1875 547.230469 C 57.542969 538.535156 57.742188 529.839844 57.894531 521.136719 C 58.085938 509.824219 58.324219 498.507812 58.101562 487.191406 C 57.890625 476.542969 57.742188 465.886719 57.34375 455.238281 C 57.082031 448.292969 56.953125 441.339844 56.5625 434.40625 C 56.246094 428.636719 56.171875 422.855469 55.839844 417.089844 C 55.742188 415.53125 55.914062 414.660156 57.878906 415.03125 C 59.335938 415.324219 60.875 415.105469 62.367188 415.105469 Z M 62.367188 415.105469 " fill-opacity="1" fill-rule="nonzero"/></g><g clip-path="url(#c64a0a321c)"><path stroke-linecap="butt" transform="matrix(0.390173, 0, 0, 0.390173, 45.516824, -20.761059)" fill="none" stroke-linejoin="miter" d="M 43.186956 1117.112284 C 55.351045 1116.821948 67.435043 1118.784221 79.619156 1118.313676 C 95.617687 1117.682945 111.556149 1117.482713 127.524646 1116.791913 C 130.668287 1116.651751 130.738368 1117.9032 130.708333 1120.185844 C 130.478067 1134.192068 128.846176 1148.038106 128.155376 1161.994272 C 127.394495 1177.602351 126.593567 1193.21043 126.163068 1208.838532 C 124.831526 1259.327014 125.302071 1309.835519 125.802651 1360.303978 C 126.143045 1395.094276 127.494611 1429.874562 128.726037 1464.644838 C 129.296698 1480.90367 130.217765 1497.162503 130.728356 1513.431348 C 130.868519 1517.876497 129.536976 1518.577309 125.602419 1518.33703 C 101.314286 1516.855314 76.996117 1517.035523 52.677949 1517.275801 C 45.039101 1517.345882 37.450311 1518.697448 29.771416 1518.33703 C 27.769097 1518.236914 26.257346 1518.33703 26.557694 1515.51376 C 28.67014 1495.650752 29.090628 1475.687629 29.911578 1455.744528 C 30.822634 1433.458714 31.333225 1411.1729 31.723677 1388.867063 C 32.214246 1359.873479 32.824953 1330.869884 32.254292 1301.866288 C 31.713666 1274.574676 31.333225 1247.26304 30.312042 1219.971428 C 29.641265 1202.170809 29.310883 1184.350167 28.309723 1166.579583 C 27.498784 1151.792455 27.308563 1136.975292 26.457578 1122.198175 C 26.207288 1118.203548 26.647798 1115.970962 31.683631 1116.922064 C 35.417957 1117.672934 39.362526 1117.112284 43.186956 1117.112284 Z M 43.186956 1117.112284 " stroke="#154f3a" stroke-width="1" stroke-opacity="1" stroke-miterlimit="10"/></g><path stroke-linecap="butt" transform="matrix(0.390173, 0, 0, 0.390173, 45.516824, -20.761059)" fill-opacity="1" fill="#ffffff" fill-rule="nonzero" stroke-linejoin="miter" d="M 811.506915 271.002219 C 811.997483 271.26252 812.437993 271.602915 812.818434 272.003379 C 813.66942 273.394991 812.257785 273.995686 811.627054 274.89673 C 802.096014 287.711574 792.454847 300.426301 783.033934 313.331249 C 772.932233 327.167276 762.920637 341.143465 754.901348 356.331057 C 740.114219 384.273423 737.140775 413.737552 745.200111 444.332991 C 750.676454 465.117066 761.348816 483.57845 771.200227 502.410263 C 789.130997 536.68997 807.572358 570.719387 820.076842 607.532028 C 827.205098 628.526346 832.42114 649.921128 837.076533 671.526153 C 840.991067 689.717224 844.695358 707.928319 846.617584 726.529865 C 849.070426 750.127198 848.529799 773.694497 846.727712 797.281818 C 846.066947 805.751629 844.935636 814.141347 843.544024 822.511042 C 843.283723 824.082863 843.684187 826.225344 841.281403 826.235356 C 839.048817 826.235356 839.619478 824.243048 839.3792 822.851436 C 834.663738 794.018038 829.90823 765.18464 822.059138 736.981972 C 812.217738 701.570955 798.852257 667.441422 784.215303 633.782434 C 763.451251 585.997083 736.299801 541.996116 706.295046 499.516912 C 694.891838 483.38823 682.387353 467.950348 673.356893 450.239833 C 668.291025 440.298318 664.096166 430.036431 663.475447 418.643234 C 662.484299 400.892673 669.482405 386.546056 682.347307 374.902569 C 699.757474 359.194374 718.349008 344.897814 736.840427 330.461091 C 760.838224 311.679336 785.026242 293.227963 807.942787 273.164724 C 808.883877 272.273692 809.724851 271.122358 811.506915 271.002219 Z M 811.506915 271.002219 " stroke="#154f3a" stroke-width="1" stroke-opacity="1" stroke-miterlimit="10"/><path stroke-linecap="butt" transform="matrix(0.390173, 0, 0, 0.390173, 45.516824, -20.761059)" fill-opacity="1" fill="#ffffff" fill-rule="nonzero" stroke-linejoin="miter" d="M 424.418543 908.680854 C 432.157507 917.090595 440.276912 922.857275 450.308532 925.680545 C 455.454493 927.222331 460.700569 927.702888 466.046762 927.122215 C 471.382943 926.551554 476.408765 924.95971 481.114215 922.356695 C 484.327937 920.644712 487.561683 918.892683 490.585185 916.860328 C 509.907567 903.915334 530.781746 901.862957 552.476876 908.921132 C 576.544754 916.770224 598.97073 914.597708 619.734782 899.760521 C 631.368257 891.450896 638.106062 879.30683 643.822683 866.692218 C 651.631729 849.352132 655.866634 831.181085 656.507376 812.179074 C 658.749974 752.479924 633.791063 706.36651 585.575214 672.116838 C 567.243981 659.121785 546.499952 651.673157 524.584567 647.7386 C 518.287273 646.587266 511.999991 646.637324 505.722719 647.898785 C 499.445448 649.150235 493.628711 651.512972 488.262495 654.997007 C 486.520477 656.068248 484.888587 657.289663 483.366824 658.661252 C 481.855073 660.03284 480.473473 661.524568 479.222023 663.146447 C 477.980585 664.758314 476.889321 666.480309 475.948231 668.302419 C 475.017153 670.114518 474.256271 672.00671 473.665587 673.958971 C 473.074903 675.921244 472.664427 677.913552 472.434161 679.945906 C 472.203894 681.968249 472.163848 684.010614 472.30401 686.042968 C 472.444172 688.085334 472.764543 690.097665 473.275135 692.079961 C 473.785726 694.052246 474.466515 695.974472 475.3175 697.826618 C 488.412669 727.541036 511.449353 745.091365 543.316265 749.82685 C 558.143439 752.01939 571.12848 745.011273 582.461608 735.530291 C 584.23366 734.038563 585.7354 732.226464 587.457394 730.63462 C 588.268334 729.873738 589.019203 728.812509 590.460873 729.69353 C 592.313019 730.834852 591.051557 732.056266 590.460873 733.057426 C 584.463927 743.67973 576.464661 752.429866 565.461916 758.056383 C 555.840772 763.062181 545.338607 764.543898 534.716303 765.404895 C 506.233311 767.707562 482.145409 778.399947 465.045602 802.207524 C 460.33014 808.905282 456.615838 816.113632 453.902695 823.842584 C 453.031686 826.225344 452.901536 827.51684 456.095235 827.256539 C 463.543863 826.715913 470.67212 827.987385 477.459982 831.100992 C 485.579387 834.705167 491.796589 830.750586 497.603315 825.554567 C 498.904822 824.383211 499.485495 821.339685 502.118545 823.352016 C 504.461258 825.144092 504.771618 831.131027 502.849391 832.762917 C 496.852445 837.878843 495.260601 844.376369 498.904822 850.473431 C 500.807025 853.637096 503.900609 855.789589 506.904088 857.86199 C 515.233736 863.548576 520.279581 876.703814 517.896821 886.45511 C 517.606485 887.58642 517.76667 888.917962 516.164815 889.008067 C 514.552948 889.098171 514.2526 887.916803 513.972275 886.755457 C 513.69195 885.604124 513.531765 884.472813 513.281475 883.331491 C 511.038877 873.329906 506.533659 869.515488 496.371888 869.555534 C 495.450821 869.625616 494.589824 869.425384 493.788896 868.96485 C 492.987969 868.494305 492.387273 867.843551 491.99682 867.002577 C 477.670226 843.785685 447.745563 841.56311 427.001535 858.793068 C 425.319587 860.394924 423.777801 862.12693 422.366166 863.979075 C 421.455111 864.980235 421.124728 867.112705 419.072351 866.161603 C 416.439301 864.9502 418.581782 863.047997 419.072351 861.966744 C 424.728903 848.150741 431.626893 834.965468 438.785184 821.830253 C 447.244984 806.412395 456.105247 791.224803 461.992065 774.505436 C 465.986692 763.232378 465.676333 752.07946 463.053295 740.676251 C 459.729445 726.289587 455.574632 712.113166 452.420979 697.676444 C 446.624265 671.025573 463.924304 645.896466 484.618274 635.524452 C 509.617231 622.999945 535.036674 624.071185 560.486153 632.811309 C 606.489439 648.599597 641.319784 678.103772 666.789286 719.401608 C 674.938725 732.596893 681.466286 746.553058 686.361957 761.270105 C 691.26764 775.987152 694.401269 791.074629 695.792881 806.522522 C 701.319283 864.339493 685.040426 915.518775 648.037565 960.120437 C 636.003626 974.677299 619.434434 982.39624 602.004244 988.433233 C 573.76153 998.184528 546.099489 995.181049 518.717772 985.179464 C 517.286114 984.658861 514.823261 984.368525 515.393922 982.236054 C 515.964583 980.113596 518.217192 981.244906 519.668874 981.535243 C 535.226895 984.378536 547.931611 978.241427 559.555074 968.85055 C 561.457278 967.308764 563.709887 965.306445 562.358322 962.543244 C 561.006756 959.770032 558.173474 960.751168 555.690598 961.081551 C 544.998213 962.503197 534.295816 963.914833 523.583408 965.076178 C 519.238375 965.696897 514.9434 965.496665 510.67846 964.485494 C 507.684992 963.704589 505.402348 962.242896 504.841699 959.119278 C 504.28105 955.99566 506.183253 954.123491 508.365781 952.42152 C 509.947613 951.23014 511.799759 950.4192 513.421637 949.22782 C 515.043516 948.03644 518.157122 947.575907 517.13594 944.792683 C 516.244907 942.32983 513.481707 943.050665 511.359248 943.0807 C 503.770458 943.030642 496.832422 945.123066 490.535127 949.357971 C 464.975521 966.818196 430.625733 949.017577 425.079309 922.116417 C 424.248346 917.671268 424.028091 913.186073 424.418543 908.680854 Z M 424.418543 908.680854 " stroke="#154f3a" stroke-width="1" stroke-opacity="1" stroke-miterlimit="10"/></svg>